# 3ds Max Wavefront OBJ Exporter v0.97b - (c)2007 guruware
# File Created: 09.05.2023 16:54:09

mtllib Ruins_Trim_Base_4M_A.mtl

#
# object Dn_HL_Ruins_Trim_Base_4M_A
#

v  -2.301071 -0.363508 1.324408
v  -2.500912 -0.438074 1.513786
v  -2.500912 -0.467129 1.087189
v  -2.698697 -0.363508 1.324408
v  -0.000757 0.000000 0.000000
v  -0.000757 -0.794869 -0.000000
v  -0.071882 0.000000 0.000000
v  -0.071883 -0.843372 -0.000000
v  -2.429787 0.000000 0.000000
v  -2.429787 -0.844637 -0.000000
v  -2.500912 -0.796212 -0.000000
v  -2.500912 0.000000 0.000000
v  -4.999999 -0.796212 -0.000000
v  -4.999999 0.000000 0.000000
v  -4.939837 0.000000 0.000000
v  -4.939837 -0.865874 -0.000000
v  -2.572124 0.000000 0.000000
v  -2.572124 -0.865874 -0.000000
v  0.003400 -0.169454 1.990961
v  -0.000757 -0.000000 1.776933
v  0.003400 -0.000000 1.990961
v  -0.000757 -0.171345 1.776933
v  -0.000757 -0.000000 1.562905
v  0.001321 -0.414294 1.785186
v  -0.000757 -0.171345 1.562905
v  -0.000757 -0.000000 1.219066
v  -0.000757 -0.360979 1.588783
v  -0.000757 -0.512641 1.703164
v  -0.000757 -0.438074 1.513786
v  -0.000757 -0.305866 1.219066
v  -0.000757 -0.307663 1.392380
v  0.001527 -0.363508 1.324408
v  -0.000757 -0.421169 1.124774
v  -0.000757 -0.823595 0.175990
v  -0.000757 -0.467129 1.087189
v  -0.000757 -0.834509 0.246140
v  -4.999999 -0.467129 1.087189
v  -4.999999 -0.823595 0.175990
v  -4.999999 -0.834509 0.246140
v  -4.999999 -0.421169 1.124774
v  -4.999999 -0.363508 1.324408
v  -4.999999 -0.305866 1.219066
v  -4.999999 -0.000000 1.219066
v  -4.999999 -0.307664 1.392380
v  -4.999999 -0.438074 1.513786
v  -4.999999 -0.167563 1.562905
v  -4.999999 -0.000000 1.562905
v  -4.999999 -0.360979 1.588783
v  -4.999999 -0.512641 1.703164
v  -4.999999 -0.414294 1.785186
v  -4.999999 -0.167563 1.776933
v  -4.999999 -0.000000 1.776933
v  -4.999999 -0.167563 1.990961
v  -4.999999 -0.000000 1.990961
v  -0.071882 -0.000000 1.219066
v  -2.429787 -0.000000 1.219066
v  -2.500912 -0.000000 1.219066
v  -0.071882 -0.000000 1.562905
v  -2.429787 -0.000000 1.562905
v  -2.500912 -0.000000 1.562905
v  -0.071882 -0.000000 1.776933
v  -0.057485 -0.000000 2.055707
v  -2.079791 -0.000000 2.016351
v  -2.429787 -0.000000 1.776933
v  -2.140676 -0.000000 1.990961
v  -2.500912 -0.000000 1.776933
v  -2.485045 -0.000000 2.762692
v  -2.568527 -0.000000 2.711326
v  -2.859091 -0.000000 1.990961
v  -0.063917 -0.407901 1.324408
v  -0.071883 -0.515593 1.087189
v  -2.235627 -0.407901 1.324408
v  -2.429787 -0.515593 1.087189
v  -2.500912 -0.834509 0.246140
v  -0.071883 -0.882973 0.246140
v  -2.429787 -0.882973 0.246140
v  -0.071883 -0.872059 0.175990
v  -2.429787 -0.872059 0.175990
v  -2.500912 -0.823595 0.175990
v  -0.071882 -0.480784 1.513786
v  -0.071882 -0.543397 1.703164
v  -2.429787 -0.543397 1.703164
v  -2.429787 -0.480784 1.513786
v  -2.500912 -0.512641 1.703164
v  -4.939837 -0.893257 0.175990
v  -2.572124 -0.893257 0.175990
v  -4.939837 -0.904172 0.246140
v  -2.572124 -0.904172 0.246140
v  -2.572124 -0.536791 1.087189
v  -4.939837 -0.536791 1.087189
v  -2.764222 -0.433171 1.324408
v  -4.945525 -0.433171 1.324408
v  -2.572124 -0.000000 1.219066
v  -4.939837 -0.000000 1.219066
v  -2.572124 -0.000000 1.562905
v  -4.939837 -0.000000 1.562905
v  -2.572124 -0.000000 1.776933
v  -2.920004 -0.000000 2.017469
v  -4.939837 -0.000000 1.776933
v  -4.950137 -0.000000 2.017469
v  -4.939837 -0.475211 1.513786
v  -4.939837 -0.549777 1.703164
v  -2.572124 -0.549777 1.703164
v  -2.572124 -0.475211 1.513786
v  -2.576732 -0.167563 2.697202
v  -2.859091 -0.167563 1.990961
v  -2.500912 -0.414292 1.785191
v  -2.485045 -0.167563 2.762692
v  -2.140676 -0.167563 1.990961
v  -2.079791 -0.167617 2.016351
v  -2.429727 -0.414292 1.810581
v  -0.057485 -0.169400 2.055707
v  -0.069864 -0.414293 1.849932
v  -2.920004 -0.167563 2.017469
v  -2.572124 -0.414292 1.811699
v  -4.950137 -0.167563 2.017469
v  -4.939837 -0.414293 1.811694
# 117 vertices

vn 0.400170 -0.914323 0.062271
vn -0.000822 -0.997688 0.067949
vn -0.000604 -0.997689 0.067949
vn -0.403655 -0.912797 0.062168
vn 0.000000 0.707107 -0.707107
vn 0.000000 0.000000 -1.000000
vn -0.000000 0.707107 -0.707107
vn -0.000000 0.000000 -1.000000
vn 0.999807 0.002788 -0.019443
vn 0.999953 0.000000 -0.009710
vn 0.999811 0.000000 -0.019419
vn 0.999938 0.003015 -0.010704
vn 1.000000 0.000000 0.000000
vn 0.999918 0.001544 -0.012738
vn 0.999996 0.000335 -0.002796
vn 0.999930 -0.007118 -0.009439
vn 0.999993 0.002517 0.002704
vn 0.999959 0.008462 0.003311
vn 0.997754 0.063867 -0.020223
vn 0.999956 0.006561 -0.006734
vn 0.999996 0.001846 -0.002258
vn -1.000000 0.000000 0.000000
vn 0.000000 1.000000 0.000000
vn -0.000000 1.000000 0.000000
vn 0.298847 -0.872809 0.385868
vn 0.529944 -0.778084 0.337261
vn 0.528841 -0.779615 0.335453
vn 0.272864 -0.880444 0.387768
vn 0.559105 -0.820538 0.118829
vn -0.162288 -0.841805 0.514808
vn 0.071524 -0.802481 0.592375
vn -0.431028 -0.635418 0.640671
vn -0.298773 -0.825347 0.479101
vn 0.087675 -0.985566 0.144822
vn 0.279443 -0.952801 0.118667
vn -0.279444 -0.952801 0.118667
vn 0.291664 -0.944625 -0.150386
vn 0.558308 -0.819273 -0.130705
vn -0.291841 -0.945066 -0.147235
vn 0.087841 -0.984285 -0.153191
vn 0.300040 -0.941517 -0.153368
vn 0.558347 -0.818772 -0.133643
vn -0.299421 -0.942756 -0.146823
vn 0.087994 -0.984278 -0.153146
vn 0.495564 -0.812547 -0.306894
vn 0.295382 -0.892435 -0.341041
vn 0.534804 -0.788405 -0.303978
vn 0.242075 -0.911838 -0.331589
vn 0.406109 -0.863921 -0.297851
vn 0.185543 -0.932965 -0.308465
vn -0.139126 -0.865786 -0.480686
vn -0.185543 -0.932965 -0.308465
vn -0.010992 -0.854265 -0.519721
vn -0.413493 -0.609567 -0.676352
vn -0.272206 -0.849978 -0.451044
vn 0.016788 -0.938074 -0.346027
vn -0.752943 -0.650262 -0.101175
vn -0.752943 -0.650262 -0.101176
vn -0.428212 -0.892934 -0.138934
vn -0.413470 -0.899693 -0.139985
vn 0.387219 -0.911026 -0.141749
vn -0.753145 -0.650436 0.098514
vn 0.374828 -0.916072 -0.142534
vn -0.389173 -0.914157 0.113404
vn 0.354581 -0.927909 0.115140
vn 0.380627 -0.791537 0.478113
vn -0.394914 -0.843287 0.364567
vn -0.733161 -0.626286 0.265028
vn 0.222094 -0.812474 0.539036
vn 0.539647 -0.507594 0.671662
vn -0.457421 -0.815639 0.354258
vn -0.760695 -0.594836 0.259832
vn -0.549077 -0.798745 -0.246012
vn -0.765556 -0.598637 -0.235709
vn -0.419584 -0.875280 -0.240488
vn -0.264491 -0.922233 -0.282012
vn -0.498047 -0.806858 -0.317695
vn -0.240764 -0.903100 -0.355590
vn 0.178823 -0.894590 -0.409551
vn 0.211116 -0.909499 -0.358109
vn 0.507264 -0.477135 -0.717652
vn 0.262255 -0.871226 -0.414955
vn -0.772172 -0.000544 0.635413
vn -0.928381 0.001916 0.371626
vn -0.655849 -0.538686 0.528847
vn -0.798829 -0.509775 0.319376
vn 0.002261 -0.973424 0.228998
vn 0.226079 -0.505423 0.832728
vn 0.787440 -0.506430 0.351378
vn 0.295276 0.000000 0.955412
vn 0.913206 0.000000 0.407499
vn -0.380224 -0.138149 0.914519
vn -0.205793 0.000000 0.978596
vn -0.384891 0.000000 0.922962
vn -0.153713 -0.287667 0.945315
vn 0.387880 0.000000 0.921710
vn -0.198303 -0.501870 0.841904
vn 0.006207 -0.566330 0.824155
vn 0.018515 -0.634316 0.772852
vn -0.119785 -0.634947 0.763213
vn 0.135449 -0.742288 0.656249
vn 0.352806 -0.308617 0.883337
vn 0.728493 0.000000 0.685054
vn 0.688944 -0.308374 0.655943
vn 0.270998 -0.657691 0.702854
vn 0.377850 -0.677014 0.631570
vn 0.569336 -0.532946 0.625960
vn 0.203794 0.000000 0.979014
vn 0.394762 -0.125539 0.910167
vn 0.399034 0.000000 0.916936
vn 0.149326 -0.290456 0.945165
vn -0.241892 0.000000 0.970303
vn 0.207947 -0.489335 0.846941
vn 0.136005 -0.619403 0.773203
vn -0.222665 -0.321813 0.920248
vn -0.469417 0.000000 0.882977
vn -0.437102 -0.346400 0.830030
vn -0.165328 -0.627129 0.761168
vn -0.154605 -0.617683 0.771080
vn -0.320522 -0.606699 0.727449
vn -0.351887 -0.588243 0.728111
# 121 vertex normals

vt 0.882324 0.289063 0.289063
vt 0.856445 0.302734 0.302734
vt 0.856445 0.258789 0.258789
vt 0.831055 0.289063 0.289063
vt 0.987793 0.306641 0.306641
vt 0.987793 0.328125 0.328125
vt 0.986816 0.306641 0.306641
vt 0.986816 0.328125 0.328125
vt 0.958984 0.306641 0.306641
vt 0.958984 0.328125 0.328125
vt 0.958008 0.328125 0.328125
vt 0.958008 0.306641 0.306641
vt 0.891602 0.328125 0.328125
vt 0.891602 0.306641 0.306641
vt 0.892578 0.306641 0.306641
vt 0.892578 0.328125 0.328125
vt 0.920410 0.306641 0.306641
vt 0.920410 0.328125 0.328125
vt 0.921387 0.328125 0.328125
vt 0.921387 0.306641 0.306641
vt 0.589355 0.338867 0.338867
vt 0.598633 0.330566 0.330566
vt 0.598145 0.338867 0.338867
vt 0.589355 0.330566 0.330566
vt 0.598633 0.322266 0.322266
vt 0.576660 0.330566 0.330566
vt 0.589355 0.322266 0.322266
vt 0.598633 0.309082 0.309082
vt 0.579590 0.323242 0.323242
vt 0.571777 0.327637 0.327637
vt 0.575684 0.320313 0.320313
vt 0.582520 0.309082 0.309082
vt 0.599121 0.262695 0.262695
vt 0.557617 0.262207 0.262207
vt 0.582520 0.315918 0.315918
vt 0.579590 0.312988 0.312988
vt 0.576660 0.305664 0.305664
vt 0.555664 0.269043 0.269043
vt 0.574219 0.304199 0.304199
vt 0.555176 0.271973 0.271973
vt 0.629395 0.305664 0.305664
vt 0.645508 0.270508 0.270508
vt 0.645996 0.273438 0.273438
vt 0.626953 0.307129 0.307129
vt 0.644043 0.263672 0.263672
vt 0.624512 0.314941 0.314941
vt 0.622070 0.310547 0.310547
vt 0.607910 0.263672 0.263672
vt 0.607910 0.310547 0.310547
vt 0.622070 0.317383 0.317383
vt 0.627930 0.321777 0.321777
vt 0.615723 0.323730 0.323730
vt 0.607910 0.323730 0.323730
vt 0.624512 0.324707 0.324707
vt 0.631348 0.329102 0.329102
vt 0.626953 0.332520 0.332520
vt 0.615723 0.332031 0.332031
vt 0.607910 0.332031 0.332031
vt 0.615723 0.340332 0.340332
vt 0.607910 0.340332 0.340332
vt 0.991211 0.275879 0.275879
vt 0.991211 0.260742 0.260742
vt 0.990723 0.260742 0.260742
vt 0.990723 0.275879 0.275879
vt 0.962402 0.260742 0.260742
vt 0.991211 0.280273 0.280273
vt 0.962402 0.275879 0.275879
vt 0.961426 0.260742 0.260742
vt 0.961426 0.275879 0.275879
vt 0.990723 0.280273 0.280273
vt 0.991211 0.282715 0.282715
vt 0.962402 0.280273 0.280273
vt 0.961426 0.280273 0.280273
vt 0.990723 0.282715 0.282715
vt 0.991699 0.285156 0.285156
vt 0.990723 0.285156 0.285156
vt 0.966797 0.285156 0.285156
vt 0.962402 0.282715 0.282715
vt 0.965820 0.285156 0.285156
vt 0.961426 0.282715 0.282715
vt 0.961426 0.294922 0.294922
vt 0.961426 0.294434 0.294434
vt 0.957031 0.285156 0.285156
vt 0.993164 0.123535 0.123535
vt 0.998047 0.101563 0.101563
vt 0.998047 0.123535 0.123535
vt 0.992676 0.101563 0.101563
vt 0.998047 0.023438 0.023438
vt 0.833008 0.123535 0.123535
vt 0.812988 0.101563 0.101563
vt 0.828125 0.123535 0.123535
vt 0.818359 0.101563 0.101563
vt 0.812988 0.023438 0.023438
vt 0.992676 0.023438 0.023438
vt 0.818359 0.023438 0.023438
vt 0.992676 0.017090 0.017090
vt 0.998047 0.017090 0.017090
vt 0.818359 0.017090 0.017090
vt 0.812988 0.017090 0.017090
vt 0.992676 0.001953 0.001953
vt 0.998047 0.001953 0.001953
vt 0.818359 0.001953 0.001953
vt 0.812988 0.001953 0.001953
vt 0.998047 0.154297 0.154297
vt 0.993164 0.133301 0.133301
vt 0.998047 0.133301 0.133301
vt 0.992676 0.154297 0.154297
vt 0.998047 0.175781 0.175781
vt 0.992676 0.175781 0.175781
vt 0.832031 0.133301 0.133301
vt 0.817383 0.175781 0.175781
vt 0.812012 0.154297 0.154297
vt 0.826660 0.133301 0.133301
vt 0.817383 0.154297 0.154297
vt 0.812012 0.175781 0.175781
vt 0.398438 0.017090 0.017090
vt 0.398438 0.001953 0.001953
vt 0.403809 0.001953 0.001953
vt 0.403809 0.017090 0.017090
vt 0.578613 0.001953 0.001953
vt 0.398438 0.023438 0.023438
vt 0.583984 0.017090 0.017090
vt 0.583984 0.001953 0.001953
vt 0.578613 0.017090 0.017090
vt 0.583984 0.023438 0.023438
vt 0.403809 0.023438 0.023438
vt 0.578613 0.023438 0.023438
vt 0.578613 0.101563 0.101563
vt 0.583984 0.101563 0.101563
vt 0.403809 0.101563 0.101563
vt 0.398438 0.101563 0.101563
vt 0.564453 0.123535 0.123535
vt 0.569336 0.123535 0.123535
vt 0.403320 0.123535 0.123535
vt 0.398438 0.123535 0.123535
vt 0.924805 0.275879 0.275879
vt 0.924805 0.260742 0.260742
vt 0.923828 0.260742 0.260742
vt 0.923828 0.275879 0.275879
vt 0.895996 0.260742 0.260742
vt 0.924805 0.280273 0.280273
vt 0.895996 0.275879 0.275879
vt 0.895020 0.260742 0.260742
vt 0.895020 0.275879 0.275879
vt 0.923828 0.280273 0.280273
vt 0.924805 0.282715 0.282715
vt 0.895996 0.280273 0.280273
vt 0.895020 0.280273 0.280273
vt 0.923828 0.282715 0.282715
vt 0.920410 0.285156 0.285156
vt 0.919922 0.285156 0.285156
vt 0.895996 0.282715 0.282715
vt 0.895020 0.282715 0.282715
vt 0.895508 0.285156 0.285156
vt 0.895020 0.285156 0.285156
vt 0.398438 0.154297 0.154297
vt 0.398438 0.133301 0.133301
vt 0.403320 0.133301 0.133301
vt 0.403809 0.154297 0.154297
vt 0.398438 0.175781 0.175781
vt 0.403809 0.175781 0.175781
vt 0.564453 0.133301 0.133301
vt 0.578613 0.175781 0.175781
vt 0.583984 0.154297 0.154297
vt 0.569336 0.133301 0.133301
vt 0.578613 0.154297 0.154297
vt 0.583984 0.175781 0.175781
vt 0.675781 0.334961 0.334961
vt 0.654297 0.285156 0.285156
vt 0.695313 0.324707 0.324707
vt 0.664551 0.279297 0.279297
vt 0.695801 0.260254 0.260254
vt 0.700684 0.326172 0.326172
vt 0.728027 0.278809 0.278809
vt 0.695313 0.339355 0.339355
vt 0.701172 0.340332 0.340332
vt 0.741211 0.285645 0.285645
vt 0.717285 0.334473 0.334473
vt 0.838867 0.235352 0.235352
vt 0.843262 0.252930 0.252930
vt 0.838379 0.252930 0.252930
vt 0.843262 0.235352 0.235352
vt 0.993652 0.252930 0.252930
vt 0.817383 0.202148 0.202148
vt 0.812012 0.202148 0.202148
vt 0.812012 0.188477 0.188477
vt 0.817383 0.188477 0.188477
vt 0.992676 0.188477 0.188477
vt 0.993652 0.235352 0.235352
vt 0.998047 0.252930 0.252930
vt 0.998047 0.235352 0.235352
vt 0.992676 0.202148 0.202148
vt 0.998047 0.188477 0.188477
vt 0.998047 0.202148 0.202148
vt 0.552734 0.252930 0.252930
vt 0.557129 0.235352 0.235352
vt 0.557129 0.252930 0.252930
vt 0.552734 0.235352 0.235352
vt 0.403076 0.252930 0.252930
vt 0.578613 0.202148 0.202148
vt 0.583984 0.202148 0.202148
vt 0.583984 0.188477 0.188477
vt 0.578613 0.188477 0.188477
vt 0.403076 0.235352 0.235352
vt 0.398438 0.252930 0.252930
vt 0.398438 0.235352 0.235352
vt 0.403809 0.202148 0.202148
vt 0.403809 0.188477 0.188477
vt 0.398438 0.202148 0.202148
vt 0.398438 0.188477 0.188477
# 210 texture coords

g Dn_HL_Ruins_Trim_Base_4M_A
usemtl Dn_HL_Inst_Ruins_Trim_Base_B
s 1
f 1/1/1 2/2/2 3/3/3 
f 4/4/4 3/3/3 2/2/2 
f 5/5/5 6/6/6 7/7/5 
f 8/8/6 7/7/5 6/6/6 
f 8/8/6 9/9/7 7/7/5 
f 9/9/7 8/8/6 10/10/8 
f 9/9/7 10/10/8 11/11/6 
f 11/11/6 12/12/5 9/9/7 
f 13/13/8 14/14/5 15/15/7 
f 15/15/7 16/16/8 13/13/8 
f 17/17/5 16/16/8 15/15/7 
f 16/16/8 17/17/5 18/18/6 
f 18/18/6 17/17/5 11/19/6 
f 12/20/5 11/19/6 17/17/5 
f 19/21/9 20/22/10 21/23/11 
f 20/22/10 19/21/9 22/24/12 
f 22/24/12 23/25/13 20/22/10 
f 22/24/12 19/21/9 24/26/14 
f 23/25/13 22/24/12 25/27/13 
f 25/27/13 26/28/13 23/25/13 
f 24/26/14 27/29/15 22/24/12 
f 25/27/13 22/24/12 27/29/15 
f 27/29/15 24/26/14 28/30/16 
f 28/30/16 29/31/17 27/29/15 
f 26/28/13 25/27/13 30/32/13 
f 30/32/13 5/33/13 26/28/13 
f 5/33/13 30/32/13 6/34/13 
f 27/29/15 31/35/18 25/27/13 
f 31/35/18 27/29/15 29/31/17 
f 30/32/13 25/27/13 31/35/18 
f 29/31/17 32/36/19 31/35/18 
f 6/34/13 30/32/13 33/37/20 
f 31/35/18 33/37/20 30/32/13 
f 33/37/20 31/35/18 32/36/19 
f 6/34/13 33/37/20 34/38/13 
f 32/36/19 35/39/21 33/37/20 
f 34/38/13 33/37/20 35/39/21 
f 34/38/13 35/39/21 36/40/13 
f 37/41/22 38/42/22 39/43/22 
f 38/42/22 37/41/22 40/44/22 
f 40/44/22 13/45/22 38/42/22 
f 37/41/22 41/46/22 40/44/22 
f 13/45/22 40/44/22 42/47/22 
f 14/48/22 13/45/22 42/47/22 
f 43/49/22 14/48/22 42/47/22 
f 44/50/22 40/44/22 41/46/22 
f 42/47/22 40/44/22 44/50/22 
f 45/51/22 44/50/22 41/46/22 
f 46/52/22 43/49/22 42/47/22 
f 46/52/22 42/47/22 44/50/22 
f 47/53/22 43/49/22 46/52/22 
f 44/50/22 45/51/22 48/54/22 
f 48/54/22 46/52/22 44/50/22 
f 45/51/22 49/55/22 48/54/22 
f 50/56/22 48/54/22 49/55/22 
f 51/57/22 47/53/22 46/52/22 
f 48/54/22 51/57/22 46/52/22 
f 50/56/22 51/57/22 48/54/22 
f 52/58/22 47/53/22 51/57/22 
f 50/56/22 53/59/22 51/57/22 
f 53/59/22 52/58/22 51/57/22 
f 54/60/22 52/58/22 53/59/22 
f 26/61/23 5/62/5 7/63/5 
f 7/63/5 55/64/23 26/61/23 
f 55/64/23 7/63/5 9/65/7 
f 23/66/23 26/61/23 55/64/23 
f 9/65/7 56/67/23 55/64/23 
f 12/68/5 56/67/23 9/65/7 
f 56/67/23 12/68/5 57/69/23 
f 55/64/23 58/70/23 23/66/23 
f 56/67/23 58/70/23 55/64/23 
f 20/71/23 23/66/23 58/70/23 
f 57/69/23 59/72/23 56/67/23 
f 58/70/23 56/67/23 59/72/23 
f 59/72/23 57/69/23 60/73/23 
f 58/70/23 61/74/24 20/71/23 
f 59/72/23 61/74/24 58/70/23 
f 21/75/24 20/71/23 61/74/24 
f 61/74/24 62/76/24 21/75/24 
f 63/77/23 62/76/24 61/74/24 
f 60/73/23 64/78/23 59/72/23 
f 61/74/24 59/72/23 64/78/23 
f 61/74/24 64/78/23 63/77/23 
f 63/77/23 64/78/23 65/79/24 
f 64/78/23 60/73/23 66/80/24 
f 66/80/24 65/79/24 64/78/23 
f 66/80/24 67/81/24 65/79/24 
f 68/82/24 67/81/24 66/80/24 
f 66/80/24 69/83/23 68/82/24 
f 70/84/25 35/85/26 32/86/27 
f 35/85/26 70/84/25 71/87/28 
f 71/87/28 36/88/29 35/85/26 
f 70/84/25 72/89/30 71/87/28 
f 3/90/31 72/89/30 1/91/32 
f 72/89/30 3/90/31 73/92/33 
f 72/89/30 73/92/33 71/87/28 
f 74/93/34 73/92/33 3/90/31 
f 36/88/29 71/87/28 75/94/35 
f 75/94/35 71/87/28 73/92/33 
f 73/92/33 74/93/34 76/95/36 
f 73/92/33 76/95/36 75/94/35 
f 77/96/37 36/88/29 75/94/35 
f 75/94/35 76/95/36 77/96/37 
f 36/88/29 77/96/37 34/97/38 
f 78/98/39 76/95/36 74/93/34 
f 78/98/39 77/96/37 76/95/36 
f 74/93/34 79/99/40 78/98/39 
f 8/100/41 34/97/38 77/96/37 
f 77/96/37 78/98/39 8/100/41 
f 34/97/38 8/100/41 6/101/42 
f 78/98/39 10/102/43 8/100/41 
f 10/102/43 78/98/39 79/99/40 
f 79/99/40 11/103/44 10/102/43 
f 29/104/45 70/105/46 32/106/47 
f 70/105/46 29/104/45 80/107/48 
f 28/108/49 80/107/48 29/104/45 
f 80/107/48 28/108/49 81/109/50 
f 80/107/48 72/110/51 70/105/46 
f 82/111/52 80/107/48 81/109/50 
f 72/110/51 2/112/53 1/113/54 
f 80/107/48 82/111/52 83/114/55 
f 83/114/55 72/110/51 80/107/48 
f 2/112/53 72/110/51 83/114/55 
f 83/114/55 82/111/52 84/115/56 
f 84/115/56 2/112/53 83/114/55 
f 38/116/57 13/117/58 16/118/59 
f 16/118/59 85/119/60 38/116/57 
f 85/119/60 16/118/59 18/120/61 
f 39/121/62 38/116/57 85/119/60 
f 79/122/40 18/120/61 11/123/44 
f 18/120/61 79/122/40 86/124/63 
f 86/124/63 85/119/60 18/120/61 
f 74/125/34 86/124/63 79/122/40 
f 87/126/64 39/121/62 85/119/60 
f 85/119/60 86/124/63 87/126/64 
f 86/124/63 74/125/34 88/127/65 
f 88/127/65 87/126/64 86/124/63 
f 74/125/34 89/128/66 88/127/65 
f 89/128/66 87/126/64 88/127/65 
f 89/128/66 74/125/34 3/129/31 
f 90/130/67 39/121/62 87/126/64 
f 87/126/64 89/128/66 90/130/67 
f 39/121/62 90/130/67 37/131/68 
f 3/129/31 91/132/69 89/128/66 
f 91/132/69 90/130/67 89/128/66 
f 91/132/69 3/129/31 4/133/70 
f 92/134/71 90/130/67 91/132/69 
f 92/134/71 37/131/68 90/130/67 
f 37/131/68 92/134/71 41/135/72 
f 57/136/23 12/137/5 17/138/5 
f 17/138/5 93/139/23 57/136/23 
f 93/139/23 17/138/5 15/140/7 
f 60/141/23 57/136/23 93/139/23 
f 15/140/7 94/142/23 93/139/23 
f 14/143/5 94/142/23 15/140/7 
f 94/142/23 14/143/5 43/144/23 
f 93/139/23 95/145/23 60/141/23 
f 95/145/23 93/139/23 94/142/23 
f 66/146/24 60/141/23 95/145/23 
f 43/144/23 96/147/23 94/142/23 
f 96/147/23 95/145/23 94/142/23 
f 96/147/23 43/144/23 47/148/23 
f 95/145/23 97/149/23 66/146/24 
f 97/149/23 95/145/23 96/147/23 
f 69/150/23 66/146/24 97/149/23 
f 97/149/23 98/151/23 69/150/23 
f 47/148/23 99/152/23 96/147/23 
f 99/152/23 97/149/23 96/147/23 
f 98/151/23 97/149/23 99/152/23 
f 99/152/23 47/148/23 52/153/23 
f 100/154/23 98/151/23 99/152/23 
f 52/153/23 54/155/23 99/152/23 
f 100/154/23 99/152/23 54/155/23 
f 45/156/73 41/157/74 92/158/75 
f 92/158/75 101/159/76 45/156/73 
f 49/160/77 45/156/73 101/159/76 
f 101/159/76 102/161/78 49/160/77 
f 91/162/79 101/159/76 92/158/75 
f 101/159/76 103/163/80 102/161/78 
f 2/164/53 91/162/79 4/165/81 
f 103/163/80 101/159/76 104/166/82 
f 101/159/76 91/162/79 104/166/82 
f 91/162/79 2/164/53 104/166/82 
f 104/166/82 84/167/56 103/163/80 
f 84/167/56 104/166/82 2/164/53 
f 68/168/83 69/169/84 105/170/85 
f 105/170/85 69/169/84 106/171/86 
f 106/171/86 107/172/87 105/170/85 
f 107/172/87 108/173/88 105/170/85 
f 109/174/89 108/173/88 107/172/87 
f 108/173/88 68/175/83 105/170/85 
f 68/175/83 108/173/88 67/176/90 
f 65/177/91 108/173/88 109/174/89 
f 108/173/88 65/177/91 67/178/90 
f 109/179/92 63/180/93 65/181/94 
f 63/180/93 109/179/92 110/182/95 
f 110/182/95 62/183/96 63/180/93 
f 111/184/97 110/182/95 109/179/92 
f 111/184/97 109/179/92 107/185/98 
f 84/186/99 111/184/97 107/185/98 
f 111/184/97 84/186/99 82/187/100 
f 82/187/100 81/188/101 111/184/97 
f 62/183/96 110/182/95 112/189/102 
f 112/189/102 21/190/103 62/183/96 
f 21/190/103 112/189/102 19/191/104 
f 113/192/105 110/182/95 111/184/97 
f 110/182/95 113/192/105 112/189/102 
f 113/192/105 111/184/97 81/188/101 
f 113/192/105 19/191/104 112/189/102 
f 113/192/105 81/188/101 28/193/106 
f 19/191/104 113/192/105 24/194/107 
f 113/192/105 28/193/106 24/194/107 
f 98/195/108 106/196/109 69/197/110 
f 98/195/108 114/198/111 106/196/109 
f 98/195/108 100/199/112 114/198/111 
f 114/198/111 115/200/113 106/196/109 
f 107/201/98 106/196/109 115/200/113 
f 115/200/113 84/202/99 107/201/98 
f 115/200/113 103/203/114 84/202/99 
f 100/199/112 116/204/115 114/198/111 
f 116/204/115 100/199/112 54/205/116 
f 116/204/115 54/205/116 53/206/117 
f 117/207/118 115/200/113 114/198/111 
f 114/198/111 116/204/115 117/207/118 
f 117/207/118 103/203/114 115/200/113 
f 117/207/118 116/204/115 53/206/117 
f 103/203/114 117/207/118 102/208/119 
f 117/207/118 53/206/117 50/209/120 
f 117/207/118 49/210/121 102/208/119 
f 49/210/121 117/207/118 50/209/120 
# 0 polygons - 230 triangles

