# 3ds Max Wavefront OBJ Exporter v0.97b - (c)2007 guruware
# File Created: 09.05.2023 19:47:03

mtllib Ruins_Trim_Top_Deco_2M_A.mtl

#
# object Dn_HL_Ruins_Trim_Top_Deco_2M_A
#

v  -1.000005 -0.336884 -0.119384
v  -1.000005 -0.255004 -0.319524
v  -1.000005 -0.289109 -0.319525
v  -1.000005 -0.048081 0.129708
v  -1.000005 0.042956 -0.319525
v  -1.000005 -0.251286 -1.596384
v  -1.000005 0.013111 0.121376
v  -1.000005 0.048870 -2.124642
v  -1.000005 0.074304 0.113043
v  -1.000005 0.101840 -2.123069
v  -1.000005 0.095926 -0.319526
v  -0.975981 -0.255004 -0.334881
v  -0.975981 -0.289108 -0.334882
v  -0.039009 -0.289109 -0.319525
v  -0.039058 -0.255005 -0.319524
v  0.000981 -0.255005 -0.319524
v  0.001030 -0.289109 -0.319525
v  0.000981 -0.336884 -0.119384
v  0.000981 -0.048082 0.129709
v  0.000981 0.042955 -0.319524
v  0.000981 0.013110 0.121376
v  0.000981 -0.251287 -1.596384
v  0.000981 0.074304 0.113043
v  0.000981 0.048869 -2.124642
v  0.001074 0.095925 -0.319525
v  0.001172 0.101784 -2.121391
v  -0.039058 -0.251287 -1.596384
v  -0.020146 0.101788 -2.132609
v  -0.020327 0.048870 -2.135793
v  -0.984546 0.101838 -2.160336
v  -0.975981 -0.251286 -1.596384
v  -0.984551 0.048870 -2.161948
v  -0.024897 -0.336883 -0.096418
v  -0.975625 -0.336883 -0.118809
v  -0.975400 -0.048080 0.145693
v  -0.015854 -0.048080 0.152674
v  -0.015854 0.013114 0.144342
v  -0.975400 0.013111 0.156025
v  -0.975400 0.074305 0.147693
v  -0.015854 0.074305 0.136009
v  -0.038970 0.095925 -0.319525
v  -0.975981 0.095926 -0.319526
# 42 vertices

vn -1.000000 0.000000 0.000000
vn -0.272693 0.000030 -0.962101
vn -0.538596 0.000023 -0.842564
vn -0.538588 0.000015 -0.842569
vn -0.272695 0.000033 -0.962100
vn 0.008187 0.000047 -0.999966
vn 0.008202 0.000047 -0.999966
vn 0.000000 0.000035 -1.000000
vn 1.000000 0.000359 0.000147
vn 1.000000 0.000108 0.000044
vn 0.999999 0.001432 0.000586
vn 1.000000 0.000000 0.000000
vn 1.000000 -0.000863 0.000042
vn 1.000000 -0.000122 0.000009
vn 0.999996 -0.002686 -0.000009
vn 0.999998 -0.001751 0.000087
vn 0.999994 -0.003565 -0.000011
vn 0.000023 -0.999996 -0.002912
vn 0.000000 -0.966439 -0.256897
vn 0.000000 -0.999996 -0.002912
vn 0.001468 -0.967042 -0.254612
vn 0.391732 -0.520908 -0.758420
vn -0.001045 -0.999995 -0.002918
vn 0.255638 0.057591 -0.965056
vn 0.465041 0.052621 -0.883724
vn -0.001857 -0.999994 -0.002912
vn -0.000012 -0.966434 -0.256914
vn 0.215448 -0.451235 -0.866008
vn -0.548967 0.025977 -0.835441
vn -0.002615 -0.967856 -0.251490
vn -0.850700 -0.385348 -0.357515
vn -0.923620 0.011379 -0.383141
vn -0.463426 -0.422052 -0.779172
vn 0.093272 -0.991621 0.089380
vn -0.004799 -0.975595 -0.219525
vn 0.000000 -0.972672 -0.232181
vn 0.192147 -0.898599 0.394461
vn 0.780548 -0.239648 0.577334
vn -0.016131 -0.952396 0.304436
vn -0.052076 -0.975110 -0.215517
vn -0.128767 -0.968133 -0.214796
vn -0.007069 -0.953840 0.300232
vn -0.513115 -0.300805 0.803884
vn -0.299366 -0.363374 0.882236
vn -0.785075 0.024619 0.618911
vn 0.403500 -0.248845 0.880491
vn 0.451401 0.117004 0.884617
vn 0.803903 0.080252 0.589322
vn -0.436275 -0.014002 0.899705
vn -0.466961 0.119311 0.876192
vn -0.812821 0.078596 0.577187
vn 0.470495 0.119064 0.874333
vn 0.803896 0.080249 0.589331
vn 0.000502 0.999667 0.025810
vn 0.019070 0.998739 0.046433
vn 0.058215 0.997313 0.044472
vn 0.000000 0.999646 0.026591
vn -0.001506 0.999994 0.003218
vn -0.018354 0.998751 0.046480
vn -0.000638 0.999995 0.003218
vn -0.000580 0.999671 0.025638
vn -0.063669 0.996897 0.046292
vn 0.001564 0.999994 0.003205
vn 0.000000 0.999646 0.026607
vn 0.007722 0.999965 0.003176
# 65 vertex normals

vt 0.459961 0.417480 0.417480
vt 0.450439 0.402344 0.402344
vt 0.454346 0.402344 0.402344
vt 0.426270 0.437012 0.437012
vt 0.415527 0.402344 0.402344
vt 0.449951 0.272949 0.272949
vt 0.419189 0.436035 0.436035
vt 0.415039 0.263184 0.263184
vt 0.411865 0.435547 0.435547
vt 0.408691 0.261719 0.261719
vt 0.409424 0.402344 0.402344
vt 0.541992 0.272949 0.272949
vt 0.540039 0.277832 0.277832
vt 0.540039 0.272949 0.272949
vt 0.541992 0.277832 0.277832
vt 0.611328 0.277832 0.277832
vt 0.610840 0.272949 0.272949
vt 0.613770 0.272949 0.272949
vt 0.614258 0.277832 0.277832
vt 0.477539 0.402344 0.402344
vt 0.467773 0.417480 0.417480
vt 0.473633 0.402344 0.402344
vt 0.501953 0.436523 0.436523
vt 0.513184 0.402344 0.402344
vt 0.509277 0.436035 0.436035
vt 0.478027 0.272949 0.272949
vt 0.516602 0.435547 0.435547
vt 0.513672 0.263672 0.263672
vt 0.519043 0.402344 0.402344
vt 0.520020 0.261719 0.261719
vt 0.468018 0.159180 0.159180
vt 0.470947 0.039063 0.039063
vt 0.470947 0.159180 0.159180
vt 0.468018 0.039063 0.039063
vt 0.470947 0.007813 0.007813
vt 0.400879 0.159180 0.159180
vt 0.468750 0.002441 0.002441
vt 0.471436 0.002441 0.002441
vt 0.399170 0.159180 0.159180
vt 0.399170 0.039063 0.039063
vt 0.468018 0.007813 0.007813
vt 0.400879 0.002441 0.002441
vt 0.400879 0.039063 0.039063
vt 0.399170 0.007813 0.007813
vt 0.399170 0.002441 0.002441
vt 0.400879 0.007813 0.007813
vt 0.473877 0.187500 0.187500
vt 0.470947 0.167969 0.167969
vt 0.473877 0.167969 0.167969
vt 0.470947 0.187500 0.187500
vt 0.473877 0.217773 0.217773
vt 0.403076 0.187500 0.187500
vt 0.403076 0.167969 0.167969
vt 0.401367 0.167969 0.167969
vt 0.401367 0.187500 0.187500
vt 0.401367 0.217773 0.217773
vt 0.403076 0.217773 0.217773
vt 0.401367 0.231445 0.231445
vt 0.470947 0.217773 0.217773
vt 0.470947 0.231445 0.231445
vt 0.473877 0.231445 0.231445
vt 0.403076 0.231445 0.231445
vt 0.403076 0.245117 0.245117
vt 0.401367 0.245117 0.245117
vt 0.470947 0.245117 0.245117
vt 0.473877 0.245117 0.245117
vt 0.787109 0.395020 0.395020
vt 0.787109 0.414063 0.414063
vt 0.785645 0.414063 0.414063
vt 0.785645 0.395020 0.395020
vt 0.785645 0.310059 0.310059
vt 0.820801 0.414063 0.414063
vt 0.787109 0.310059 0.310059
vt 0.820801 0.395020 0.395020
vt 0.821289 0.414063 0.414063
vt 0.820801 0.310059 0.310059
vt 0.821289 0.395020 0.395020
vt 0.821289 0.310059 0.310059
# 78 texture coords

g Dn_HL_Ruins_Trim_Top_Deco_2M_A
usemtl Dn_HL_Inst_Ruins_Trim_Top_A
s 1
f 1/1/1 2/2/1 3/3/1 
f 2/2/1 1/1/1 4/4/1 
f 2/2/1 4/4/1 5/5/1 
f 5/5/1 6/6/1 2/2/1 
f 7/7/1 5/5/1 4/4/1 
f 5/5/1 8/8/1 6/6/1 
f 9/9/1 5/5/1 7/7/1 
f 5/5/1 10/10/1 8/8/1 
f 5/5/1 9/9/1 11/11/1 
f 10/10/1 5/5/1 11/11/1 
f 12/12/2 3/13/3 2/14/4 
f 3/13/3 12/12/2 13/15/5 
f 12/12/2 14/16/6 13/15/5 
f 14/16/6 12/12/2 15/17/7 
f 16/18/8 14/16/6 15/17/7 
f 14/16/6 16/18/8 17/19/8 
f 16/20/9 18/21/10 17/22/11 
f 18/21/10 16/20/9 19/23/12 
f 19/23/12 16/20/9 20/24/13 
f 20/24/13 21/25/12 19/23/12 
f 16/20/9 22/26/12 20/24/13 
f 20/24/13 23/27/14 21/25/12 
f 24/28/15 20/24/13 22/26/12 
f 23/27/14 20/24/13 25/29/16 
f 26/30/17 20/24/13 24/28/15 
f 20/24/13 26/30/17 25/29/16 
f 15/31/18 22/32/19 16/33/20 
f 22/32/19 15/31/18 27/34/21 
f 24/35/22 22/32/19 27/34/21 
f 12/36/23 27/34/21 15/31/18 
f 24/35/22 28/37/24 26/38/25 
f 2/39/26 6/40/27 12/36/23 
f 28/37/24 24/35/22 29/41/28 
f 27/34/21 29/41/28 24/35/22 
f 29/41/28 30/42/29 28/37/24 
f 27/34/21 12/36/23 31/43/30 
f 12/36/23 6/40/27 31/43/30 
f 31/43/30 29/41/28 27/34/21 
f 8/44/31 31/43/30 6/40/27 
f 30/42/29 8/44/31 10/45/32 
f 29/41/28 31/43/30 32/46/33 
f 30/42/29 29/41/28 32/46/33 
f 32/46/33 31/43/30 8/44/31 
f 8/44/31 30/42/29 32/46/33 
f 18/47/34 14/48/35 17/49/36 
f 14/48/35 18/47/34 33/50/37 
f 19/51/38 33/50/37 18/47/34 
f 33/50/37 34/52/39 14/48/35 
f 13/53/40 14/48/35 34/52/39 
f 34/52/39 3/54/41 13/53/40 
f 3/54/41 34/52/39 1/55/42 
f 4/56/43 1/55/42 34/52/39 
f 34/52/39 35/57/44 4/56/43 
f 34/52/39 33/50/37 35/57/44 
f 7/58/45 4/56/43 35/57/44 
f 33/50/37 19/51/38 36/59/46 
f 36/59/46 35/57/44 33/50/37 
f 37/60/47 36/59/46 19/51/38 
f 37/60/47 35/57/44 36/59/46 
f 19/51/38 21/61/48 37/60/47 
f 35/57/44 38/62/49 7/58/45 
f 35/57/44 37/60/47 38/62/49 
f 7/58/45 39/63/50 9/64/51 
f 39/63/50 7/58/45 38/62/49 
f 38/62/49 40/65/52 39/63/50 
f 40/65/52 38/62/49 37/60/47 
f 40/65/52 37/60/47 21/61/48 
f 21/61/48 23/66/53 40/65/52 
f 41/67/54 40/68/55 23/69/56 
f 41/67/54 23/69/56 25/70/57 
f 26/71/58 41/67/54 25/70/57 
f 39/72/59 40/68/55 41/67/54 
f 41/67/54 26/71/58 28/73/60 
f 39/72/59 41/67/54 42/74/61 
f 28/73/60 42/74/61 41/67/54 
f 42/74/61 9/75/62 39/72/59 
f 42/74/61 28/73/60 30/76/63 
f 9/75/62 42/74/61 11/77/64 
f 42/74/61 30/76/63 10/78/65 
f 42/74/61 10/78/65 11/77/64 
# 0 polygons - 80 triangles

