# 3ds Max Wavefront OBJ Exporter v0.97b - (c)2007 guruware
# File Created: 09.05.2023 16:58:19

mtllib Ruins_Wall_Door_8Mx8M_A.mtl

#
# object Dn_HL_Ruins_Wall_Door_8Mx8M_A
#

v  -1.000000 4.000000 2.000000
v  -1.000000 0.000000 0.000000
v  -1.000000 0.000000 2.000000
v  -1.000000 4.000000 -0.000000
v  -1.000000 4.000000 4.515050
v  -1.000000 -0.000000 4.515050
v  -2.499980 -0.000000 6.243138
v  -2.499980 4.000000 6.243139
v  -4.000000 0.000000 6.999999
v  -5.500000 4.000000 6.243139
v  -4.000000 4.000000 6.999999
v  -5.500000 -0.000000 6.243139
v  -7.000000 4.000000 4.515050
v  -7.000000 0.000000 2.000000
v  -7.000000 4.000000 2.000000
v  -7.000000 -0.000000 4.515050
v  -7.000000 0.000000 0.000000
v  -7.000000 4.000000 -0.000000
v  0.000000 0.000000 2.000000
v  0.000000 0.000000 0.000000
v  0.000000 -0.000000 4.515050
v  -1.000000 -0.000000 6.243139
v  0.000000 -0.000000 6.243139
v  0.000000 0.000000 6.999999
v  -1.000000 0.000000 6.999999
v  0.000000 -0.000000 8.000000
v  -1.000000 -0.000000 8.000000
v  -4.000000 -0.000000 8.000000
v  -7.000000 0.000000 6.999999
v  -7.000000 -0.000000 8.000000
v  -8.000000 -0.000000 8.000000
v  -8.000000 0.000000 6.999999
v  -8.000000 -0.000000 6.243139
v  -7.000000 -0.000000 6.243139
v  -8.000000 -0.000000 4.515050
v  -8.000000 0.000000 2.000000
v  -8.000000 0.000000 0.000000
# 37 vertices

vn -1.000000 0.000000 0.000000
vn -0.755191 0.000000 -0.655505
vn 0.450477 0.000000 -0.892788
vn 1.000000 0.000000 0.000000
vn 0.000000 0.000000 1.000000
vn -0.450473 0.000000 -0.892790
vn 0.755186 0.000000 -0.655510
vn 0.000000 -1.000000 -0.000000
vn -0.000000 -1.000000 -0.000000
vn -0.000000 -1.000000 0.000000
vn 0.000000 -1.000000 0.000000
# 11 vertex normals

vt 1.442383 1.197510 1.197510
vt 0.993164 1.372070 1.372070
vt 1.011719 1.159058 1.159058
vt 1.422852 1.410645 1.410645
vt 1.465820 0.931641 0.931641
vt 1.036133 0.893433 0.893433
vt 1.057617 0.654297 0.654297
vt 1.487305 0.692139 0.692139
vt 1.072266 0.481934 0.481934
vt 1.517578 0.345703 0.345703
vt 1.502930 0.518799 0.518799
vt 1.086914 0.309082 0.309082
vt 1.537109 0.105469 0.105469
vt 1.128906 -0.195313 -0.195313
vt 1.559570 -0.160156 -0.160156
vt 1.107422 0.069824 0.069824
vt 1.146484 -0.409180 -0.409180
vt 1.577148 -0.374023 -0.374023
vt 0.999512 -0.697266 -0.697266
vt -0.000032 -0.030273 -0.030273
vt -0.000032 -0.697266 -0.697266
vt 0.999512 -0.030273 -0.030273
vt 1.000000 1.252441 1.252441
vt 0.875000 1.002626 1.002626
vt 1.000000 1.002626 1.002626
vt 0.875000 1.252441 1.252441
vt 1.000000 1.566895 1.566895
vt 0.875000 1.566895 1.566895
vt 0.875000 1.782715 1.782715
vt 1.000000 1.782715 1.782715
vt 0.687500 1.782715 1.782715
vt 1.000000 1.877441 1.877441
vt 0.875000 1.877441 1.877441
vt 1.000000 2.001953 2.001953
vt 0.875000 2.001953 2.001953
vt 0.500000 1.877441 1.877441
vt 0.500000 2.001953 2.001953
vt 0.125000 1.877441 1.877441
vt 0.125000 2.001953 2.001953
vt 0.312500 1.782715 1.782715
vt -0.000031 2.001953 2.001953
vt -0.000031 1.877441 1.877441
vt -0.000031 1.782715 1.782715
vt 0.125000 1.782715 1.782715
vt 0.125000 1.566895 1.566895
vt -0.000031 1.566895 1.566895
vt -0.000031 1.252441 1.252441
vt 0.125000 1.252441 1.252441
vt -0.000031 1.002626 1.002626
vt 0.125000 1.002626 1.002626
# 50 texture coords

g Dn_HL_Ruins_Wall_Door_8Mx8M_A
usemtl Dn_HL_Ruins_Wall_Tile_A
s 1
f 1/1/1 2/2/1 3/3/1 
f 2/2/1 1/1/1 4/4/1 
f 5/5/1 3/3/1 6/6/1 
f 3/3/1 5/5/1 1/1/1 
f 7/7/2 8/8/2 5/5/2 
f 7/7/2 5/5/2 6/6/2 
f 9/9/3 10/10/3 11/11/3 
f 10/10/3 9/9/3 12/12/3 
f 13/13/4 14/14/4 15/15/4 
f 14/14/4 13/13/4 16/16/4 
f 17/17/4 15/15/4 14/14/4 
f 15/15/4 17/17/4 18/18/4 
f 18/19/5 2/20/5 4/21/5 
f 2/20/5 18/19/5 17/22/5 
f 8/8/6 7/7/6 9/9/6 
f 9/9/6 11/11/6 8/8/6 
f 12/12/7 13/13/7 10/10/7 
f 13/13/7 12/12/7 16/16/7 
f 19/23/8 2/24/8 20/25/8 
f 3/26/8 2/24/8 19/23/8 
f 21/27/8 3/26/8 19/23/8 
f 6/28/9 3/26/8 21/27/8 
f 21/27/8 22/29/10 6/28/9 
f 22/29/10 21/27/8 23/30/11 
f 6/28/9 22/29/10 7/31/10 
f 24/32/8 22/29/10 23/30/11 
f 25/33/9 7/31/10 22/29/10 
f 22/29/10 24/32/8 25/33/9 
f 26/34/8 25/33/9 24/32/8 
f 26/34/8 27/35/8 25/33/9 
f 25/33/9 9/36/8 7/31/10 
f 27/35/8 9/36/8 25/33/9 
f 27/35/8 28/37/8 9/36/8 
f 28/37/8 29/38/8 9/36/8 
f 28/37/8 30/39/8 29/38/8 
f 9/36/8 29/38/8 12/40/11 
f 30/39/8 31/41/8 32/42/8 
f 30/39/8 32/42/8 29/38/8 
f 33/43/11 29/38/8 32/42/8 
f 12/40/11 29/38/8 34/44/11 
f 29/38/8 33/43/11 34/44/11 
f 16/45/8 12/40/11 34/44/11 
f 33/43/11 16/45/8 34/44/11 
f 16/45/8 33/43/11 35/46/8 
f 35/46/8 36/47/8 16/45/8 
f 16/45/8 36/47/8 14/48/8 
f 36/47/8 37/49/8 14/48/8 
f 14/48/8 37/49/8 17/50/8 
# 0 polygons - 48 triangles

