# 3ds Max Wavefront OBJ Exporter v0.97b - (c)2007 guruware
# File Created: 09.05.2023 15:45:06

mtllib Floor_Block_E.mtl

#
# object Dn_HL_Floor_Block_E
#

v  -2.650708 0.183809 2.200003
v  -0.761108 0.359580 2.123804
v  -2.646284 0.282930 2.123804
v  -0.557895 0.197554 2.200003
v  -0.583364 0.350527 -2.193242
v  -0.363262 0.101812 -2.200003
v  -2.523154 0.095229 -2.183161
v  -0.346421 -1.170254 -2.195631
v  -2.701997 -0.962183 -2.183161
v  -1.100098 -2.230151 -2.190042
v  -0.367817 -2.171084 -2.193881
v  -2.540820 -2.336411 -2.183161
v  -0.473218 -2.348603 -2.193111
v  -1.173481 -2.568559 -2.189800
v  -2.383794 -2.595547 -2.183161
v  -0.975898 -2.622212 -2.183161
v  -1.174521 -2.773125 -2.183161
v  -2.458057 2.628457 -1.586743
v  -0.599380 2.628096 -1.078253
v  -0.621689 2.667060 -1.586743
v  -2.488569 2.597183 -1.078253
v  -0.599380 2.742012 -0.118427
v  -2.617930 2.720103 -0.118427
v  -2.587402 2.751377 2.123804
v  -0.621689 2.780977 2.123804
v  -0.315776 0.262227 -1.586938
v  -0.414424 0.373687 -1.586743
v  -2.523154 0.095229 -1.589025
v  2.585381 -2.474292 -0.144675
v  2.313594 -2.633921 -1.078253
v  2.627422 -2.449600 -1.078253
v  2.355635 -2.609228 -0.144675
v  2.627422 -2.449600 2.036239
v  1.229429 -2.731465 -1.078253
v  2.313594 -2.633921 2.036239
v  1.146758 -2.730772 -0.144675
v  0.953643 -2.690859 2.036239
v  -0.377217 -2.611416 -1.078253
v  -0.335576 -2.611768 -0.144675
v  -0.238276 -2.612583 2.036239
v  -0.377217 -2.611416 2.036239
v  -0.377217 -2.611416 -0.144675
v  -0.814146 -2.780981 -0.095586
v  -0.814146 -2.780981 2.200003
v  -2.642832 -2.692564 0.033880
v  -2.613013 -2.741782 2.200003
v  -2.613013 -2.741782 -0.893367
v  -0.814146 -2.780981 -1.078253
v  -1.200854 -2.772554 -1.589025
v  -2.383794 -2.595547 -1.589025
v  -0.814146 -2.780981 -1.589025
v  -0.377217 -2.611416 -1.589025
v  -0.400581 -2.525947 -1.792783
v  -0.837505 -2.695508 -1.808185
v  2.827017 0.092524 -0.144675
v  2.871894 -0.804844 -1.078253
v  2.827017 0.092524 -1.078253
v  2.871743 -0.809673 -0.144675
v  2.781577 -1.241880 -1.078253
v  2.704131 -0.002725 0.051071
v  2.781450 -1.246230 -0.144675
v  2.663818 -1.246465 2.027399
v  2.786098 -0.521499 0.859634
v  2.699727 0.016211 2.036239
v  2.680488 -0.639731 2.036239
v  -0.366499 -2.109556 -1.588661
v  -0.361284 -2.023447 -1.078253
v  -0.345430 -1.123828 -1.587945
v  -0.335815 -1.085669 -1.078253
v  -0.298970 0.272056 -1.078253
v  -0.414424 0.373687 -1.078253
v  -0.403105 2.285474 -1.586743
v  -0.425415 2.324429 -1.078253
v  -0.414424 0.373687 -0.118427
v  -0.425415 2.438340 -0.118427
v  -0.403105 2.399385 2.123804
v  -0.414424 0.373687 2.123804
v  2.565967 0.338896 -1.078253
v  2.493193 -1.227798 -1.078253
v  1.769199 0.264897 -1.078253
v  1.213013 -1.163472 -1.078253
v  1.255571 0.232446 -1.078253
v  2.334321 -2.153931 -1.078253
v  1.223535 -2.100171 -1.078253
v  -0.298970 0.272056 2.036239
v  -0.298970 0.272056 -0.144675
v  1.251143 0.266689 2.036239
v  1.254238 0.232446 -0.144675
v  1.709780 0.265103 -0.144675
v  2.438662 0.262583 2.036239
v  2.438662 0.262583 0.002975
v  2.565967 0.338896 -0.144675
v  1.346484 -1.258267 2.036239
v  -0.322100 -1.272500 2.036239
v  -0.410034 0.112490 2.036239
v  -0.448970 -1.273603 2.036239
v  -0.533813 -2.445522 2.200003
v  -0.599985 -1.289145 2.200003
v  -1.731802 -1.299609 2.200003
v  -2.770029 -2.482632 2.200003
v  -2.717485 -1.308311 2.200003
v  -0.643174 2.407988 2.123804
v  -2.593926 2.477925 2.123804
v  -2.845283 2.499136 2.129977
v  -2.871665 0.458506 2.133296
v  -2.646284 0.282930 -1.586743
v  -2.871899 0.440371 -1.586743
v  -2.716099 2.364028 -1.586743
v  -2.593926 2.477925 -1.586743
v  -2.740205 -2.531846 0.033880
v  -2.770029 -2.482632 -0.893367
v  -2.712534 -1.197720 -0.168840
v  -2.540820 -2.336411 -1.589025
v  -2.710415 -1.150381 -1.182864
v  -2.647656 -1.062300 -1.589025
v  -2.686006 -0.604902 -1.589025
v  -2.650420 0.190312 -1.078253
v  -2.650513 0.188364 -0.095586
v  -2.646284 0.282930 -1.078253
v  -2.646284 0.282930 -0.118427
v  -2.871899 0.440371 -1.078253
v  -2.871665 0.458423 -0.104714
v  -2.685576 2.395298 -1.078253
v  -2.814770 2.530356 -0.104390
# 124 vertices

vn -0.023468 0.599208 0.800249
vn -0.003386 0.428161 0.903696
vn -0.024801 0.609975 0.792033
vn -0.002776 0.422717 0.906258
vn 0.180101 0.647672 -0.740328
vn 0.767995 0.286781 -0.572660
vn -0.577492 0.617251 -0.534326
vn 0.704483 -0.004766 -0.709705
vn -0.717590 -0.011344 -0.696373
vn -0.005007 -0.000540 -0.999987
vn 0.656576 -0.119075 -0.744802
vn -0.676635 -0.223128 -0.701697
vn 0.477249 -0.530550 -0.700535
vn 0.003214 -0.020641 -0.999782
vn -0.485586 -0.728910 -0.482593
vn 0.318837 -0.503744 -0.802860
vn 0.105397 -0.672350 -0.732691
vn -0.353714 0.818783 -0.452196
vn 0.493263 0.869339 -0.030683
vn 0.434386 0.766333 -0.473330
vn -0.392458 0.917088 -0.070193
vn 0.495219 0.866952 -0.056150
vn -0.379603 0.920948 -0.088068
vn -0.335393 0.817005 0.469057
vn 0.429969 0.754772 0.495425
vn 0.878227 0.458448 -0.136174
vn 0.620260 0.578416 -0.529823
vn -0.592355 0.533745 -0.603516
vn 0.825856 -0.563846 0.006268
vn 0.212443 -0.678795 -0.702926
vn 0.729378 -0.491196 -0.476165
vn 0.313806 -0.949486 0.001749
vn 0.735033 -0.454675 0.502988
vn 0.010930 -0.708827 -0.705298
vn 0.203350 -0.674944 0.709295
vn 0.005638 -0.999974 0.004583
vn -0.012489 -0.702224 0.711846
vn 0.652862 -0.534740 -0.536493
vn -0.043128 -0.999065 0.002862
vn -0.026705 -0.706138 0.707571
vn 0.354395 -0.710708 0.607699
vn 0.179890 -0.983687 0.000000
vn 0.165335 -0.986229 0.004092
vn 0.163359 -0.726320 0.667662
vn -0.508461 -0.861015 0.011039
vn -0.436978 -0.756181 0.487073
vn -0.511089 -0.848957 -0.134389
vn 0.173323 -0.984865 -0.000000
vn -0.025849 -0.998339 -0.051497
vn -0.543759 -0.820382 -0.176919
vn 0.174130 -0.966645 -0.187821
vn 0.812987 -0.561246 -0.155097
vn 0.776120 -0.555487 -0.298451
vn 0.297595 -0.907545 -0.296308
vn 0.867447 0.395453 0.301915
vn 0.704912 -0.054103 -0.707228
vn 0.799391 0.368693 -0.474383
vn 0.997614 -0.049864 0.047755
vn 0.697213 -0.116460 -0.707341
vn 0.846073 0.425862 0.320627
vn 0.986027 -0.165533 0.018684
vn 0.684244 -0.029696 0.728648
vn 0.996344 0.068412 0.051169
vn 0.792478 0.352201 0.497928
vn 0.676399 -0.023108 0.736173
vn 0.999421 -0.032459 -0.010213
vn 0.704107 -0.017517 -0.709878
vn 0.999783 -0.015889 -0.013479
vn 0.700213 -0.017360 -0.713722
vn 0.604384 0.628289 -0.489870
vn 0.847878 0.530174 -0.004246
vn 0.692217 0.175458 -0.700035
vn 0.966256 0.257559 -0.003677
vn 0.910651 0.413173 -0.001489
vn 0.962659 0.270053 -0.018932
vn 0.684769 0.179762 0.706242
vn 0.842774 0.322386 0.431045
vn 0.230428 0.668508 -0.707107
vn 0.000000 0.000000 -1.000000
vn -0.054172 0.703812 -0.708318
vn -0.014186 0.706433 -0.707638
vn 0.424270 0.568976 0.704458
vn 0.363002 0.931785 -0.002529
vn 0.002041 0.708560 0.705647
vn -0.023029 0.999704 -0.007882
vn -0.055918 0.998396 0.008896
vn 0.263706 0.657071 0.706199
vn 0.255567 0.916822 0.306796
vn 0.339526 0.891769 0.299115
vn 0.001265 -0.000136 0.999999
vn 0.000000 0.000000 1.000000
vn 0.411341 -0.080598 0.907911
vn 0.410036 0.005192 0.912055
vn 0.414281 -0.082778 0.906377
vn 0.391693 0.006310 0.920074
vn 0.343975 0.061260 0.936978
vn -0.688618 -0.172406 0.704330
vn -0.708353 0.028637 0.705277
vn -0.706400 0.031583 0.707108
vn -0.003279 0.080595 0.996742
vn 0.012592 0.000158 0.999921
vn -0.658275 -0.243559 0.712288
vn -0.641817 0.280244 0.713817
vn -0.621629 -0.309323 0.719650
vn -0.511293 -0.461228 -0.725154
vn -0.639649 -0.301412 -0.707107
vn -0.654925 0.289304 -0.698124
vn -0.964649 -0.263465 0.006159
vn -0.951899 -0.262973 -0.157269
vn -0.999294 0.037434 0.003294
vn -0.942376 -0.285764 -0.173969
vn -0.996137 -0.005369 -0.087645
vn -0.994485 -0.090341 -0.053266
vn -0.996036 0.075026 -0.047781
vn -0.998586 0.028834 -0.044650
vn -0.999001 0.044686 -0.000002
vn -0.896739 -0.442560 0.000000
vn -0.906978 -0.421162 0.003552
vn -0.906221 -0.422794 0.002910
vn -0.909594 -0.415388 -0.009627
vn -0.910666 0.408229 -0.063539
vn -0.908592 0.408523 -0.087004
# 122 vertex normals

vt 0.601074 0.918091 0.918091
vt 0.652832 0.923218 0.923218
vt 0.601074 0.921631 0.921631
vt 0.658203 0.918213 0.918213
vt 0.009995 0.476074 0.476074
vt 0.015137 0.471191 0.471191
vt 0.016144 0.516602 0.516602
vt 0.041870 0.470703 0.470703
vt 0.038452 0.520020 0.520020
vt 0.064453 0.485840 0.485840
vt 0.062927 0.470703 0.470703
vt 0.067261 0.516113 0.516113
vt 0.066711 0.472656 0.472656
vt 0.071594 0.487305 0.487305
vt 0.072693 0.512695 0.512695
vt 0.072693 0.482910 0.482910
vt 0.075928 0.487305 0.487305
vt 0.573242 0.779297 0.779297
vt 0.559082 0.728271 0.728271
vt 0.573242 0.728760 0.728760
vt 0.559082 0.780273 0.780273
vt 0.532227 0.728271 0.728271
vt 0.532227 0.783691 0.783691
vt 0.470703 0.782837 0.782837
vt 0.470703 0.728760 0.728760
vt 0.010994 0.870117 0.870117
vt 0.023361 0.876709 0.876709
vt 0.009995 0.876953 0.876953
vt 0.023758 0.873657 0.873657
vt 0.023697 0.828857 0.828857
vt 0.011208 0.828857 0.828857
vt 0.677734 0.398438 0.398438
vt 0.703613 0.390137 0.390137
vt 0.703613 0.399902 0.399902
vt 0.677734 0.391113 0.391113
vt 0.617676 0.399902 0.399902
vt 0.703613 0.359863 0.359863
vt 0.617676 0.390137 0.390137
vt 0.677734 0.357910 0.357910
vt 0.617676 0.352539 0.352539
vt 0.703613 0.315430 0.315430
vt 0.677734 0.316895 0.316895
vt 0.617676 0.319336 0.319336
vt 0.617676 0.315918 0.315918
vt 0.677734 0.315430 0.315430
vt 0.676270 0.302734 0.302734
vt 0.612793 0.302734 0.302734
vt 0.672852 0.252441 0.252441
vt 0.612793 0.252930 0.252930
vt 0.698242 0.252930 0.252930
vt 0.703125 0.302734 0.302734
vt 0.717773 0.291992 0.291992
vt 0.717773 0.259277 0.259277
vt 0.734375 0.259277 0.259277
vt 0.733887 0.292969 0.292969
vt 0.717285 0.302734 0.302734
vt 0.717773 0.315430 0.315430
vt 0.723633 0.315430 0.315430
vt 0.723633 0.302734 0.302734
vt 0.734375 0.299805 0.299805
vt 0.735840 0.315430 0.315430
vt 0.961914 0.882874 0.882874
vt 0.937012 0.857422 0.857422
vt 0.961914 0.857178 0.857178
vt 0.937012 0.883118 0.883118
vt 0.924805 0.857422 0.857422
vt 0.959961 0.889526 0.889526
vt 0.924805 0.883179 0.883179
vt 0.891113 0.857544 0.857544
vt 0.890625 0.883179 0.883179
vt 0.891113 0.943268 0.943268
vt 0.924316 0.943359 0.943359
vt 0.938965 0.914429 0.914429
vt 0.958984 0.944000 0.944000
vt 0.940918 0.943665 0.943665
vt 0.366943 0.989410 0.989410
vt 0.376953 0.978607 0.978607
vt 0.372559 0.990005 0.990005
vt 0.365723 0.972687 0.972687
vt 0.379395 0.972992 0.972992
vt 0.379883 0.958923 0.958923
vt 0.339355 0.988800 0.988800
vt 0.363525 0.958588 0.958588
vt 0.338379 0.972031 0.972031
vt 0.304199 0.988121 0.988121
vt 0.337646 0.957977 0.957977
vt 0.300293 0.971085 0.971085
vt 0.300293 0.957062 0.957062
vt 0.296143 0.957092 0.957092
vt 0.296143 0.971100 0.971100
vt 0.243530 0.971298 0.971298
vt 0.242310 0.957275 0.957275
vt 0.296143 0.930725 0.930725
vt 0.232666 0.957306 0.957306
vt 0.231445 0.971298 0.971298
vt 0.239258 0.930786 0.930786
vt 0.229614 0.930847 0.930847
vt 0.240234 0.869019 0.869019
vt 0.296143 0.868896 0.868896
vt 0.228149 0.869019 0.869019
vt 0.749512 0.111328 0.111328
vt 0.773438 0.104492 0.104492
vt 0.768555 0.109863 0.109863
vt 0.740234 0.103516 0.103516
vt 0.771484 0.087402 0.087402
vt 0.740234 0.109863 0.109863
vt 0.741211 0.076660 0.076660
vt 0.770508 0.076660 0.076660
vt 0.720703 0.101074 0.101074
vt 0.714844 0.107422 0.107422
vt 0.710938 0.100586 0.100586
vt 0.741699 0.043945 0.043945
vt 0.770508 0.043945 0.043945
vt 0.722168 0.043945 0.043945
vt 0.721191 0.077637 0.077637
vt 0.708008 0.078125 0.078125
vt 0.709473 0.043945 0.043945
vt 0.796387 0.856079 0.856079
vt 0.855957 0.860229 0.860229
vt 0.793945 0.860229 0.860229
vt 0.856445 0.855957 0.855957
vt 0.882324 0.860107 0.860107
vt 0.796387 0.814087 0.814087
vt 0.882324 0.855835 0.855835
vt 0.856445 0.812866 0.812866
vt 0.882324 0.812744 0.812744
vt 0.856445 0.800171 0.800171
vt 0.795898 0.782471 0.782471
vt 0.882324 0.798462 0.798462
vt 0.849121 0.769531 0.769531
vt 0.794922 0.772705 0.772705
vt 0.852051 0.779541 0.779541
vt 0.857422 0.776855 0.776855
vt 0.882813 0.775757 0.775757
vt 0.855957 0.767212 0.767212
vt 0.881836 0.765869 0.765869
vt 0.742188 0.922913 0.922913
vt 0.749512 0.898315 0.898315
vt 0.749512 0.916382 0.916382
vt 0.713379 0.880005 0.880005
vt 0.709473 0.921875 0.921875
vt 0.749512 0.881531 0.881531
vt 0.749512 0.848389 0.848389
vt 0.741211 0.843018 0.843018
vt 0.703613 0.840088 0.840088
vt 0.666504 0.920654 0.920654
vt 0.667480 0.878113 0.878113
vt 0.670410 0.841187 0.841187
vt 0.666504 0.841187 0.841187
vt 0.664063 0.915955 0.915955
vt 0.662598 0.923279 0.923279
vt 0.664063 0.878052 0.878052
vt 0.660645 0.845947 0.845947
vt 0.653320 0.836304 0.836304
vt 0.658203 0.877441 0.877441
vt 0.626465 0.876648 0.876648
vt 0.604004 0.836304 0.836304
vt 0.599121 0.843384 0.843384
vt 0.599609 0.876160 0.876160
vt 0.658203 0.979279 0.979279
vt 0.664551 0.978806 0.978806
vt 0.659180 0.989502 0.989502
vt 0.604980 0.990005 0.990005
vt 0.604492 0.982468 0.982468
vt 0.597656 0.982910 0.982910
vt 0.595215 0.926392 0.926392
vt 0.342529 0.813599 0.813599
vt 0.295410 0.814453 0.814453
vt 0.339844 0.809570 0.809570
vt 0.294434 0.854614 0.854614
vt 0.347168 0.816895 0.816895
vt 0.343018 0.857300 0.857300
vt 0.340332 0.859741 0.859741
vt 0.337402 0.862793 0.862793
vt 0.298828 0.862793 0.862793
vt 0.415039 0.240234 0.240234
vt 0.409424 0.300293 0.300293
vt 0.406738 0.240723 0.240723
vt 0.414551 0.300293 0.300293
vt 0.447510 0.240723 0.240723
vt 0.416504 0.325684 0.325684
vt 0.408203 0.326172 0.326172
vt 0.410645 0.346680 0.346680
vt 0.451660 0.306152 0.306152
vt 0.411133 0.362793 0.362793
vt 0.419434 0.362305 0.362305
vt 0.418945 0.345703 0.345703
vt 0.452637 0.334473 0.334473
vt 0.454834 0.345703 0.345703
vt 0.457520 0.362305 0.362305
vt 0.467529 0.345703 0.345703
vt 0.486816 0.362793 0.362793
vt 0.487305 0.346191 0.346191
vt 0.489990 0.331543 0.331543
vt 0.493408 0.345703 0.345703
vt 0.489502 0.304199 0.304199
vt 0.488281 0.240723 0.240723
vt 0.490967 0.243164 0.243164
vt 0.492676 0.331543 0.331543
vt 0.500488 0.345215 0.345215
vt 0.491943 0.305176 0.305176
vt 0.500000 0.331055 0.331055
vt 0.553711 0.343750 0.343750
vt 0.499512 0.304688 0.304688
vt 0.498535 0.242676 0.242676
vt 0.554688 0.241211 0.241211
vt 0.554688 0.329590 0.329590
vt 0.562500 0.329590 0.329590
vt 0.563965 0.343750 0.343750
vt 0.556152 0.302734 0.302734
vt 0.564941 0.240723 0.240723
vt 0.563965 0.302734 0.302734
# 212 texture coords

g Dn_HL_Floor_Block_E
usemtl Dn_HL_Floor_Blocks_A_Blend
s 1
f 1/1/1 2/2/2 3/3/3 
f 2/2/2 1/1/1 4/4/4 
f 5/5/5 6/6/6 7/7/7 
f 8/8/8 7/7/7 6/6/6 
f 8/8/8 9/9/9 7/7/7 
f 8/8/8 10/10/10 9/9/9 
f 10/10/10 8/8/8 11/11/11 
f 10/10/10 12/12/12 9/9/9 
f 13/13/13 10/10/10 11/11/11 
f 12/12/12 10/10/10 14/14/14 
f 10/10/10 13/13/13 14/14/14 
f 14/14/14 15/15/15 12/12/12 
f 14/14/14 13/13/13 16/16/16 
f 15/15/15 14/14/14 17/17/17 
f 17/17/17 14/14/14 16/16/16 
f 18/18/18 19/19/19 20/20/20 
f 19/19/19 18/18/18 21/21/21 
f 21/21/21 22/22/22 19/19/19 
f 22/22/22 21/21/21 23/23/23 
f 22/22/22 23/23/23 24/24/24 
f 22/22/22 24/24/24 25/25/25 
f 5/26/5 26/27/26 6/28/6 
f 26/27/26 5/26/5 27/29/27 
f 5/26/5 28/30/28 27/29/27 
f 28/30/28 5/26/5 7/31/7 
f 29/32/29 30/33/30 31/34/31 
f 32/35/32 30/33/30 29/32/29 
f 33/36/33 32/35/32 29/32/29 
f 32/35/32 34/37/34 30/33/30 
f 35/38/35 32/35/32 33/36/33 
f 34/37/34 32/35/32 36/39/36 
f 35/38/35 36/39/36 32/35/32 
f 37/40/37 36/39/36 35/38/35 
f 36/39/36 38/41/38 34/37/34 
f 37/40/37 39/42/39 36/39/36 
f 38/41/38 36/39/36 39/42/39 
f 39/42/39 37/40/37 40/43/40 
f 41/44/41 39/42/39 40/43/40 
f 38/41/38 39/42/39 42/45/42 
f 39/42/39 41/44/41 42/45/42 
f 41/44/41 43/46/43 42/45/42 
f 44/47/44 43/46/43 41/44/41 
f 45/48/45 44/47/44 46/49/46 
f 44/47/44 45/48/45 43/46/43 
f 43/46/43 45/48/45 47/50/47 
f 43/46/43 48/51/48 42/45/42 
f 43/46/43 47/50/47 48/51/48 
f 42/45/42 48/51/48 38/41/38 
f 47/50/47 49/52/49 48/51/48 
f 49/52/49 47/50/47 50/53/50 
f 15/54/15 49/52/49 50/53/50 
f 49/52/49 15/54/15 17/55/17 
f 48/51/48 51/56/51 38/41/38 
f 48/51/48 49/52/49 51/56/51 
f 38/41/38 51/56/51 52/57/52 
f 51/56/51 53/58/53 52/57/52 
f 54/59/54 49/52/49 17/55/17 
f 49/52/49 54/59/54 51/56/51 
f 53/58/53 51/56/51 54/59/54 
f 54/59/54 17/55/17 16/60/16 
f 54/59/54 13/61/13 53/58/53 
f 13/61/13 54/59/54 16/60/16 
f 55/62/55 56/63/56 57/64/57 
f 56/63/56 55/62/55 58/65/58 
f 58/65/58 59/66/59 56/63/56 
f 60/67/60 58/65/58 55/62/55 
f 59/66/59 58/65/58 61/68/61 
f 61/68/61 31/69/31 59/66/59 
f 31/69/31 61/68/61 29/70/29 
f 61/68/61 33/71/33 29/70/29 
f 33/71/33 61/68/61 62/72/62 
f 58/65/58 62/72/62 61/68/61 
f 63/73/63 58/65/58 60/67/60 
f 62/72/62 58/65/58 63/73/63 
f 64/74/64 63/73/63 60/67/60 
f 63/73/63 65/75/65 62/72/62 
f 63/73/63 64/74/64 65/75/65 
f 11/76/11 53/77/53 13/78/13 
f 66/79/66 53/77/53 11/76/11 
f 53/77/53 66/79/66 52/80/52 
f 52/80/52 66/79/66 38/81/38 
f 66/79/66 11/76/11 8/82/8 
f 38/81/38 66/79/66 67/83/67 
f 66/79/66 8/82/8 68/84/68 
f 66/79/66 68/84/68 67/83/67 
f 6/85/6 68/84/68 8/82/8 
f 67/83/67 68/84/68 69/86/69 
f 68/84/68 6/85/6 26/87/26 
f 68/84/68 26/87/26 69/86/69 
f 69/86/69 26/87/26 70/88/70 
f 26/87/26 71/89/71 70/88/70 
f 71/89/71 26/87/26 27/90/27 
f 72/91/72 71/89/71 27/90/27 
f 71/89/71 72/91/72 73/92/73 
f 73/92/73 74/93/74 71/89/71 
f 19/94/19 72/91/72 20/95/20 
f 72/91/72 19/94/19 73/92/73 
f 19/94/19 75/96/75 73/92/73 
f 74/93/74 73/92/73 75/96/75 
f 75/96/75 19/94/19 22/97/22 
f 76/98/76 74/93/74 75/96/75 
f 22/97/22 76/98/76 75/96/75 
f 74/93/74 76/98/76 77/99/77 
f 76/98/76 22/97/22 25/100/25 
f 56/101/56 78/102/78 57/103/57 
f 78/102/78 56/101/56 79/104/79 
f 78/102/78 79/104/79 80/105/80 
f 79/104/79 56/101/56 59/106/59 
f 81/107/79 80/105/80 79/104/79 
f 80/105/80 81/107/79 82/108/81 
f 59/106/59 83/109/79 79/104/79 
f 83/109/79 81/107/79 79/104/79 
f 83/109/79 59/106/59 31/110/31 
f 83/109/79 31/110/31 30/111/30 
f 82/108/81 69/112/69 70/113/70 
f 69/112/69 82/108/81 81/107/79 
f 81/107/79 67/114/67 69/112/69 
f 30/111/30 84/115/79 83/109/79 
f 81/107/79 83/109/79 84/115/79 
f 67/114/67 81/107/79 84/115/79 
f 84/115/79 30/111/30 34/116/34 
f 84/115/79 38/117/38 67/114/67 
f 38/117/38 84/115/79 34/116/34 
f 85/118/82 74/119/74 77/120/77 
f 74/119/74 85/118/82 86/121/83 
f 86/121/83 71/122/71 74/119/74 
f 87/123/84 86/121/83 85/118/82 
f 71/122/71 86/121/83 70/124/70 
f 88/125/85 70/124/70 86/121/83 
f 86/121/83 87/123/84 88/125/85 
f 70/124/70 88/125/85 82/126/81 
f 87/123/84 89/127/86 88/125/85 
f 82/126/81 88/125/85 89/127/86 
f 89/127/86 87/123/84 90/128/87 
f 89/127/86 80/129/80 82/126/81 
f 60/130/60 90/128/87 64/131/64 
f 89/127/86 90/128/87 91/132/88 
f 91/132/88 90/128/87 60/130/60 
f 80/129/80 89/127/86 92/133/89 
f 89/127/86 91/132/88 92/133/89 
f 60/130/60 92/133/89 91/132/88 
f 78/134/78 80/129/80 92/133/89 
f 92/133/89 60/130/60 55/135/55 
f 78/134/78 92/133/89 57/136/57 
f 57/136/57 92/133/89 55/135/55 
f 90/137/87 65/138/65 64/139/64 
f 90/137/87 93/140/90 65/138/65 
f 87/141/84 93/140/90 90/137/87 
f 93/140/90 62/142/62 65/138/65 
f 62/142/62 93/140/90 33/143/33 
f 33/143/33 93/140/90 35/144/35 
f 35/144/35 93/140/90 37/145/37 
f 85/146/82 93/140/90 87/141/84 
f 94/147/91 37/145/37 93/140/90 
f 85/146/82 94/147/91 93/140/90 
f 37/145/37 94/147/91 40/148/40 
f 40/148/40 94/147/91 41/149/41 
f 95/150/92 94/147/91 85/146/82 
f 77/151/77 95/150/92 85/146/82 
f 94/147/91 96/152/93 41/149/41 
f 94/147/91 95/150/92 96/152/93 
f 41/149/41 96/152/93 97/153/94 
f 41/149/41 97/153/94 44/154/44 
f 96/152/93 95/150/92 98/155/95 
f 97/153/94 96/152/93 98/155/95 
f 98/155/95 95/150/92 4/4/96 
f 4/4/96 95/150/92 77/151/77 
f 99/156/91 97/153/94 98/155/95 
f 97/153/94 99/156/91 44/154/44 
f 98/155/95 4/4/96 99/156/91 
f 44/154/44 99/156/91 46/157/46 
f 99/156/91 100/158/97 46/157/46 
f 100/158/97 99/156/91 101/159/98 
f 101/159/98 99/156/91 1/1/99 
f 99/156/91 4/4/96 1/1/99 
f 2/2/100 4/4/96 77/151/77 
f 77/151/77 102/160/91 2/2/100 
f 102/160/91 77/151/77 76/161/76 
f 25/162/25 102/160/91 76/161/76 
f 24/163/24 102/160/91 25/162/25 
f 103/164/101 2/2/100 102/160/91 
f 102/160/91 24/163/24 103/164/101 
f 2/2/100 103/164/101 3/3/102 
f 104/165/103 103/164/101 24/163/24 
f 103/164/101 105/166/104 3/3/102 
f 105/166/104 103/164/101 104/165/103 
f 106/167/105 27/168/27 28/169/28 
f 27/168/27 106/167/105 72/170/72 
f 107/171/106 108/172/107 106/167/105 
f 106/167/105 108/172/107 109/173/79 
f 106/167/105 109/173/79 72/170/72 
f 18/174/18 109/173/79 108/172/107 
f 72/170/72 109/173/79 18/174/18 
f 72/170/72 18/174/18 20/175/20 
f 100/176/97 45/177/45 46/178/46 
f 45/177/45 100/176/97 110/179/108 
f 101/180/98 110/179/108 100/176/97 
f 110/179/108 111/181/109 45/177/45 
f 47/182/47 45/177/45 111/181/109 
f 111/181/109 50/183/50 47/182/47 
f 110/179/108 101/180/98 112/184/110 
f 112/184/110 111/181/109 110/179/108 
f 15/185/15 50/183/50 12/186/12 
f 50/183/50 111/181/109 113/187/111 
f 113/187/111 12/186/12 50/183/50 
f 114/188/112 113/187/111 111/181/109 
f 111/181/109 112/184/110 114/188/112 
f 115/189/113 12/186/12 113/187/111 
f 113/187/111 114/188/112 115/189/113 
f 12/186/12 115/189/113 9/190/9 
f 9/190/9 115/189/113 116/191/114 
f 114/188/112 116/191/114 115/189/113 
f 116/191/114 7/192/7 9/190/9 
f 7/192/7 116/191/114 28/193/28 
f 116/191/114 114/188/112 117/194/115 
f 116/191/114 117/194/115 28/193/28 
f 112/184/110 117/194/115 114/188/112 
f 117/194/115 106/195/105 28/193/28 
f 101/180/98 118/196/116 112/184/110 
f 117/194/115 112/184/110 118/196/116 
f 118/196/116 101/180/98 1/197/99 
f 3/198/102 118/196/116 1/197/99 
f 106/195/105 117/194/115 119/199/117 
f 119/199/117 107/200/106 106/195/105 
f 117/194/115 118/196/116 120/201/118 
f 117/194/115 120/201/118 119/199/117 
f 118/196/116 3/198/102 120/201/118 
f 107/200/106 119/199/117 121/202/119 
f 120/201/118 121/202/119 119/199/117 
f 108/203/107 107/200/106 121/202/119 
f 3/198/102 122/204/120 120/201/118 
f 122/204/120 121/202/119 120/201/118 
f 105/205/104 122/204/120 3/198/102 
f 104/206/103 122/204/120 105/205/104 
f 121/202/119 123/207/121 108/203/107 
f 123/207/121 121/202/119 122/204/120 
f 108/203/107 21/208/21 18/209/18 
f 21/208/21 108/203/107 123/207/121 
f 122/204/120 104/206/103 124/210/122 
f 122/204/120 124/210/122 123/207/121 
f 123/207/121 124/210/122 21/208/21 
f 24/211/24 124/210/122 104/206/103 
f 23/212/23 21/208/21 124/210/122 
f 124/210/122 24/211/24 23/212/23 
# 0 polygons - 244 triangles

