# 3ds Max Wavefront OBJ Exporter v0.97b - (c)2007 guruware
# File Created: 09.05.2023 19:56:10

mtllib Ruins_Trim_Top_DMG_2M_B.mtl

#
# object Dn_HL_Ruins_Trim_Top_DMG_2M_B
#

v  0.698721 -0.311555 -0.083116
v  0.676636 -0.271012 -0.075100
v  0.618877 -0.307715 -0.114048
v  0.678442 -0.358263 -0.117055
v  0.602314 -0.324727 -0.130441
v  0.655781 -0.347599 -0.187169
v  0.603735 -0.333415 -0.223031
v  0.605918 -0.312603 -0.289538
v  0.013477 -0.330186 -0.148279
v  0.008281 -0.259197 -0.319524
v  0.017690 -0.326309 -0.255081
v  -0.000005 -0.262186 -0.063588
v  -0.000005 -0.068926 -0.320332
v  -0.000005 -0.079066 0.090838
v  -0.000005 -0.051178 0.098035
v  -0.000005 -0.036528 -0.318717
v  -0.000005 -0.030781 0.098778
v  -0.000005 0.020212 0.088314
v  -0.000005 0.050810 0.051325
v  -0.000005 0.045268 -0.318716
v  0.966230 0.053480 0.050021
v  0.918901 0.050805 0.104510
v  0.991543 0.043100 0.093410
v  0.909980 0.056212 0.004903
v  0.078872 0.050808 0.104509
v  0.078530 0.051285 0.068194
v  0.770752 0.061619 -0.103238
v  0.031104 0.066540 -0.201701
v  0.658120 0.067025 -0.211382
v  0.030459 0.068012 -0.318717
v  0.607617 0.076073 -0.279632
v  0.534199 0.072430 -0.314080
v  0.105850 -0.312604 -0.314285
v  0.103462 -0.337457 -0.210410
v  0.351050 -0.312604 -0.302150
v  0.101411 -0.358794 -0.121234
v  0.387158 -0.335164 -0.217567
v  0.450063 -0.329568 -0.219154
v  0.416396 -0.337372 -0.127024
v  0.115923 -0.266665 -0.041985
v  0.426099 -0.326744 -0.116725
v  0.494536 -0.319700 -0.128460
v  0.543130 -0.333905 -0.221502
v  0.560640 -0.327562 -0.129675
v  0.503647 -0.306733 -0.115648
v  0.574526 -0.312093 -0.114664
v  0.477270 -0.269466 -0.063326
v  0.538276 -0.254701 -0.066929
v  0.623394 -0.270599 -0.071956
v  0.508838 -0.207204 0.011288
v  0.602021 -0.182586 0.023923
v  0.698267 -0.178538 0.036971
v  0.794370 -0.163994 0.050001
v  0.632271 -0.080972 0.121858
v  0.109810 -0.079397 0.120104
v  0.760757 -0.081359 0.122289
v  0.927744 -0.081863 0.122850
v  0.957388 -0.051182 0.130206
v  0.106235 -0.051180 0.127295
v  0.102231 -0.030782 0.127675
v  0.964888 -0.030784 0.127677
v  0.089600 0.017393 0.117920
v  0.972993 -0.010386 0.124899
v  0.971250 0.025208 0.117212
v  0.088730 0.020667 0.117211
v  0.111313 -0.275165 -0.317621
v  0.590322 -0.276948 -0.309436
v  0.632793 -0.248601 -0.289098
v  0.616270 -0.218718 -0.308632
v  0.659663 -0.184600 -0.288658
v  0.642212 -0.160488 -0.307828
v  0.686538 -0.120599 -0.288218
v  0.607451 -0.014915 -0.305816
v  0.636387 -0.005975 -0.267149
v  0.668159 -0.102258 -0.307023
v  0.750605 0.032419 -0.175641
v  0.749780 -0.116468 -0.191078
v  0.847568 0.026611 -0.086103
v  0.881362 -0.100284 -0.068965
v  0.966050 0.029963 0.016176
v  0.976064 -0.053889 0.027453
v  0.992788 0.025235 0.054614
v  0.993613 0.017499 0.103568
v  0.992671 -0.011797 0.108488
v  0.985649 -0.065735 0.061282
v  0.980898 -0.034946 0.113172
v  0.941240 -0.098299 0.043736
v  0.965586 -0.055362 0.107751
v  0.954175 -0.089351 0.076023
v  0.941186 -0.086780 0.098617
v  0.899463 -0.129298 0.074650
v  0.897456 -0.135002 0.048119
v  0.910298 -0.090592 0.034968
v  0.852334 -0.127293 0.042485
v  0.820527 -0.154251 -0.057540
v  0.759687 -0.208218 -0.046116
v  0.770688 -0.131546 -0.181120
v  0.717139 -0.243216 -0.125561
v  0.743105 -0.205610 -0.223152
v  0.721133 -0.246323 -0.167310
v  0.728018 -0.246134 -0.234960
v  0.717534 -0.267584 -0.169342
v  0.711025 -0.283590 -0.230292
v  0.685854 -0.343626 -0.163394
v  0.697231 -0.324137 -0.152837
v  0.709717 -0.290528 -0.134829
v  0.694995 -0.275128 -0.117474
# 107 vertices

vn -0.347054 -0.405875 0.845469
vn -0.167745 -0.592511 0.787904
vn -0.149609 -0.612603 0.776103
vn -0.413129 -0.716704 0.561836
vn -0.170390 -0.878592 0.446144
vn -0.309366 -0.950811 -0.015851
vn -0.063981 -0.986447 -0.151093
vn -0.022469 -0.954912 -0.296038
vn -0.986823 -0.157858 -0.035501
vn -0.995702 -0.085651 -0.035239
vn -0.982388 -0.181269 -0.045340
vn -0.998852 -0.045492 -0.014999
vn -0.999867 -0.013028 -0.009807
vn -1.000000 0.000000 0.000000
vn 0.060568 0.993004 0.101361
vn 0.032141 0.996325 0.079391
vn 0.128183 0.978857 0.159397
vn 0.000869 0.998590 0.053085
vn -0.006201 0.999866 0.015137
vn -0.007648 0.999412 0.033412
vn -0.051444 0.997557 0.047262
vn -0.001431 0.998624 0.052413
vn -0.273254 0.961797 0.016676
vn -0.585573 0.810577 0.008321
vn 0.000358 0.997320 0.073162
vn -0.323189 0.946262 0.011690
vn -0.001275 0.995855 0.090950
vn -0.007920 0.996047 -0.088476
vn -0.335147 -0.676585 -0.655674
vn -0.087281 -0.930062 -0.356886
vn -0.162097 -0.928894 -0.332988
vn -0.053843 -0.977862 -0.202206
vn -0.249201 -0.927619 0.278247
vn 0.010798 -0.967687 -0.251924
vn -0.175441 -0.923651 0.340719
vn 0.058965 -0.983285 -0.172260
vn 0.027950 -0.996681 -0.076459
vn 0.122356 -0.933048 0.338306
vn -0.090473 -0.671369 0.735580
vn -0.154628 -0.715304 0.681491
vn -0.223572 -0.468193 0.854875
vn 0.115970 -0.734202 0.668953
vn 0.067115 -0.911189 0.406486
vn -0.016854 -0.995788 -0.090122
vn -0.025412 -0.903891 0.427008
vn 0.065534 -0.717401 0.693571
vn -0.004881 -0.698873 0.715229
vn 0.130518 -0.759096 0.637761
vn 0.062036 -0.751532 0.656773
vn -0.019073 -0.741236 0.670974
vn 0.071108 -0.741674 0.666981
vn 0.009167 -0.733101 0.680057
vn -0.012480 -0.719622 0.694254
vn 0.004392 -0.686185 0.727414
vn -0.004778 -0.467251 0.884112
vn -0.113899 -0.459966 0.880601
vn -0.262396 -0.145981 0.953854
vn -0.004088 -0.457732 0.889081
vn -0.004173 -0.334824 0.942271
vn -0.001205 0.016668 0.999860
vn -0.129568 -0.150921 0.980018
vn -0.132783 0.061805 0.989216
vn -0.002113 0.132304 0.991207
vn -0.284057 0.069822 0.956262
vn -0.147029 0.171858 0.974088
vn -0.002196 0.177417 0.984133
vn -0.360009 0.450653 0.816888
vn -0.001376 0.267181 0.963646
vn -0.207266 0.402465 0.891663
vn -0.394836 0.707928 0.585613
vn -0.151720 0.256371 0.954597
vn -0.002236 0.440026 0.897982
vn 0.006189 -0.000909 -0.999980
vn 0.020868 0.005561 -0.999767
vn -0.000018 0.000005 -1.000000
vn 0.021156 -0.055208 -0.998251
vn 0.101591 0.041771 -0.993949
vn 0.015727 -0.017613 -0.999721
vn 0.028721 -0.092881 -0.995263
vn 0.018435 -0.297159 -0.954650
vn 0.148518 0.077378 -0.985878
vn 0.225813 -0.240489 -0.944020
vn 0.269044 -0.376947 -0.886299
vn 0.542101 -0.225890 -0.809383
vn 0.308843 -0.122417 -0.943202
vn 0.553992 -0.231008 -0.799830
vn 0.315479 -0.121256 -0.941153
vn 0.697468 -0.029337 -0.716016
vn 0.435076 0.201505 -0.877556
vn 0.513541 0.236435 -0.824848
vn 0.732651 0.325299 -0.597832
vn 0.535661 0.160289 -0.829080
vn 0.591632 0.433775 -0.679567
vn 0.680227 0.274736 -0.679567
vn 0.800654 0.194529 -0.566667
vn 0.588182 0.451360 -0.671056
vn 0.452705 0.764940 -0.458175
vn 0.685435 0.201735 -0.699629
vn 0.744300 0.182869 -0.642321
vn 0.606528 0.423241 -0.673046
vn 0.444598 0.720020 -0.532826
vn 0.748233 -0.413529 -0.518789
vn 0.677423 0.374361 -0.633207
vn 0.632206 0.658278 -0.408638
vn 0.777307 -0.326431 -0.537807
vn 0.917682 0.251511 -0.307574
vn 0.824162 0.475471 0.307708
vn 0.179528 0.706747 0.684309
vn 0.416707 0.474314 0.775488
vn 0.884475 0.146311 0.443054
vn 0.627630 -0.020097 0.778252
vn 0.897705 -0.096496 0.429900
vn 0.809466 -0.585309 0.046664
vn 0.751897 -0.387509 0.533374
vn 0.642714 -0.147533 0.751767
vn 0.676381 -0.568009 0.468909
vn 0.511359 -0.678062 -0.527962
vn 0.662335 -0.631336 0.403394
vn 0.511119 -0.710901 0.483092
vn 0.812883 -0.580074 0.052295
vn 0.578530 -0.688928 0.436671
vn 0.294288 -0.884428 0.362191
vn 0.508117 -0.850585 0.135358
vn 0.194716 -0.888213 -0.416129
vn 0.404738 -0.717149 -0.567348
vn 0.444570 -0.845069 -0.297011
vn 0.654319 -0.736121 -0.173185
vn 0.609570 -0.789326 0.073416
vn 0.882864 -0.382563 0.272391
vn 0.777529 -0.025278 -0.628338
vn 0.848378 -0.518946 0.104646
vn 0.920615 -0.180864 -0.346059
vn 0.955188 -0.277422 0.103212
vn 0.811069 -0.329491 -0.483325
vn 0.492032 -0.213653 -0.843953
vn 0.964229 -0.259662 0.053272
vn 0.737637 -0.486247 -0.468462
vn 0.523855 -0.214287 -0.824413
vn 0.528282 -0.470306 -0.706916
vn 0.447557 -0.779868 -0.437606
vn 0.641002 -0.733419 -0.226303
vn 0.813693 -0.580896 -0.021532
vn 0.905831 -0.423443 -0.012893
vn 0.975211 0.012047 0.220949
vn 0.958201 -0.194851 0.209485
vn 0.857569 -0.038791 0.512904
# 146 vertex normals

vt 0.300781 0.054688 0.054688
vt 0.302490 0.061035 0.061035
vt 0.285400 0.051758 0.051758
vt 0.296875 0.046875 0.046875
vt 0.282959 0.042480 0.042480
vt 0.298096 0.033691 0.033691
vt 0.292236 0.023438 0.023438
vt 0.302002 0.011719 0.011719
vt 0.315674 0.186523 0.186523
vt 0.297852 0.148926 0.148926
vt 0.313721 0.162598 0.162598
vt 0.301025 0.206055 0.206055
vt 0.255371 0.150879 0.150879
vt 0.261719 0.242188 0.242188
vt 0.255615 0.244141 0.244141
vt 0.248291 0.151367 0.151367
vt 0.250977 0.244629 0.244629
vt 0.239624 0.242676 0.242676
vt 0.232544 0.234863 0.234863
vt 0.230103 0.152344 0.152344
vt 0.298828 0.008789 0.008789
vt 0.295166 0.004883 0.004883
vt 0.300781 0.005371 0.005371
vt 0.294678 0.012695 0.012695
vt 0.231201 0.007813 0.007813
vt 0.231201 0.010254 0.010254
vt 0.225342 0.012207 0.012207
vt 0.284424 0.021484 0.021484
vt 0.228516 0.031250 0.031250
vt 0.226074 0.040039 0.040039
vt 0.276367 0.029785 0.029785
vt 0.228882 0.040039 0.040039
vt 0.272705 0.035156 0.035156
vt 0.267334 0.038086 0.038086
vt 0.228271 0.059570 0.059570
vt 0.241211 0.062500 0.062500
vt 0.230713 0.070313 0.070313
vt 0.241089 0.075195 0.075195
vt 0.230469 0.083496 0.083496
vt 0.270752 0.064453 0.064453
vt 0.241089 0.085449 0.085449
vt 0.274902 0.075195 0.075195
vt 0.282471 0.075195 0.075195
vt 0.278320 0.085938 0.085938
vt 0.242554 0.099121 0.099121
vt 0.228516 0.097168 0.097168
vt 0.228638 0.126465 0.126465
vt 0.279541 0.087402 0.087402
vt 0.287842 0.086426 0.086426
vt 0.293701 0.074707 0.074707
vt 0.301270 0.066406 0.066406
vt 0.301025 0.074707 0.074707
vt 0.295898 0.085938 0.085938
vt 0.300781 0.085938 0.085938
vt 0.289063 0.088867 0.088867
vt 0.297363 0.088379 0.088379
vt 0.302734 0.088867 0.088867
vt 0.285889 0.096680 0.096680
vt 0.293213 0.097168 0.097168
vt 0.303467 0.095215 0.095215
vt 0.309814 0.095215 0.095215
vt 0.289551 0.108398 0.108398
vt 0.300781 0.111328 0.111328
vt 0.312256 0.112305 0.112305
vt 0.323730 0.114746 0.114746
vt 0.304443 0.127930 0.127930
vt 0.242065 0.128418 0.128418
vt 0.228516 0.130371 0.130371
vt 0.319824 0.127930 0.127930
vt 0.339600 0.127930 0.127930
vt 0.343262 0.131836 0.131836
vt 0.241577 0.131836 0.131836
vt 0.241089 0.133789 0.133789
vt 0.343994 0.133789 0.133789
vt 0.228516 0.133301 0.133301
vt 0.239258 0.139648 0.139648
vt 0.344727 0.136230 0.136230
vt 0.228027 0.139648 0.139648
vt 0.344482 0.140625 0.140625
vt 0.237793 0.143555 0.143555
vt 0.226440 0.145020 0.145020
vt 0.239136 0.140137 0.140137
vt 0.338135 0.144043 0.144043
vt 0.385742 0.153809 0.153809
vt 0.367432 0.148438 0.148438
vt 0.381592 0.148438 0.148438
vt 0.325439 0.167969 0.167969
vt 0.361572 0.148438 0.148438
vt 0.328369 0.149902 0.149902
vt 0.318848 0.166992 0.166992
vt 0.318604 0.210449 0.210449
vt 0.386475 0.242188 0.242188
vt 0.325195 0.251953 0.251953
vt 0.318359 0.255371 0.255371
vt 0.329590 0.260254 0.260254
vt 0.335205 0.256348 0.256348
vt 0.340820 0.265137 0.265137
vt 0.345459 0.260742 0.260742
vt 0.352539 0.270020 0.270020
vt 0.371094 0.255371 0.255371
vt 0.387695 0.256348 0.256348
vt 0.374023 0.263184 0.263184
vt 0.355469 0.265137 0.265137
vt 0.386719 0.030273 0.030273
vt 0.371338 0.019531 0.019531
vt 0.387207 0.014160 0.014160
vt 0.376953 0.048340 0.048340
vt 0.385986 0.061035 0.061035
vt 0.347412 0.045410 0.045410
vt 0.347656 0.021973 0.021973
vt 0.375732 0.074219 0.074219
vt 0.385254 0.096191 0.096191
vt 0.350830 0.081543 0.081543
vt 0.376953 0.104980 0.104980
vt 0.382324 0.110840 0.110840
vt 0.360596 0.107422 0.107422
vt 0.375488 0.113770 0.113770
vt 0.378174 0.121582 0.121582
vt 0.383545 0.135254 0.135254
vt 0.374268 0.127930 0.127930
vt 0.372803 0.123047 0.123047
vt 0.365967 0.127930 0.127930
vt 0.366943 0.123047 0.123047
vt 0.358398 0.112793 0.112793
vt 0.361572 0.123535 0.123535
vt 0.360352 0.127441 0.127441
vt 0.354980 0.125977 0.125977
vt 0.349121 0.108398 0.108398
vt 0.356445 0.121582 0.121582
vt 0.346436 0.121582 0.121582
vt 0.351318 0.114258 0.114258
vt 0.349121 0.117188 0.117188
vt 0.339111 0.109375 0.109375
vt 0.319824 0.098145 0.098145
vt 0.339111 0.105469 0.105469
vt 0.346680 0.102539 0.102539
vt 0.333496 0.099609 0.099609
vt 0.335205 0.077148 0.077148
vt 0.319336 0.073730 0.073730
vt 0.343262 0.050293 0.050293
vt 0.316406 0.054688 0.054688
vt 0.330566 0.038574 0.038574
vt 0.319092 0.046875 0.046875
vt 0.323242 0.034180 0.034180
vt 0.333496 0.016113 0.016113
vt 0.315674 0.044922 0.044922
vt 0.316406 0.032227 0.032227
vt 0.317871 0.012695 0.012695
vt 0.301270 0.040039 0.040039
vt 0.304443 0.042480 0.042480
vt 0.309082 0.048828 0.048828
vt 0.309082 0.054199 0.054199
# 152 texture coords

g Dn_HL_Ruins_Trim_Top_DMG_2M_B
usemtl Dn_HL_Inst_Ruins_Trim_Top_A
s 1
f 1/1/1 2/2/2 3/3/3 
f 1/1/1 3/3/3 4/4/4 
f 3/3/3 5/5/5 4/4/4 
f 5/5/5 6/6/6 4/4/4 
f 6/6/6 5/5/5 7/7/7 
f 7/7/7 8/8/8 6/6/6 
f 9/9/9 10/10/10 11/11/11 
f 12/12/12 10/10/10 9/9/9 
f 12/12/12 13/13/13 10/10/10 
f 14/14/14 13/13/13 12/12/12 
f 13/13/13 14/14/14 15/15/14 
f 15/15/14 16/16/14 13/13/13 
f 16/16/14 15/15/14 17/17/14 
f 16/16/14 17/17/14 18/18/14 
f 16/16/14 18/18/14 19/19/14 
f 19/19/14 20/20/14 16/16/14 
f 21/21/15 22/22/16 23/23/17 
f 22/22/16 21/21/15 24/24/18 
f 24/24/18 25/25/19 22/22/16 
f 25/25/19 24/24/18 26/26/20 
f 19/27/21 25/25/19 26/26/20 
f 27/28/22 26/26/20 24/24/18 
f 26/26/20 28/29/23 19/27/21 
f 26/26/20 27/28/22 28/29/23 
f 20/30/24 19/27/21 28/29/23 
f 28/29/23 27/28/22 29/31/25 
f 30/32/26 20/30/24 28/29/23 
f 31/33/27 28/29/23 29/31/25 
f 28/29/23 31/33/27 30/32/26 
f 30/32/26 31/33/27 32/34/28 
f 10/35/29 33/36/30 11/37/31 
f 34/38/32 11/37/31 33/36/30 
f 11/37/31 34/38/32 9/39/33 
f 33/36/30 35/40/34 34/38/32 
f 34/38/32 36/41/35 9/39/33 
f 37/42/36 34/38/32 35/40/34 
f 34/38/32 37/42/36 36/41/35 
f 38/43/37 37/42/36 35/40/34 
f 39/44/38 36/41/35 37/42/36 
f 39/44/38 37/42/36 38/43/37 
f 40/45/39 9/39/33 36/41/35 
f 9/39/33 40/45/39 12/46/40 
f 14/47/41 12/46/40 40/45/39 
f 41/48/42 36/41/35 39/44/38 
f 36/41/35 41/48/42 40/45/39 
f 38/43/37 42/49/43 39/44/38 
f 39/44/38 42/49/43 41/48/42 
f 35/40/34 43/50/44 38/43/37 
f 43/50/44 42/49/43 38/43/37 
f 35/40/34 8/51/8 43/50/44 
f 43/50/44 8/51/8 7/52/7 
f 7/52/7 44/53/45 43/50/44 
f 42/49/43 43/50/44 44/53/45 
f 44/53/45 7/52/7 5/54/5 
f 44/53/45 45/55/46 42/49/43 
f 45/55/46 41/48/42 42/49/43 
f 5/54/5 46/56/47 44/53/45 
f 46/56/47 45/55/46 44/53/45 
f 3/57/3 46/56/47 5/54/5 
f 47/58/48 41/48/42 45/55/46 
f 47/58/48 40/45/39 41/48/42 
f 46/56/47 48/59/49 45/55/46 
f 45/55/46 48/59/49 47/58/48 
f 3/57/3 49/60/50 46/56/47 
f 49/60/50 48/59/49 46/56/47 
f 3/57/3 2/61/2 49/60/50 
f 50/62/51 47/58/48 48/59/49 
f 50/62/51 40/45/39 47/58/48 
f 49/60/50 51/63/52 48/59/49 
f 48/59/49 51/63/52 50/62/51 
f 2/61/2 52/64/53 49/60/50 
f 52/64/53 51/63/52 49/60/50 
f 2/61/2 53/65/54 52/64/53 
f 54/66/55 50/62/51 51/63/52 
f 52/64/53 54/66/55 51/63/52 
f 40/45/39 50/62/51 55/67/56 
f 54/66/55 55/67/56 50/62/51 
f 40/45/39 55/67/56 14/47/41 
f 55/67/56 15/68/57 14/47/41 
f 53/65/54 56/69/58 52/64/53 
f 56/69/58 54/66/55 52/64/53 
f 57/70/59 56/69/58 53/65/54 
f 56/69/58 57/70/59 58/71/60 
f 58/71/60 54/66/55 56/69/58 
f 55/67/56 54/66/55 59/72/61 
f 54/66/55 58/71/60 59/72/61 
f 15/68/57 55/67/56 59/72/61 
f 58/71/60 60/73/62 59/72/61 
f 60/73/62 15/68/57 59/72/61 
f 61/74/63 60/73/62 58/71/60 
f 60/73/62 17/75/64 15/68/57 
f 61/74/63 62/76/65 60/73/62 
f 62/76/65 17/75/64 60/73/62 
f 62/76/65 61/74/63 63/77/66 
f 17/75/64 62/76/65 18/78/67 
f 64/79/68 62/76/65 63/77/66 
f 18/78/67 25/80/69 19/81/70 
f 64/79/68 65/82/71 62/76/65 
f 18/78/67 62/76/65 65/82/71 
f 18/78/67 65/82/71 25/80/69 
f 65/82/71 64/79/68 22/83/72 
f 22/83/72 25/80/69 65/82/71 
f 30/84/73 16/85/74 20/86/75 
f 30/84/73 66/87/76 16/85/74 
f 66/87/76 13/88/77 16/85/74 
f 13/88/77 66/87/76 10/89/78 
f 10/89/78 66/87/76 33/90/79 
f 35/91/80 33/90/79 66/87/76 
f 32/92/81 66/87/76 30/84/73 
f 66/87/76 67/93/82 35/91/80 
f 66/87/76 32/92/81 67/93/82 
f 8/94/83 35/91/80 67/93/82 
f 68/95/84 8/94/83 67/93/82 
f 67/93/82 69/96/85 68/95/84 
f 32/92/81 69/96/85 67/93/82 
f 70/97/86 68/95/84 69/96/85 
f 69/96/85 71/98/87 70/97/86 
f 69/96/85 32/92/81 71/98/87 
f 71/98/87 72/99/88 70/97/86 
f 71/98/87 32/92/81 73/100/89 
f 32/92/81 31/101/90 73/100/89 
f 31/101/90 74/102/91 73/100/89 
f 71/98/87 75/103/92 72/99/88 
f 74/102/91 72/99/88 75/103/92 
f 71/98/87 73/100/89 75/103/92 
f 74/102/91 75/103/92 73/100/89 
f 29/104/93 74/105/94 31/106/95 
f 76/107/96 74/105/94 29/104/93 
f 29/104/93 27/108/97 76/107/96 
f 77/109/98 74/105/94 76/107/96 
f 74/105/94 77/109/98 72/110/99 
f 78/111/100 76/107/96 27/108/97 
f 27/108/97 24/112/101 78/111/100 
f 76/107/96 79/113/102 77/109/98 
f 79/113/102 76/107/96 78/111/100 
f 80/114/103 78/111/100 24/112/101 
f 80/114/103 24/112/101 21/115/104 
f 81/116/105 78/111/100 80/114/103 
f 78/111/100 81/116/105 79/113/102 
f 21/115/104 82/117/106 80/114/103 
f 81/116/105 80/114/103 82/117/106 
f 82/117/106 21/115/104 23/118/107 
f 22/119/108 64/120/109 23/118/107 
f 64/120/109 83/121/110 23/118/107 
f 82/117/106 23/118/107 83/121/110 
f 63/122/111 83/121/110 64/120/109 
f 84/123/112 82/117/106 83/121/110 
f 83/121/110 63/122/111 84/123/112 
f 82/117/106 84/123/112 85/124/113 
f 81/116/105 82/117/106 85/124/113 
f 86/125/114 84/123/112 63/122/111 
f 85/124/113 84/123/112 86/125/114 
f 86/125/114 63/122/111 61/126/115 
f 58/127/116 86/125/114 61/126/115 
f 81/116/105 85/124/113 87/128/117 
f 86/125/114 87/128/117 85/124/113 
f 86/125/114 58/127/116 88/129/118 
f 57/130/119 88/129/118 58/127/116 
f 87/128/117 86/125/114 89/131/120 
f 89/131/120 86/125/114 88/129/118 
f 88/129/118 57/130/119 90/132/121 
f 88/129/118 90/132/121 89/131/120 
f 57/130/119 91/133/122 90/132/121 
f 90/132/121 91/133/122 89/131/120 
f 57/130/119 53/134/123 91/133/122 
f 89/131/120 92/135/124 87/128/117 
f 91/133/122 92/135/124 89/131/120 
f 93/136/125 81/116/105 87/128/117 
f 92/135/124 93/136/125 87/128/117 
f 79/113/102 81/116/105 93/136/125 
f 91/133/122 94/137/126 92/135/124 
f 93/136/125 92/135/124 94/137/126 
f 94/137/126 91/133/122 53/134/123 
f 79/113/102 93/136/125 95/138/127 
f 95/138/127 93/136/125 94/137/126 
f 96/139/128 94/137/126 53/134/123 
f 95/138/127 94/137/126 96/139/128 
f 53/134/123 2/2/129 96/139/128 
f 97/140/130 79/113/102 95/138/127 
f 97/140/130 77/109/98 79/113/102 
f 95/138/127 96/139/128 98/141/131 
f 97/140/130 95/138/127 98/141/131 
f 96/139/128 2/2/129 98/141/131 
f 99/142/132 77/109/98 97/140/130 
f 99/142/132 72/110/99 77/109/98 
f 97/140/130 100/143/133 99/142/132 
f 98/141/131 100/143/133 97/140/130 
f 99/142/132 101/144/134 72/110/99 
f 100/143/133 101/144/134 99/142/132 
f 70/145/135 72/110/99 101/144/134 
f 102/146/136 101/144/134 100/143/133 
f 98/141/131 102/146/136 100/143/133 
f 103/147/137 70/145/135 101/144/134 
f 102/146/136 103/147/137 101/144/134 
f 70/145/135 103/147/137 68/148/138 
f 103/147/137 8/8/139 68/148/138 
f 8/8/139 103/147/137 6/6/140 
f 6/6/140 103/147/137 104/149/141 
f 4/4/142 6/6/140 104/149/141 
f 104/149/141 103/147/137 105/150/143 
f 105/150/143 4/4/142 104/149/141 
f 102/146/136 105/150/143 103/147/137 
f 1/1/144 4/4/142 105/150/143 
f 106/151/145 105/150/143 102/146/136 
f 1/1/144 105/150/143 106/151/145 
f 102/146/136 98/141/131 106/151/145 
f 107/152/146 1/1/144 106/151/145 
f 106/151/145 98/141/131 107/152/146 
f 2/2/129 1/1/144 107/152/146 
f 2/2/129 107/152/146 98/141/131 
# 0 polygons - 210 triangles

