# 3ds Max Wavefront OBJ Exporter v0.97b - (c)2007 guruware
# File Created: 09.05.2023 17:39:29

mtllib Ruins_Trim_Cap_4M_B.mtl

#
# object Dn_HL_Ruins_Trim_Cap_4M_B
#

v  -1.985589 -1.308404 0.214175
v  -1.984118 -1.311783 0.226520
v  -2.015624 -1.311787 0.226518
v  -2.014155 -1.308408 0.214176
v  -1.020002 -0.000213 0.002562
v  -1.983688 -0.000006 -1.073130
v  -1.987548 0.015715 -1.077438
v  -1.020007 1.249998 0.002562
v  -1.987546 2.484280 -1.077438
v  -1.983687 2.500001 -1.073130
v  -1.020007 2.500210 0.002562
v  -1.020007 1.249998 1.834996
v  -1.020002 -0.334364 0.790605
v  -0.978351 -0.380350 0.796989
v  -0.978356 1.249998 1.871694
v  -0.041650 -0.334364 0.790605
v  -0.041650 1.249998 1.834996
v  0.000001 -0.233869 0.782174
v  0.000000 1.249998 1.760320
v  -0.978351 -0.036501 -0.013927
v  -0.041650 -0.000213 0.002562
v  0.000000 0.079086 0.044115
v  -0.000001 2.733866 0.782174
v  -0.041651 2.834361 0.790605
v  -0.978353 2.880347 0.796989
v  -1.020003 2.834361 0.790605
v  0.000000 2.420910 0.044115
v  -0.041650 2.500210 0.002562
v  -0.978356 2.536497 -0.013927
v  -4.000285 1.249998 1.750418
v  -4.000282 -0.220545 0.781056
v  -3.958632 -0.334365 0.790605
v  -3.958635 1.249998 1.834996
v  -3.021933 -0.395679 0.799118
v  -3.021933 1.249998 1.883927
v  -2.980283 -0.334364 0.790605
v  -2.980283 1.249998 1.834996
v  -4.000282 0.089601 0.049625
v  -3.958632 -0.000214 0.002562
v  -3.021932 -0.048596 -0.019423
v  -2.980281 -0.000213 0.002562
v  -2.980284 2.834360 0.790605
v  -3.021934 2.895675 0.799118
v  -3.958633 2.834360 0.790605
v  -4.000284 2.720541 0.781056
v  -2.980284 2.500210 0.002562
v  -3.021934 2.548593 -0.019423
v  -3.958636 2.500209 0.002562
v  -4.000286 2.410395 0.049625
v  0.000000 1.249998 0.044115
v  -2.020081 -0.564281 -0.292243
v  -2.016054 -0.000006 -1.073135
v  -1.979661 -0.564276 -0.292241
v  -4.000285 1.249998 0.049625
v  -0.041650 1.249998 0.002562
v  -0.978356 1.249998 -0.013927
v  -2.980283 1.249998 0.002562
v  -3.021933 1.249998 -0.019423
v  -3.958635 1.249998 0.002562
v  -1.964837 -0.824314 0.687936
v  -2.044372 -0.792208 0.653976
v  -2.014317 -0.965820 0.440921
v  -1.985430 -0.965819 0.440921
v  -1.752725 -0.696821 0.602630
v  -1.966382 -0.727211 0.739211
v  -1.999872 -0.433183 0.775540
v  -2.048064 -0.720216 0.714636
v  -2.247048 -0.696877 0.602602
v  -2.012195 0.015713 -1.077440
v  -2.012193 2.484282 -1.077440
v  -2.016053 2.500001 -1.073135
v  -1.984119 3.811779 0.226520
v  -1.985590 3.808401 0.214175
v  -2.015625 3.811782 0.226518
v  -1.979661 3.064272 -0.292241
v  -2.014155 3.808404 0.214176
v  -2.020081 3.064277 -0.292243
v  -1.999870 0.688614 1.482613
v  -1.313449 1.249998 1.834996
v  -1.893295 1.216308 2.742856
v  -1.893295 1.265481 2.742856
v  -1.999870 1.811389 1.482625
v  -2.132614 1.216566 2.713435
v  -2.662685 1.249998 1.834996
v  -2.132614 1.265222 2.713435
v  -2.020505 3.458333 0.445350
v  -2.242475 3.196760 0.599567
v  -2.026894 3.303108 0.700344
v  -1.991402 3.458644 0.445166
v  -2.022834 3.247448 0.731069
v  -1.999872 2.944340 0.769138
v  -1.965356 3.295056 0.691661
v  -1.757304 3.196699 0.599598
v  -1.972230 3.231128 0.722292
# 94 vertices

vn 0.000124 -0.964522 -0.264003
vn 0.000130 -0.964526 -0.263989
vn 0.000118 -0.964518 -0.264017
vn 0.744819 0.000003 -0.667266
vn 0.744820 0.000026 -0.667266
vn 0.744820 0.000012 -0.667265
vn 0.744821 0.000001 -0.667264
vn 0.744832 0.000017 -0.667252
vn 0.744831 0.000016 -0.667253
vn 0.744822 0.000000 -0.667264
vn -0.592571 -0.443334 0.672544
vn -0.592572 -0.443334 0.672543
vn -0.222307 -0.536598 0.814028
vn -0.253765 -0.532354 0.807590
vn 0.318988 -0.521617 0.791304
vn 0.395564 -0.505480 0.766824
vn 0.831529 -0.305720 0.463784
vn 0.831530 -0.305719 0.463783
vn -0.438337 -0.816394 0.375982
vn -0.691272 -0.665259 -0.282087
vn -0.350509 -0.862247 -0.365615
vn -0.298456 -0.878693 -0.372589
vn 0.542526 -0.773385 -0.327935
vn 0.465017 -0.815056 -0.345605
vn 0.906147 -0.389403 -0.165117
vn 0.906144 -0.389408 -0.165120
vn 0.831529 0.305720 0.463783
vn 0.831528 0.305721 0.463784
vn 0.318988 0.521618 0.791304
vn 0.395564 0.505480 0.766824
vn -0.222307 0.536598 0.814028
vn -0.253765 0.532354 0.807590
vn -0.592572 0.443333 0.672543
vn -0.592571 0.443334 0.672544
vn 0.906144 0.389409 -0.165119
vn 0.906144 0.389408 -0.165118
vn 0.542523 0.773387 -0.327935
vn 0.465016 0.815057 -0.345605
vn -0.350509 0.862247 -0.365613
vn -0.298455 0.878694 -0.372587
vn -0.025716 0.869494 -0.493274
vn 0.048400 0.919574 -0.389923
vn -0.861338 -0.279606 0.424166
vn -0.861339 -0.279606 0.424165
vn -0.334502 -0.518666 0.786826
vn -0.416642 -0.500325 0.759002
vn 0.251881 -0.532624 0.808002
vn 0.296249 -0.525664 0.797442
vn 0.700238 -0.392914 0.596058
vn 0.700240 -0.392913 0.596056
vn -0.924559 -0.350806 -0.148751
vn -0.566693 -0.758553 -0.321646
vn -0.484842 -0.805205 -0.341428
vn 0.409138 -0.840071 -0.356211
vn 0.338481 -0.866310 -0.367338
vn 0.786979 -0.568025 -0.240856
vn 0.513549 -0.753247 0.410957
vn 0.700239 0.392913 0.596057
vn 0.700240 0.392913 0.596056
vn 0.251881 0.532625 0.808002
vn 0.296248 0.525664 0.797443
vn -0.334502 0.518665 0.786825
vn -0.416643 0.500325 0.759002
vn -0.861339 0.279605 0.424166
vn 0.023043 0.920409 -0.390277
vn 0.097452 0.861253 -0.498744
vn 0.409138 0.840071 -0.356212
vn 0.338482 0.866310 -0.367338
vn -0.566694 0.758553 -0.321644
vn -0.484841 0.805206 -0.341427
vn -0.924558 0.350807 -0.148748
vn -0.924559 0.350806 -0.148748
vn 1.000000 0.000000 -0.000000
vn 1.000000 0.000000 -0.000001
vn 1.000000 0.000000 0.000000
vn 1.000000 0.000000 0.000001
vn -0.757731 -0.600802 -0.254715
vn -0.757719 -0.600800 -0.254756
vn -0.126452 -0.416160 -0.900456
vn -0.473320 -0.630079 -0.615605
vn -0.285087 -0.661644 -0.693507
vn -0.210219 -0.791907 -0.573317
vn 0.473464 -0.629982 -0.615593
vn 0.285329 -0.661596 -0.693454
vn 0.210364 -0.791882 -0.573298
vn 0.186408 -0.400779 -0.897011
vn 0.757899 -0.600608 -0.254674
vn 0.757900 -0.600604 -0.254681
vn -1.000000 -0.000001 0.000000
vn -1.000000 -0.000002 -0.000001
vn -1.000000 -0.000002 -0.000000
vn -1.000000 -0.000000 0.000000
vn -1.000000 0.000000 0.000002
vn -1.000000 -0.000001 0.000004
vn 0.706285 0.000000 -0.707928
vn 0.706290 0.000000 -0.707923
vn 0.226434 0.000000 -0.974027
vn 0.390264 0.000000 -0.920703
vn -0.126394 -0.000001 -0.991980
vn -0.178711 -0.000000 -0.983902
vn -0.126394 0.000000 -0.991980
vn -0.368088 -0.000001 -0.929791
vn -0.368088 0.000000 -0.929791
vn 0.466805 0.000000 -0.884360
vn 0.145912 0.000000 -0.989298
vn 0.229052 0.000000 -0.973414
vn -0.237408 -0.000000 -0.971410
vn -0.421323 -0.000001 -0.906911
vn -0.748861 -0.000001 -0.662727
vn -0.237409 -0.000000 -0.971410
vn -0.748860 -0.000001 -0.662728
vn -0.748859 -0.000001 -0.662729
vn 0.060961 -0.693614 0.717763
vn -0.474216 -0.662352 0.580007
vn -0.287862 -0.801705 0.523836
vn 0.187830 -0.858937 0.476390
vn 0.600830 -0.411185 0.685514
vn 0.119265 -0.314110 0.941865
vn -0.007759 -0.096005 0.995351
vn -0.395598 -0.377073 0.837448
vn -0.503049 -0.461675 0.730615
vn -0.482626 -0.119174 -0.867680
vn -0.744635 -0.000001 -0.667472
vn -0.744634 -0.000000 -0.667473
vn -0.371261 -0.085193 -0.924612
vn 0.000115 -0.264231 -0.964459
vn 0.000093 -0.142490 -0.989796
vn -0.371247 0.085182 -0.924618
vn -0.744633 -0.000001 -0.667474
vn 0.000093 0.142490 -0.989796
vn -0.482635 0.119141 -0.867680
vn 0.000115 0.264234 -0.964459
vn 0.465596 0.837925 -0.284783
vn 0.343762 0.772948 -0.533273
vn -0.465352 0.838046 -0.284828
vn 0.285331 0.661596 -0.693453
vn 0.210366 0.791880 -0.573299
vn -0.343555 0.773021 -0.533300
vn -0.285086 0.661645 -0.693507
vn -0.210218 0.791905 -0.573318
vn 0.032195 -0.937982 0.345186
vn 0.858775 0.004140 0.512336
vn 0.362475 -0.479281 0.799313
vn 0.361615 0.474001 0.802844
vn -0.003215 0.933698 0.358047
vn -0.463424 -0.482573 0.743210
vn -0.871720 0.004437 0.489984
vn -0.462988 0.477056 0.747034
vn -0.291160 0.820398 0.492111
vn -0.578590 0.421233 0.698424
vn -0.202096 0.672904 0.711588
vn 0.177780 0.841789 0.509691
vn -0.161441 0.294767 0.941833
vn 0.003361 0.098040 0.995177
vn 0.381241 0.617383 0.688109
vn 0.555687 0.433860 0.709209
vn 0.376514 0.232372 0.896794
vn -0.011400 -0.526703 0.849973
vn 0.011406 -0.526703 0.849973
vn 0.024076 -0.528420 0.848642
vn -0.024056 -0.528422 0.848641
vn 0.051668 -0.540093 0.840018
vn -0.003246 -0.532360 0.846512
vn -0.051642 -0.540096 0.840017
vn 0.013202 0.003364 0.999907
vn -0.010033 -0.538554 0.842532
vn -0.005587 0.004220 0.999976
vn -0.000001 -0.000010 1.000000
vn -0.004579 0.010493 0.999934
vn -0.002027 0.543673 0.839295
vn -0.034125 0.536074 0.843481
vn 0.033680 0.536612 0.843157
vn -0.042891 0.533854 0.844488
vn 0.002065 0.532354 0.846520
vn -0.023398 0.527148 0.849451
vn 0.044048 0.534543 0.843993
vn -0.011207 0.526484 0.850111
vn 0.022157 0.526822 0.849687
vn 0.011284 0.526209 0.850280
# 179 vertex normals

vt 0.939453 0.286621 0.286621
vt 0.939453 0.287109 0.287109
vt 0.937988 0.287109 0.287109
vt 0.937988 0.286621 0.286621
vt 0.791016 0.174805 0.174805
vt 0.789551 0.117188 0.117188
vt 0.790039 0.116699 0.116699
vt 0.840820 0.173828 0.173828
vt 0.888672 0.114258 0.114258
vt 0.889160 0.114746 0.114746
vt 0.890625 0.172363 0.172363
vt 0.474854 0.239746 0.239746
vt 0.474854 0.117676 0.117676
vt 0.477539 0.117676 0.117676
vt 0.477539 0.239746 0.239746
vt 0.537598 0.117676 0.117676
vt 0.537598 0.239746 0.239746
vt 0.540527 0.117676 0.117676
vt 0.540527 0.239746 0.239746
vt 0.373779 0.207520 0.207520
vt 0.373779 0.152344 0.152344
vt 0.376465 0.152344 0.152344
vt 0.376465 0.207520 0.207520
vt 0.436768 0.152344 0.152344
vt 0.436768 0.207520 0.207520
vt 0.439453 0.152344 0.152344
vt 0.439453 0.207520 0.207520
vt 0.549805 0.305664 0.305664
vt 0.549805 0.183594 0.183594
vt 0.552246 0.183594 0.183594
vt 0.552246 0.305664 0.305664
vt 0.612793 0.183594 0.183594
vt 0.612793 0.305664 0.305664
vt 0.615234 0.183594 0.183594
vt 0.615234 0.305664 0.305664
vt 0.307861 0.207520 0.207520
vt 0.307861 0.152344 0.152344
vt 0.310547 0.152344 0.152344
vt 0.310547 0.207520 0.207520
vt 0.370850 0.152344 0.152344
vt 0.370850 0.207520 0.207520
vt 0.373535 0.152344 0.152344
vt 0.373535 0.207520 0.207520
vt 0.903320 0.501709 0.501709
vt 0.903320 0.426270 0.426270
vt 0.904785 0.426270 0.426270
vt 0.904785 0.501709 0.501709
vt 0.942383 0.426270 0.426270
vt 0.942383 0.501709 0.501709
vt 0.943848 0.426270 0.426270
vt 0.943848 0.501709 0.501709
vt 0.840332 0.499512 0.499512
vt 0.840332 0.465332 0.465332
vt 0.841797 0.465332 0.465332
vt 0.841797 0.499512 0.499512
vt 0.879395 0.465332 0.465332
vt 0.879395 0.499512 0.499512
vt 0.881348 0.465332 0.465332
vt 0.881348 0.499512 0.499512
vt 0.949707 0.484863 0.484863
vt 0.949707 0.409180 0.409180
vt 0.951172 0.409180 0.409180
vt 0.951172 0.484863 0.484863
vt 0.988770 0.409180 0.409180
vt 0.988770 0.484863 0.484863
vt 0.990234 0.409180 0.409180
vt 0.990234 0.484863 0.484863
vt 0.799316 0.499512 0.499512
vt 0.799316 0.465332 0.465332
vt 0.801270 0.465332 0.465332
vt 0.801270 0.499512 0.499512
vt 0.838379 0.465332 0.465332
vt 0.838379 0.499512 0.499512
vt 0.268066 0.065918 0.065918
vt 0.290527 0.015625 0.015625
vt 0.370850 0.017578 0.017578
vt 0.368408 0.135254 0.135254
vt 0.471680 0.070313 0.070313
vt 0.451416 0.019043 0.019043
vt 0.895996 0.276367 0.276367
vt 0.895996 0.238770 0.238770
vt 0.937988 0.245605 0.245605
vt 0.937988 0.201172 0.201172
vt 0.939941 0.245605 0.245605
vt 0.939453 0.201172 0.201172
vt 0.981934 0.238770 0.238770
vt 0.981934 0.276855 0.276855
vt 0.848633 0.385742 0.385742
vt 0.897461 0.375000 0.375000
vt 0.917480 0.402832 0.402832
vt 0.864746 0.457031 0.457031
vt 0.793945 0.430176 0.430176
vt 0.800293 0.396484 0.396484
vt 0.615234 0.102539 0.102539
vt 0.615234 0.183105 0.183105
vt 0.612793 0.183105 0.183105
vt 0.612793 0.102539 0.102539
vt 0.615234 0.022461 0.022461
vt 0.552246 0.183105 0.183105
vt 0.612793 0.022461 0.022461
vt 0.552246 0.102539 0.102539
vt 0.549805 0.183105 0.183105
vt 0.552246 0.022461 0.022461
vt 0.549805 0.102539 0.102539
vt 0.549805 0.022461 0.022461
vt 0.990234 0.358887 0.358887
vt 0.990234 0.408691 0.408691
vt 0.988770 0.408691 0.408691
vt 0.988770 0.358887 0.358887
vt 0.990234 0.309082 0.309082
vt 0.951172 0.408691 0.408691
vt 0.988770 0.309082 0.309082
vt 0.951172 0.358887 0.358887
vt 0.949707 0.408691 0.408691
vt 0.951172 0.309082 0.309082
vt 0.949707 0.358887 0.358887
vt 0.949707 0.309082 0.309082
vt 0.779297 0.228027 0.228027
vt 0.778809 0.226563 0.226563
vt 0.810059 0.206543 0.206543
vt 0.811035 0.207520 0.207520
vt 0.817871 0.231934 0.231934
vt 0.779785 0.229980 0.229980
vt 0.811523 0.256836 0.256836
vt 0.777344 0.230469 0.230469
vt 0.779297 0.230957 0.230957
vt 0.787598 0.267578 0.267578
vt 0.762695 0.265625 0.265625
vt 0.885742 0.030273 0.030273
vt 0.889160 0.087891 0.087891
vt 0.839355 0.090820 0.090820
vt 0.885254 0.029785 0.029785
vt 0.885742 0.028809 0.028809
vt 0.885254 0.028809 0.028809
vt 0.786621 0.035645 0.035645
vt 0.789551 0.093262 0.093262
vt 0.786621 0.034668 0.034668
vt 0.786133 0.035645 0.035645
vt 0.786133 0.034668 0.034668
vt 0.938477 0.188477 0.188477
vt 0.895996 0.181152 0.181152
vt 0.895996 0.142090 0.142090
vt 0.938477 0.187988 0.187988
vt 0.939453 0.188477 0.188477
vt 0.937988 0.147461 0.147461
vt 0.938477 0.102051 0.102051
vt 0.939453 0.187988 0.187988
vt 0.981934 0.181152 0.181152
vt 0.981934 0.142090 0.142090
vt 0.939941 0.147461 0.147461
vt 0.939453 0.102051 0.102051
vt 0.968262 0.098633 0.098633
vt 0.916016 0.081055 0.081055
vt 0.947754 0.059570 0.059570
vt 0.936523 0.054688 0.054688
vt 0.895996 0.030273 0.030273
vt 0.942871 0.040039 0.040039
vt 0.981934 0.033691 0.033691
vt 0.938965 0.000977 0.000977
vt 0.937012 0.038086 0.038086
vt 0.838867 0.237305 0.237305
vt 0.858398 0.253418 0.253418
vt 0.827637 0.263184 0.263184
vt 0.815430 0.291504 0.291504
vt 0.813965 0.290039 0.290039
vt 0.832031 0.265625 0.265625
vt 0.863770 0.280762 0.280762
vt 0.828125 0.268555 0.268555
vt 0.841309 0.295898 0.295898
vt 0.832520 0.267578 0.267578
vt 0.741211 0.001953 0.001953
vt 0.742676 0.001953 0.001953
vt 0.743164 0.018555 0.018555
vt 0.782227 0.046387 0.046387
vt 0.741699 0.018555 0.018555
vt 0.752441 0.030762 0.030762
vt 0.704102 0.048340 0.048340
vt 0.743164 0.043457 0.043457
vt 0.732910 0.031250 0.031250
vt 0.783691 0.122559 0.122559
vt 0.744141 0.096680 0.096680
vt 0.705078 0.124023 0.124023
vt 0.771973 0.122559 0.122559
vt 0.717773 0.123535 0.123535
vt 0.745117 0.149414 0.149414
vt 0.706543 0.199707 0.199707
vt 0.784668 0.198242 0.198242
vt 0.736328 0.215332 0.215332
vt 0.746094 0.203125 0.203125
vt 0.745605 0.227539 0.227539
vt 0.755859 0.214844 0.214844
vt 0.746094 0.244141 0.244141
vt 0.746582 0.227539 0.227539
vt 0.747559 0.244141 0.244141
# 194 texture coords

g Dn_HL_Ruins_Trim_Cap_4M_B
usemtl Dn_HL_Inst_Ruins_Trim_Cap_A
s 1
f 1/1/1 2/2/2 3/3/1 
f 3/3/1 4/4/3 1/1/1 
f 5/5/4 6/6/5 7/7/6 
f 7/7/6 8/8/7 5/5/4 
f 9/9/8 8/8/7 7/7/6 
f 8/8/7 9/9/8 10/10/9 
f 10/10/9 11/11/10 8/8/7 
f 12/12/11 13/13/12 14/14/13 
f 14/14/13 15/15/14 12/12/11 
f 15/15/14 14/14/13 16/16/15 
f 16/16/15 17/17/16 15/15/14 
f 17/17/16 16/16/15 18/18/17 
f 18/18/17 19/19/18 17/17/16 
f 13/20/19 5/21/20 20/22/21 
f 20/22/21 14/23/22 13/20/19 
f 14/23/22 20/22/21 21/24/23 
f 21/24/23 16/25/24 14/23/22 
f 16/25/24 21/24/23 22/26/25 
f 22/26/25 18/27/26 16/25/24 
f 19/28/27 23/29/28 24/30/29 
f 24/30/29 17/31/30 19/28/27 
f 17/31/30 24/30/29 25/32/31 
f 25/32/31 15/33/32 17/31/30 
f 15/33/32 25/32/31 26/34/33 
f 26/34/33 12/35/34 15/33/32 
f 23/36/35 27/37/36 28/38/37 
f 28/38/37 24/39/38 23/36/35 
f 24/39/38 28/38/37 29/40/39 
f 29/40/39 25/41/40 24/39/38 
f 25/41/40 29/40/39 11/42/41 
f 11/42/41 26/43/42 25/41/40 
f 30/44/43 31/45/44 32/46/45 
f 32/46/45 33/47/46 30/44/43 
f 33/47/46 32/46/45 34/48/47 
f 34/48/47 35/49/48 33/47/46 
f 35/49/48 34/48/47 36/50/49 
f 36/50/49 37/51/50 35/49/48 
f 31/52/51 38/53/51 39/54/52 
f 39/54/52 32/55/53 31/52/51 
f 32/55/53 39/54/52 40/56/54 
f 40/56/54 34/57/55 32/55/53 
f 34/57/55 40/56/54 41/58/56 
f 41/58/56 36/59/57 34/57/55 
f 37/60/58 42/61/59 43/62/60 
f 43/62/60 35/63/61 37/60/58 
f 35/63/61 43/62/60 44/64/62 
f 44/64/62 33/65/63 35/63/61 
f 33/65/63 44/64/62 45/66/64 
f 45/66/64 30/67/64 33/65/63 
f 42/68/65 46/69/66 47/70/67 
f 47/70/67 43/71/68 42/68/65 
f 43/71/68 47/70/67 48/72/69 
f 48/72/69 44/73/70 43/71/68 
f 44/73/70 48/72/69 49/53/71 
f 49/53/71 45/52/72 44/73/70 
f 18/74/73 22/75/74 50/76/73 
f 50/76/73 19/77/75 18/74/73 
f 23/78/75 19/77/75 50/76/73 
f 50/76/73 27/79/76 23/78/75 
f 3/3/77 36/80/78 41/81/79 
f 41/81/79 4/4/80 3/3/77 
f 41/81/79 51/82/81 4/4/80 
f 52/83/82 51/82/81 41/81/79 
f 1/1/83 4/4/80 51/82/81 
f 53/84/84 51/82/81 52/83/82 
f 51/82/81 53/84/84 1/1/83 
f 52/83/82 6/85/85 53/84/84 
f 6/85/85 5/86/86 53/84/84 
f 53/84/84 5/86/86 1/1/83 
f 1/1/83 5/86/86 13/87/87 
f 13/87/87 2/2/88 1/1/83 
f 54/88/89 38/89/90 31/90/91 
f 31/90/91 30/91/92 54/88/89 
f 54/88/89 30/91/92 45/92/93 
f 45/92/93 49/93/94 54/88/89 
f 50/94/95 22/95/96 21/96/97 
f 21/96/97 55/97/98 50/94/95 
f 27/98/95 50/94/95 55/97/98 
f 55/97/98 21/96/97 20/99/99 
f 55/97/98 28/100/97 27/98/95 
f 20/99/99 56/101/100 55/97/98 
f 28/100/97 55/97/98 56/101/100 
f 56/101/100 20/99/99 5/102/86 
f 56/101/100 29/103/101 28/100/97 
f 5/102/86 8/104/102 56/101/100 
f 29/103/101 56/101/100 8/104/102 
f 8/104/102 11/105/103 29/103/101 
f 57/106/104 41/107/79 40/108/105 
f 40/108/105 58/109/106 57/106/104 
f 46/110/104 57/106/104 58/109/106 
f 58/109/106 40/108/105 39/111/107 
f 58/109/106 47/112/105 46/110/104 
f 39/111/107 59/113/108 58/109/106 
f 47/112/105 58/109/106 59/113/108 
f 59/113/108 39/111/107 38/114/109 
f 59/113/108 48/115/110 47/112/105 
f 38/114/109 54/116/111 59/113/108 
f 48/115/110 59/113/108 54/116/111 
f 54/116/111 49/117/112 48/115/110 
f 60/118/113 61/119/114 62/120/115 
f 62/120/115 63/121/116 60/118/113 
f 63/121/116 64/122/117 60/118/113 
f 65/123/118 60/118/113 64/122/117 
f 64/122/117 66/124/119 65/123/118 
f 61/125/114 60/118/113 65/123/118 
f 66/124/119 67/126/120 65/123/118 
f 65/123/118 67/126/120 61/125/114 
f 66/124/119 68/127/121 67/126/120 
f 68/127/121 61/125/114 67/126/120 
f 68/127/121 62/128/115 61/125/114 
f 52/129/122 41/130/123 57/131/124 
f 57/131/124 69/132/125 52/129/122 
f 6/133/126 52/129/122 69/132/125 
f 69/132/125 7/134/127 6/133/126 
f 57/131/124 70/135/128 69/132/125 
f 7/134/127 69/132/125 70/135/128 
f 70/135/128 57/131/124 46/136/129 
f 70/135/128 9/137/130 7/134/127 
f 46/136/129 71/138/131 70/135/128 
f 10/139/132 9/137/130 70/135/128 
f 70/135/128 71/138/131 10/139/132 
f 72/140/133 26/141/42 11/142/41 
f 11/142/41 73/143/134 72/140/133 
f 74/144/135 72/140/133 73/143/134 
f 75/145/136 73/143/134 11/142/41 
f 10/146/137 75/145/136 11/142/41 
f 73/143/134 76/147/138 74/144/135 
f 76/147/138 73/143/134 75/145/136 
f 42/148/65 74/144/135 76/147/138 
f 76/147/138 46/149/66 42/148/65 
f 77/150/139 75/145/136 10/146/137 
f 75/145/136 77/150/139 76/147/138 
f 46/149/66 76/147/138 77/150/139 
f 10/146/137 71/151/140 77/150/139 
f 71/151/140 46/149/66 77/150/139 
f 78/152/141 79/153/142 80/154/143 
f 79/153/142 81/155/144 80/154/143 
f 82/156/145 81/155/144 79/153/142 
f 83/157/146 80/154/143 81/155/144 
f 78/158/141 80/154/143 83/157/146 
f 84/159/147 78/158/141 83/157/146 
f 85/160/148 81/155/144 82/156/145 
f 84/159/147 85/160/148 82/156/145 
f 81/155/144 85/160/148 83/157/146 
f 83/157/146 85/160/148 84/159/147 
f 86/161/149 87/162/150 88/163/151 
f 89/164/152 86/165/149 88/163/151 
f 90/166/153 88/163/151 87/162/150 
f 87/162/150 91/167/154 90/166/153 
f 88/163/151 92/168/155 89/164/152 
f 92/168/155 88/163/151 90/166/153 
f 93/169/156 89/164/152 92/168/155 
f 91/167/154 94/170/157 90/166/153 
f 91/167/154 93/169/156 94/170/157 
f 90/166/153 94/170/157 92/168/155 
f 93/169/156 92/168/155 94/170/157 
f 3/171/158 2/172/159 63/173/160 
f 63/173/160 2/172/159 13/174/19 
f 63/173/160 62/175/161 3/171/158 
f 13/174/19 64/176/162 63/173/160 
f 36/177/57 3/171/158 62/175/161 
f 13/174/19 66/178/163 64/176/162 
f 62/175/161 68/179/164 36/177/57 
f 66/178/163 36/177/57 68/179/164 
f 13/174/19 12/180/165 66/178/163 
f 66/178/163 78/181/166 36/177/57 
f 12/180/165 78/181/166 66/178/163 
f 78/181/166 37/182/167 36/177/57 
f 12/180/165 79/183/168 78/181/166 
f 78/181/166 84/184/169 37/182/167 
f 79/183/168 12/180/165 82/185/170 
f 37/182/167 84/184/169 42/186/171 
f 84/184/169 82/185/170 42/186/171 
f 12/180/165 26/187/172 82/185/170 
f 82/185/170 87/188/173 42/186/171 
f 82/185/170 91/189/174 87/188/173 
f 26/187/172 91/189/174 82/185/170 
f 42/186/171 87/188/173 86/190/175 
f 26/187/172 93/191/176 91/189/174 
f 86/190/175 74/192/177 42/186/171 
f 89/193/178 93/191/176 26/187/172 
f 72/194/179 74/192/177 86/190/175 
f 26/187/172 72/194/179 89/193/178 
f 86/190/175 89/193/178 72/194/179 
# 0 polygons - 184 triangles

