# 3ds Max Wavefront OBJ Exporter v0.97b - (c)2007 guruware
# File Created: 15.05.2023 16:26:00

mtllib HUB_Main_Center_Platform_B.mtl

#
# object Dn_HUB_Main_Center_Platform_B
#

v  -10.496416 -12.687984 -1.336692
v  -10.709288 -12.945302 -0.888309
v  -10.369929 -12.779882 -1.072581
v  -10.529433 -12.975830 -0.728059
v  -13.127219 -15.868081 -0.893484
v  -13.100905 -16.091276 -0.728059
v  -13.098834 -16.092777 -2.901990
v  -13.127219 -15.868081 -2.901990
v  -10.657542 -12.882753 -2.901989
v  -10.496416 -12.687984 -2.901992
v  7.264403 -15.146930 -0.884298
v  7.011275 -14.899724 -1.072580
v  7.118904 -15.128445 -0.728059
v  7.120867 -14.847644 -1.336692
v  8.905631 -18.569035 -0.893483
v  8.839008 -18.783852 -0.728059
v  8.839008 -18.783852 -2.901990
v  8.905631 -18.569035 -2.901990
v  7.230177 -15.075563 -2.901990
v  7.120867 -14.847644 -2.901992
v  6.415070 -19.743553 -0.728059
v  5.166672 -15.901387 -0.728059
v  3.889961 -20.391890 -0.728059
v  3.132959 -16.423555 -0.728059
v  1.303506 -20.718636 -0.728059
v  1.049837 -16.686714 -0.728059
v  -1.303506 -20.718636 -0.728059
v  -1.049841 -16.686714 -0.728059
v  -3.889961 -20.391890 -0.728059
v  -3.132963 -16.423553 -0.728059
v  -6.415068 -19.743551 -0.728059
v  -5.166675 -15.901385 -0.728059
v  -8.839006 -18.783846 -0.728059
v  -7.118906 -15.128444 -0.728059
v  -11.123549 -17.527906 -0.728059
v  -8.958868 -14.116913 -0.728059
v  -11.123549 -17.527906 -2.901990
v  -8.839006 -18.783846 -2.901990
v  -6.415068 -19.743551 -2.901990
v  -3.889961 -20.391890 -2.901990
v  -1.303506 -20.718636 -2.901990
v  1.303506 -20.718636 -2.901990
v  3.889961 -20.391890 -2.901990
v  6.415070 -19.743553 -2.901990
v  5.088559 -15.660982 -1.072580
v  3.085593 -16.175255 -1.072580
v  1.033965 -16.434435 -1.072580
v  -1.033969 -16.434435 -1.072580
v  -3.085597 -16.175253 -1.072580
v  -5.088562 -15.660978 -1.072580
v  -7.011278 -14.899724 -1.072580
v  -8.823422 -13.903484 -1.072580
# 52 vertices

vn -0.210299 0.887698 0.409592
vn -0.211466 0.888203 0.407895
vn -0.210720 0.887881 0.408980
vn -0.211977 0.888422 0.407152
vn -0.550358 0.454256 0.700541
vn -0.549077 0.453003 0.702355
vn -0.549007 0.452934 0.702454
vn -0.550395 0.454293 0.700488
vn -0.993001 -0.118104 -0.000821
vn -0.992183 -0.124789 -0.000061
vn -0.993047 -0.117716 -0.000865
vn -0.992115 -0.125330 0.000000
vn -0.770513 0.637424 -0.000000
vn -0.770514 0.637423 -0.000000
vn -0.770514 0.637423 0.000000
vn -0.770513 0.637424 0.000000
vn 0.496153 0.787124 0.366426
vn 0.498283 0.787113 0.363548
vn 0.495057 0.787126 0.367901
vn 0.499175 0.787106 0.362339
vn 0.706418 0.336920 0.622462
vn 0.667792 0.314350 0.674713
vn 0.708341 0.338054 0.619655
vn 0.666783 0.313764 0.675983
vn 0.955120 -0.296218 0.000000
vn 0.901665 0.432435 0.000000
vn 0.901665 0.432436 0.000000
vn 0.000000 0.000000 1.000000
vn -0.587785 -0.809017 -0.000001
vn -0.587785 -0.809017 -0.000000
vn -0.535827 -0.844328 -0.000000
vn -0.535827 -0.844328 0.000000
vn -0.425779 -0.904827 0.000000
vn -0.309017 -0.951056 0.000000
vn -0.187381 -0.982287 0.000000
vn -0.062791 -0.998027 0.000000
vn 0.062790 -0.998027 0.000000
vn 0.187381 -0.982287 0.000000
vn 0.309016 -0.951057 0.000000
vn 0.368123 -0.929777 0.000000
vn -0.297009 0.750160 0.590801
vn -0.249149 0.766801 0.591559
vn -0.151078 0.791980 0.591560
vn -0.050626 0.804670 0.591560
vn 0.050626 0.804670 0.591560
vn 0.151079 0.791980 0.591560
vn 0.249148 0.766800 0.591560
vn 0.343290 0.729527 0.591559
vn 0.432016 0.680748 0.591561
vn 0.474236 0.652730 0.590800
# 50 vertex normals

vt -0.119385 0.202637 0.202637
vt -0.024155 0.162598 0.162598
vt -0.070374 0.202637 0.202637
vt 0.004578 0.202637 0.202637
vt 0.903809 0.162598 0.162598
vt 0.939453 0.202637 0.202637
vt 1.210938 0.202637 0.202637
vt 1.208008 0.162598 0.162598
vt -0.252197 0.162598 0.162598
vt -0.273682 0.202637 0.202637
vt 0.753906 0.508789 0.508789
vt 0.324463 0.749023 0.749023
vt 0.323730 0.529053 0.529053
vt 0.763184 0.739502 0.739502
vt 0.728027 0.391602 0.391602
vt 0.776855 0.430664 0.430664
vt 0.724609 0.430664 0.430664
vt 0.808594 0.430664 0.430664
vt 0.166260 0.391602 0.391602
vt 0.146729 0.430664 0.430664
vt -0.111938 0.430664 0.430664
vt -0.101379 0.391602 0.391602
vt 0.547852 0.498047 0.498047
vt 0.354004 0.686279 0.686279
vt 0.353027 0.510742 0.510742
vt 0.549805 0.677246 0.677246
vt 0.910156 0.391602 0.391602
vt 0.926758 0.430664 0.430664
vt 0.503418 0.427734 0.427734
vt 0.503418 0.756836 0.756836
vt 0.349609 0.427734 0.427734
vt 0.349609 0.756836 0.756836
vt 0.197144 0.427734 0.427734
vt 0.197144 0.756836 0.756836
vt 0.047729 0.427734 0.427734
vt 0.047729 0.756836 0.756836
vt -0.097412 0.427734 0.427734
vt -0.097412 0.756836 0.756836
vt -0.237061 0.427734 0.427734
vt -0.237061 0.756836 0.756836
vt -0.355713 0.427734 0.427734
vt -0.355713 0.756836 0.756836
vt -0.510254 0.427734 0.427734
vt -0.510254 0.756836 0.756836
vt -0.666016 0.427734 0.427734
vt -0.666016 0.756836 0.756836
vt -0.812500 0.427734 0.427734
vt -0.812500 0.756836 0.756836
vt 1.867188 0.431641 0.431641
vt 1.867188 0.566162 0.566162
vt 1.726563 0.431641 0.431641
vt 1.726563 0.566162 0.566162
vt 1.577148 0.431641 0.431641
vt 1.577148 0.566162 0.566162
vt 1.427734 0.431641 0.431641
vt 1.427734 0.566162 0.566162
vt 1.278320 0.431641 0.431641
vt 1.278320 0.566162 0.566162
vt 1.128906 0.431641 0.431641
vt 1.128906 0.566162 0.566162
vt 0.979492 0.431641 0.431641
vt 0.979492 0.566162 0.566162
vt 0.830078 0.431641 0.431641
vt 0.830078 0.566162 0.566162
vt 0.680176 0.431641 0.431641
vt 0.680176 0.566162 0.566162
vt 0.530762 0.431641 0.431641
vt 0.530762 0.566162 0.566162
vt 0.503418 0.810669 0.810669
vt 0.349609 0.810669 0.810669
vt 0.197144 0.810669 0.810669
vt 0.047729 0.810669 0.810669
vt -0.097412 0.810669 0.810669
vt -0.237061 0.810669 0.810669
vt -0.355713 0.810669 0.810669
vt -0.510254 0.810669 0.810669
vt -0.666016 0.810669 0.810669
vt -0.812500 0.810669 0.810669
# 78 texture coords

g Dn_HUB_Main_Center_Platform_B
usemtl Dn_Hb_Stone_Trim_A
s 1
f 1/1/1 2/2/2 3/3/3 
f 4/4/4 3/3/3 2/2/2 
f 5/5/5 4/4/6 2/2/7 
f 6/6/8 4/4/6 5/5/5 
f 5/5/9 7/7/10 6/6/11 
f 7/7/10 5/5/9 8/8/12 
f 1/1/13 9/9/14 2/2/13 
f 9/9/14 1/1/13 10/10/15 
f 8/11/13 2/12/13 9/13/14 
f 2/12/13 8/11/13 5/14/16 
f 11/15/17 12/16/18 13/17/19 
f 12/16/18 11/15/17 14/18/20 
f 13/17/21 15/19/22 11/15/23 
f 15/19/22 13/17/21 16/20/24 
f 16/20/25 17/21/25 15/19/25 
f 15/19/25 17/21/25 18/22/25 
f 18/23/26 11/24/26 15/25/26 
f 11/24/26 18/23/26 19/26/26 
f 11/15/26 19/27/26 14/18/26 
f 14/18/26 19/27/26 20/28/27 
f 16/29/28 13/30/28 21/31/28 
f 13/30/28 22/32/28 21/31/28 
f 21/31/28 22/32/28 23/33/28 
f 22/32/28 24/34/28 23/33/28 
f 23/33/28 24/34/28 25/35/28 
f 25/35/28 24/34/28 26/36/28 
f 27/37/28 25/35/28 26/36/28 
f 27/37/28 26/36/28 28/38/28 
f 29/39/28 27/37/28 28/38/28 
f 29/39/28 28/38/28 30/40/28 
f 30/40/28 31/41/28 29/39/28 
f 31/41/28 30/40/28 32/42/28 
f 32/42/28 33/43/28 31/41/28 
f 33/43/28 32/42/28 34/44/28 
f 34/44/28 35/45/28 33/43/28 
f 35/45/28 34/44/28 36/46/28 
f 36/46/28 6/47/28 35/45/28 
f 6/47/28 36/46/28 4/48/28 
f 6/49/29 7/50/30 35/51/31 
f 35/51/31 7/50/30 37/52/32 
f 35/51/31 37/52/32 33/53/33 
f 33/53/33 37/52/32 38/54/33 
f 33/53/33 38/54/33 31/55/34 
f 31/55/34 38/54/33 39/56/34 
f 39/56/34 29/57/35 31/55/34 
f 29/57/35 39/56/34 40/58/35 
f 29/57/35 40/58/35 27/59/36 
f 27/59/36 40/58/35 41/60/36 
f 41/60/36 25/61/37 27/59/36 
f 25/61/37 41/60/36 42/62/37 
f 42/62/37 23/63/38 25/61/37 
f 23/63/38 42/62/37 43/64/38 
f 23/63/38 43/64/38 21/65/39 
f 21/65/39 43/64/38 44/66/39 
f 21/65/39 44/66/39 16/67/40 
f 16/67/40 44/66/39 17/68/40 
f 12/69/41 22/32/42 13/30/41 
f 12/69/41 45/70/42 22/32/42 
f 45/70/42 24/34/43 22/32/42 
f 45/70/42 46/71/43 24/34/43 
f 46/71/43 26/36/44 24/34/43 
f 46/71/43 47/72/44 26/36/44 
f 47/72/44 28/38/45 26/36/44 
f 47/72/44 48/73/45 28/38/45 
f 49/74/46 28/38/45 48/73/45 
f 28/38/45 49/74/46 30/40/46 
f 50/75/47 30/40/46 49/74/46 
f 30/40/46 50/75/47 32/42/47 
f 51/76/48 32/42/47 50/75/47 
f 32/42/47 51/76/48 34/44/48 
f 52/77/49 34/44/48 51/76/48 
f 34/44/48 52/77/49 36/46/49 
f 3/78/50 36/46/49 52/77/49 
f 36/46/49 3/78/50 4/48/50 
# 0 polygons - 74 triangles

