# 3ds Max Wavefront OBJ Exporter v0.97b - (c)2007 guruware
# File Created: 09.05.2023 17:10:32

mtllib Ruins_Trim_Base_DMG_2M_A.mtl

#
# object Dn_HL_Ruins_Trim_Base_DMG_2M_A
#

v  -2.500421 0.007003 0.075227
v  -2.127055 -0.000209 -0.010502
v  -2.467394 -0.031432 -0.025431
v  -0.954431 -0.001084 1.162349
v  -0.983044 -0.087711 1.265243
v  -0.749571 -0.032899 1.318010
v  -1.242228 0.021668 1.022891
v  -2.127227 -0.736754 -0.006683
v  -2.496810 -0.755104 0.172996
v  -2.496125 -0.726312 -0.010730
v  -2.288795 -0.789330 0.292856
v  -2.273763 -0.700590 0.496915
v  -1.667276 -0.590483 0.796491
v  -1.483541 -0.413125 0.928883
v  -1.579873 -0.384123 0.993253
v  -1.791464 -0.348892 1.002380
v  -1.958682 -0.617798 0.747335
v  -2.499871 -0.141778 0.404094
v  -2.269031 0.002390 0.406770
v  -2.482591 -0.520026 0.471649
v  -2.392649 -0.641981 0.490357
v  -2.365858 -0.501879 0.562300
v  -2.185341 -0.478107 0.708562
v  -2.019151 -0.442383 0.869652
v  -2.074897 -0.305594 0.830989
v  -1.886951 -0.147632 1.058090
v  -2.144749 -0.094113 0.769590
v  -1.795289 -0.291610 1.067036
v  -1.485933 -0.324650 0.982912
v  -1.329171 -0.176336 1.081749
v  -1.426190 -0.257238 1.098721
v  -1.323414 -0.035526 1.122412
v  -1.585047 0.030903 1.023397
v  -1.841148 0.024281 0.847305
v  -2.057673 -0.025226 0.657583
v  -2.186051 -0.281030 0.842219
v  -2.259160 -0.104443 0.785888
v  -2.264758 -0.418771 0.826888
v  -2.450268 -0.436752 0.620379
v  -2.495468 -0.278245 0.522274
v  -2.178829 -0.010664 0.651910
v  0.003778 -0.168342 1.990961
v  -0.000000 0.000000 1.324408
v  0.002078 0.000000 1.990961
v  -0.000379 -0.170234 1.324408
v  -0.000379 -0.511530 1.703164
v  -0.000000 0.000000 0.662204
v  0.001905 -0.362397 1.324408
v  -0.000379 -0.481995 0.662204
v  -0.000000 0.000000 0.000000
v  0.000763 -0.597897 0.785274
v  -0.000379 -0.793757 -0.000000
v  -0.000379 -0.833398 0.246140
v  -1.413598 -0.476403 0.897735
v  -1.516018 -0.663340 0.651535
v  -1.300043 -0.638248 0.748237
v  -1.239647 -0.708861 0.549575
v  -0.893139 -0.613284 0.897940
v  -1.893529 -0.765680 0.351608
v  -0.958862 -0.744611 0.531466
v  -0.522989 -0.424860 1.259742
v  -1.962211 -0.803303 0.279946
v  -1.829322 -0.782474 0.192793
v  -1.766070 -0.758756 0.013807
v  -1.337009 -0.824569 0.286401
v  -1.562066 -0.730393 -0.025392
v  -1.239870 -0.778944 -0.036652
v  -0.068985 -0.859077 0.295404
v  -0.069340 -0.487376 1.106595
v  -0.270830 -0.406234 1.296831
v  -0.604289 -0.389569 1.334173
v  -0.559295 -0.374619 1.341384
v  -0.111210 -0.405516 1.307019
v  -0.885041 -0.304633 1.328010
v  -1.017349 -0.393406 1.400205
v  -0.985062 -0.514066 1.590889
v  -0.471741 -0.512950 1.555996
v  -0.297843 -0.559215 1.674760
v  -0.887145 -0.561383 1.686726
v  -0.092086 -0.527260 1.710743
v  -1.060338 -0.447277 1.767145
v  -0.738309 -0.156749 2.005894
v  -0.487451 0.036426 1.992914
v  -0.813895 0.016674 1.842350
v  -0.975658 -0.139233 1.826970
v  -1.172708 -0.294442 1.706425
v  -1.134653 -0.261145 1.474247
v  -1.144115 -0.156102 1.487150
v  -0.961518 -0.001948 1.475699
v  -0.943002 -0.080505 1.330382
v  -1.334705 -0.064567 -0.015076
v  -1.107361 -0.314952 -0.037529
v  -0.748168 -0.058878 -0.026783
v  -0.989019 -0.419832 -0.051554
v  -0.627641 0.017233 1.365819
v  -0.676494 0.058834 1.850527
v  -0.329721 0.011432 1.565281
v  -0.993004 0.010556 0.772869
v  -1.630538 0.043705 0.771723
v  -0.511635 -0.030516 0.186676
v  -0.613303 -0.017064 0.006211
v  -1.207743 -0.012841 0.134543
v  -1.618234 0.001939 0.028592
v  -1.602434 0.019483 0.556619
v  -2.010952 -0.005354 0.384541
v  -1.147740 -0.524167 1.015045
v  -1.148373 -0.431787 1.042147
v  -1.124577 -0.314218 1.254303
v  -1.125674 -0.250834 1.220988
# 109 vertices

vn -0.655586 0.710681 -0.255224
vn -0.068334 0.924354 -0.375367
vn -0.650499 0.613529 -0.447698
vn -0.258488 0.773204 0.579085
vn -0.341403 0.525367 0.779380
vn -0.300813 0.498805 0.812838
vn -0.099052 0.654546 0.749505
vn -0.038361 -0.983046 -0.179300
vn -0.698690 -0.714612 0.034080
vn -0.720902 -0.683756 -0.113040
vn -0.244160 -0.958037 0.150168
vn -0.377317 -0.776375 0.504851
vn 0.005567 -0.792223 0.610207
vn 0.062311 -0.637676 0.767781
vn 0.063969 -0.702719 0.708586
vn -0.072475 -0.668243 0.740405
vn 0.017669 -0.914779 0.403569
vn 0.012810 -0.944380 0.328606
vn -0.878412 0.420032 0.227959
vn -0.534840 0.746996 0.394897
vn -0.897223 -0.173717 0.405973
vn -0.564224 -0.570363 0.596940
vn -0.600295 -0.512629 0.613887
vn -0.362517 -0.591009 0.720617
vn -0.489726 -0.399905 0.774754
vn -0.335990 -0.613909 0.714302
vn -0.127279 -0.074400 0.989073
vn -0.021926 -0.703010 0.710842
vn -0.474380 0.260278 0.840963
vn -0.169475 0.640506 0.749020
vn -0.166701 -0.422119 0.891082
vn 0.131520 -0.640355 0.756735
vn 0.155802 -0.074837 0.984949
vn -0.063907 -0.547463 0.834386
vn -0.033676 -0.172668 0.984404
vn 0.308743 -0.609510 0.730188
vn 0.358205 0.302816 0.883171
vn -0.221722 0.618540 0.753822
vn -0.419229 0.765701 0.487800
vn -0.254827 0.861726 0.438740
vn -0.071931 0.118988 0.990287
vn -0.406232 0.546405 0.732405
vn -0.275981 -0.486209 0.829117
vn -0.850541 -0.471052 0.233858
vn -0.941848 0.071453 0.328354
vn -0.143571 0.945266 0.293018
vn 0.999986 0.002785 -0.004540
vn 0.999995 -0.001256 -0.002870
vn 0.999944 0.010100 -0.003117
vn 0.999997 0.001806 -0.001822
vn 0.999990 -0.003344 -0.003014
vn 1.000000 -0.000902 0.000155
vn 0.999931 0.011490 0.002553
vn 0.999995 0.002319 -0.001957
vn 1.000000 -0.000601 0.000135
vn 0.999977 0.005196 -0.004388
vn 1.000000 -0.000312 0.000147
vn 1.000000 0.000585 -0.000494
vn -0.069384 -0.676533 0.733137
vn -0.024550 -0.898101 0.439103
vn -0.100273 -0.895140 0.434362
vn -0.063587 -0.925233 0.374034
vn 0.105045 -0.943191 0.315208
vn 0.026418 -0.950668 0.309085
vn -0.035395 -0.928354 0.370008
vn 0.014762 -0.912222 0.409431
vn 0.061125 -0.990776 0.120939
vn -0.035595 -0.985459 0.166145
vn -0.038137 -0.980616 -0.192192
vn -0.020934 -0.997436 -0.068426
vn -0.025771 -0.980816 -0.193227
vn -0.058884 -0.991520 0.115844
vn -0.005717 -0.958404 -0.285356
vn -0.076380 -0.982806 -0.168101
vn 0.211440 -0.966013 0.148700
vn 0.031033 -0.977439 -0.208926
vn 0.360861 -0.932474 0.016483
vn 0.430602 -0.821258 0.374321
vn 0.188931 -0.898963 0.395184
vn 0.230364 -0.811562 0.536934
vn 0.016307 -0.817604 0.575550
vn 0.027834 -0.796487 0.604014
vn 0.060528 -0.586215 0.807891
vn 0.044514 -0.673334 0.737997
vn -0.252254 -0.314271 -0.915206
vn -0.008633 -0.831660 -0.555218
vn -0.429765 -0.588091 -0.685165
vn -0.480954 -0.831484 -0.278061
vn 0.067707 -0.866705 -0.494205
vn 0.057047 -0.995589 0.074488
vn 0.079093 -0.896487 -0.435953
vn 0.212288 -0.946102 0.244591
vn -0.138257 -0.962422 0.233727
vn 0.128047 -0.896136 0.424904
vn 0.018820 -0.327737 0.944582
vn -0.609532 -0.588045 0.531670
vn -0.279838 -0.049622 0.958764
vn 0.003991 0.000040 0.999992
vn -0.078899 0.161967 0.983637
vn -0.578854 0.625349 0.523322
vn -0.664733 0.382952 0.641465
vn -0.939507 -0.058578 0.337485
vn -0.829870 -0.235962 -0.505605
vn -0.868861 0.409896 -0.277607
vn -0.646047 0.759908 -0.071858
vn -0.423641 0.161613 -0.891296
vn -0.062460 -0.005592 -0.998032
vn 0.034524 -0.009913 -0.999355
vn -0.001057 -0.032542 -0.999470
vn 0.010355 -0.021579 -0.999714
vn 0.018968 -0.005188 -0.999807
vn -0.031139 0.039623 -0.998729
vn -0.011957 -0.779528 -0.626253
vn -0.032781 -0.038388 -0.998725
vn -0.035488 0.053653 -0.997929
vn 0.025658 0.005957 -0.999653
vn -0.020348 -0.012762 -0.999711
vn 0.045407 0.009580 -0.998923
vn -0.012000 0.030464 -0.999464
vn 0.046858 -0.013818 -0.998806
vn -0.129368 0.976406 -0.172900
vn -0.238107 0.841371 -0.485180
vn -0.140690 0.962980 -0.229948
vn -0.043286 0.922806 -0.382825
vn -0.224542 0.974126 0.025679
vn 0.014902 0.999858 -0.007892
vn 0.010572 0.998028 0.061869
vn -0.159108 0.972632 0.169327
vn 0.066168 0.997387 0.029012
vn 0.053876 0.998229 -0.025226
vn 0.057514 0.998182 -0.018021
vn 0.030498 0.999435 -0.014125
vn 0.053345 0.998396 0.018960
vn -0.009806 0.999781 -0.018470
vn -0.046894 0.998172 -0.038136
vn -0.003011 0.998676 0.051345
vn -0.056845 0.998197 -0.019254
vn 0.015056 0.999798 0.013314
vn -0.052063 0.998564 -0.012626
vn 0.000190 0.916593 -0.399822
vn -0.007875 0.629870 -0.776661
vn 0.022466 0.999747 0.000647
vn 0.035019 0.916438 -0.398641
vn -0.017209 0.496486 -0.867874
vn 0.001429 0.999601 -0.028214
vn -0.032702 0.996644 -0.075047
vn 0.018584 0.999400 -0.029241
vn -0.015656 0.997950 -0.062046
vn 0.023751 0.999715 0.002352
vn -0.265134 -0.376737 0.887566
vn -0.089435 -0.583665 0.807054
vn -0.085539 -0.212108 0.973495
vn -0.515624 -0.630511 0.580162
vn -0.029797 -0.897373 0.440265
vn -0.078579 -0.868235 0.489891
vn -0.255819 -0.776291 0.576133
vn -0.758116 -0.404933 0.511165
vn -0.251507 -0.692723 0.675929
vn -0.689572 -0.222647 0.689143
vn -0.690165 0.104164 0.716116
# 160 vertex normals

vt 0.867676 0.863647 0.863647
vt 0.842285 0.857788 0.857788
vt 0.865234 0.856812 0.856812
vt 0.762695 0.937256 0.937256
vt 0.764648 0.944275 0.944275
vt 0.749023 0.947845 0.947845
vt 0.782227 0.927795 0.927795
vt 0.640625 0.610840 0.610840
vt 0.581055 0.641113 0.641113
vt 0.580566 0.611084 0.611084
vt 0.615234 0.660156 0.660156
vt 0.618164 0.693359 0.693359
vt 0.575195 0.834839 0.834839
vt 0.540527 0.830688 0.830688
vt 0.555664 0.816772 0.816772
vt 0.579102 0.796265 0.796265
vt 0.611816 0.802612 0.802612
vt 0.660645 0.822021 0.822021
vt 0.738281 0.785400 0.785400
vt 0.766602 0.786011 0.786011
vt 0.746582 0.829956 0.829956
vt 0.718262 0.788086 0.788086
vt 0.739746 0.847412 0.847412
vt 0.747070 0.848755 0.848755
vt 0.712891 0.834839 0.834839
vt 0.686523 0.791748 0.791748
vt 0.697266 0.769531 0.769531
vt 0.659180 0.752441 0.752441
vt 0.618164 0.771851 0.771851
vt 0.624023 0.740234 0.740234
vt 0.578613 0.760498 0.760498
vt 0.607910 0.716064 0.716064
vt 0.576660 0.782715 0.782715
vt 0.545410 0.814453 0.814453
vt 0.518066 0.812012 0.812012
vt 0.535156 0.801025 0.801025
vt 0.522949 0.800781 0.800781
vt 0.504883 0.806274 0.806274
vt 0.530273 0.765747 0.765747
vt 0.561523 0.728271 0.728271
vt 0.595215 0.694092 0.694092
vt 0.575195 0.656006 0.656006
vt 0.866699 0.899475 0.899475
vt 0.875977 0.888000 0.888000
vt 0.884766 0.901489 0.901489
vt 0.897461 0.883728 0.883728
vt 0.900879 0.900452 0.900452
vt 0.885254 0.920776 0.920776
vt 0.908691 0.922119 0.922119
vt 0.942383 0.916138 0.916138
vt 0.935547 0.904541 0.904541
vt 0.954590 0.896729 0.896729
vt 0.960938 0.901794 0.901794
vt 0.960938 0.877808 0.877808
vt 0.963379 0.894226 0.894226
vt 0.909180 0.858765 0.858765
vt 0.945801 0.845215 0.845215
vt 0.890625 0.860229 0.860229
vt 0.901367 0.840454 0.840454
vt 0.671387 0.993454 0.993454
vt 0.686523 0.948120 0.948120
vt 0.686523 0.993462 0.993462
vt 0.671387 0.948120 0.948120
vt 0.640137 0.973862 0.973862
vt 0.686523 0.903076 0.903076
vt 0.653809 0.948120 0.948120
vt 0.643066 0.903076 0.903076
vt 0.686523 0.858032 0.858032
vt 0.632324 0.911438 0.911438
vt 0.614746 0.858032 0.858032
vt 0.611328 0.874756 0.874756
vt 0.718262 0.741211 0.741211
vt 0.759277 0.757202 0.757202
vt 0.748535 0.762207 0.762207
vt 0.742188 0.717529 0.717529
vt 0.776367 0.732422 0.732422
vt 0.786621 0.700439 0.700439
vt 0.841309 0.757202 0.757202
vt 0.679688 0.668945 0.668945
vt 0.833008 0.697998 0.697998
vt 0.902344 0.822144 0.822144
vt 0.668457 0.657227 0.657227
vt 0.689941 0.642822 0.642822
vt 0.699707 0.613281 0.613281
vt 0.770996 0.657227 0.657227
vt 0.733398 0.606201 0.606201
vt 0.786621 0.603760 0.603760
vt 0.981934 0.660645 0.660645
vt 0.994141 0.611084 0.611084
vt 0.993652 0.652588 0.652588
vt 0.992188 0.743896 0.743896
vt 0.979004 0.798218 0.798218
vt 0.990723 0.835327 0.835327
vt 0.944336 0.829468 0.829468
vt 0.888184 0.834106 0.834106
vt 0.895508 0.835693 0.835693
vt 0.971680 0.831787 0.831787
vt 0.498291 0.615234 0.615234
vt 0.513672 0.636230 0.636230
vt 0.484863 0.626221 0.626221
vt 0.471680 0.658936 0.658936
vt 0.506836 0.664307 0.664307
vt 0.522461 0.679688 0.679688
vt 0.553223 0.648193 0.648193
vt 0.543945 0.693115 0.693115
vt 0.479492 0.682373 0.682373
vt 0.533691 0.693604 0.693604
vt 0.539551 0.729980 0.729980
vt 0.460938 0.699463 0.699463
vt 0.440918 0.655273 0.655273
vt 0.489746 0.723389 0.723389
vt 0.540527 0.734863 0.734863
vt 0.505371 0.740479 0.740479
vt 0.474609 0.737793 0.737793
vt 0.464355 0.723145 0.723145
vt 0.449707 0.691406 0.691406
vt 0.446045 0.711426 0.711426
vt 0.433838 0.668701 0.668701
vt 0.422852 0.648193 0.648193
vt 0.431152 0.672852 0.672852
vt 0.432373 0.717529 0.717529
vt 0.416504 0.674805 0.674805
vt 0.417236 0.655029 0.655029
vt 0.414307 0.642334 0.642334
vt 0.988281 0.970963 0.970963
vt 0.965332 0.939423 0.939423
vt 0.991699 0.939392 0.939392
vt 0.967773 0.973419 0.973419
vt 0.919922 0.969345 0.969345
vt 0.955566 0.930969 0.930969
vt 0.937988 0.932861 0.932861
vt 0.905762 0.954010 0.954010
vt 0.884766 0.969894 0.969894
vt 0.911133 0.931641 0.931641
vt 0.845215 0.965912 0.965912
vt 0.894043 0.948090 0.948090
vt 0.843262 0.930420 0.930420
vt 0.761719 0.948669 0.948669
vt 0.763184 0.958527 0.958527
vt 0.740723 0.951080 0.951080
vt 0.753418 0.983353 0.983353
vt 0.698242 0.948273 0.948273
vt 0.743652 0.983917 0.983917
vt 0.730957 0.993561 0.993561
vt 0.720215 0.964600 0.964600
vt 0.697754 0.993420 0.993420
vt 0.765137 0.910889 0.910889
vt 0.698242 0.903381 0.903381
vt 0.808594 0.910828 0.910828
vt 0.805664 0.927856 0.927856
vt 0.822754 0.915955 0.915955
vt 0.732910 0.871216 0.871216
vt 0.698242 0.858521 0.858521
vt 0.739746 0.859009 0.859009
vt 0.748535 0.856689 0.856689
vt 0.779785 0.867676 0.867676
vt 0.807617 0.860474 0.860474
vt 0.788574 0.857544 0.857544
vt 0.806641 0.896240 0.896240
vt 0.851563 0.886108 0.886108
vt 0.834473 0.884583 0.884583
vt 0.841309 0.831055 0.831055
vt 0.799805 0.773682 0.773682
vt 0.822754 0.826782 0.826782
vt 0.853027 0.849854 0.849854
vt 0.800293 0.779907 0.779907
vt 0.815918 0.815063 0.815063
vt 0.812500 0.812256 0.812256
vt 0.775391 0.788574 0.788574
vt 0.771973 0.805054 0.805054
# 170 texture coords

g Dn_HL_Ruins_Trim_Base_DMG_2M_A
usemtl Dn_HL_Inst_Ruins_Trim_Base_B
s 1
f 1/1/1 2/2/2 3/3/3 
f 4/4/4 5/5/5 6/6/6 
f 4/4/4 7/7/7 5/5/5 
f 8/8/8 9/9/9 10/10/10 
f 8/8/8 11/11/11 9/9/9 
f 12/12/12 9/9/9 11/11/11 
f 13/13/13 14/14/14 15/15/15 
f 16/16/16 13/13/13 15/15/15 
f 17/17/17 13/13/13 16/16/16 
f 13/13/13 17/17/17 12/18/18 
f 18/19/19 19/20/20 1/21/1 
f 18/19/19 1/21/1 20/22/21 
f 10/23/10 1/21/1 3/24/3 
f 20/22/21 1/21/1 10/23/10 
f 9/25/9 20/22/21 10/23/10 
f 20/22/21 9/25/9 21/26/22 
f 20/22/21 21/26/22 22/27/23 
f 12/18/12 21/26/22 9/25/9 
f 23/28/24 22/27/23 21/26/22 
f 24/29/25 21/26/22 12/18/12 
f 23/28/24 21/26/22 24/29/25 
f 17/17/26 24/29/25 12/18/12 
f 23/28/24 24/29/25 25/30/27 
f 17/17/26 16/16/28 24/29/25 
f 25/30/27 24/29/25 26/31/29 
f 27/32/30 25/30/27 26/31/29 
f 24/29/25 16/16/28 28/33/31 
f 26/31/29 24/29/25 28/33/31 
f 29/34/32 28/33/31 16/16/28 
f 29/34/32 16/16/28 15/15/33 
f 14/14/34 29/34/32 15/15/33 
f 14/14/34 30/35/35 29/34/32 
f 29/34/32 31/36/36 28/33/31 
f 31/36/36 29/34/32 30/35/35 
f 26/31/29 28/33/31 31/36/36 
f 31/36/36 30/35/35 32/37/37 
f 32/37/37 26/31/29 31/36/36 
f 32/37/37 30/35/35 7/38/7 
f 7/38/7 33/39/38 32/37/37 
f 32/37/37 33/39/38 26/31/29 
f 33/39/38 34/40/39 26/31/29 
f 27/32/30 26/31/29 34/40/39 
f 27/32/30 34/40/39 35/41/40 
f 35/41/40 34/40/39 19/42/20 
f 25/43/27 27/44/30 36/45/41 
f 27/44/30 37/46/42 36/45/41 
f 36/45/41 37/46/42 38/47/43 
f 38/47/43 25/48/27 36/45/41 
f 23/49/24 25/48/27 38/47/43 
f 23/49/24 38/47/43 22/50/23 
f 38/47/43 39/51/44 22/50/23 
f 38/47/43 37/46/42 39/51/44 
f 22/50/23 39/51/44 40/52/45 
f 20/53/21 22/50/23 40/52/45 
f 37/46/42 40/52/45 39/51/44 
f 40/52/45 18/54/19 20/55/21 
f 37/46/42 18/54/19 40/52/45 
f 18/54/19 37/46/42 41/56/46 
f 19/57/20 18/54/19 41/56/46 
f 37/46/42 27/58/30 41/56/46 
f 35/59/40 19/57/20 41/56/46 
f 41/56/46 27/58/30 35/59/40 
f 42/60/47 43/61/48 44/62/49 
f 43/61/48 42/60/47 45/63/50 
f 45/63/50 42/60/47 46/64/51 
f 45/63/50 47/65/52 43/61/48 
f 45/63/50 46/64/51 48/66/53 
f 47/65/52 45/63/50 49/67/54 
f 48/66/53 49/67/54 45/63/50 
f 49/67/54 50/68/55 47/65/52 
f 49/67/54 48/66/53 51/69/56 
f 50/68/55 49/67/54 52/70/57 
f 51/69/56 53/71/58 49/67/54 
f 52/70/57 49/67/54 53/71/58 
f 13/72/13 54/73/59 14/74/14 
f 13/72/13 55/75/60 54/73/59 
f 56/76/61 54/73/59 55/75/60 
f 12/12/18 55/75/60 13/72/13 
f 55/75/60 57/77/62 56/76/61 
f 55/75/60 12/12/18 57/77/62 
f 58/78/63 56/76/61 57/77/62 
f 12/12/18 59/79/64 57/77/62 
f 60/80/65 58/78/63 57/77/62 
f 61/81/66 58/78/63 60/80/65 
f 62/82/67 59/79/64 12/12/18 
f 12/12/18 11/11/68 62/82/67 
f 62/82/67 11/11/68 8/8/69 
f 63/83/70 62/82/67 8/8/69 
f 59/79/64 62/82/67 63/83/70 
f 63/83/70 8/8/69 64/84/71 
f 65/85/72 59/79/64 63/83/70 
f 65/85/72 63/83/70 64/84/71 
f 59/79/64 65/85/72 57/77/62 
f 57/77/62 65/85/72 60/80/65 
f 66/86/73 65/85/72 64/84/71 
f 67/87/74 65/85/72 66/86/73 
f 65/85/72 67/87/74 68/88/75 
f 68/88/75 60/80/65 65/85/72 
f 52/89/76 68/88/75 67/87/74 
f 68/88/75 52/89/76 53/90/77 
f 51/91/78 68/88/75 53/90/77 
f 68/88/75 69/92/79 60/80/65 
f 51/91/78 69/92/79 68/88/75 
f 69/92/79 61/81/66 60/80/65 
f 69/92/79 51/91/78 48/93/80 
f 69/92/79 70/94/81 61/81/66 
f 70/94/81 71/95/82 61/81/66 
f 71/95/82 70/94/81 72/96/83 
f 70/94/81 48/93/80 72/96/83 
f 69/92/79 73/97/84 70/94/81 
f 69/92/79 48/93/80 73/97/84 
f 70/94/81 73/97/84 48/93/80 
f 74/98/85 72/99/86 75/100/87 
f 76/101/88 75/100/87 72/99/86 
f 77/102/89 76/101/88 72/99/86 
f 78/103/90 77/102/89 72/99/86 
f 48/104/91 78/103/90 72/99/86 
f 46/105/92 78/103/90 48/104/91 
f 77/102/89 79/106/93 76/101/88 
f 79/106/93 77/102/89 78/103/90 
f 80/107/94 78/103/90 46/105/92 
f 79/106/93 78/103/90 80/107/94 
f 80/107/94 46/105/92 42/108/95 
f 76/101/88 79/106/93 81/109/96 
f 75/110/87 76/101/88 81/109/96 
f 82/111/97 79/106/93 80/107/94 
f 42/108/95 82/111/97 80/107/94 
f 81/109/96 79/106/93 82/111/97 
f 44/112/98 83/113/99 42/108/95 
f 42/108/95 83/113/99 82/111/97 
f 82/111/97 83/113/99 84/114/100 
f 84/114/100 85/115/101 82/111/97 
f 85/115/101 81/109/96 82/111/97 
f 75/110/87 81/109/96 86/116/102 
f 86/116/102 81/109/96 85/117/101 
f 87/118/103 75/110/87 86/116/102 
f 75/110/87 87/118/103 74/119/85 
f 88/120/104 86/116/102 85/117/101 
f 86/116/102 88/120/104 87/118/103 
f 88/120/104 85/117/101 84/121/100 
f 88/120/104 84/121/100 89/122/105 
f 88/120/104 89/122/105 90/123/106 
f 87/118/103 88/120/104 90/123/106 
f 87/118/103 90/123/106 74/119/85 
f 6/124/107 74/119/85 90/123/106 
f 3/125/108 8/126/109 10/127/110 
f 3/125/108 2/128/111 8/126/109 
f 2/128/111 91/129/112 8/126/109 
f 64/130/113 8/126/109 66/131/114 
f 8/126/109 91/129/112 92/132/115 
f 92/132/115 66/131/114 8/126/109 
f 93/133/116 92/132/115 91/129/112 
f 66/131/114 92/132/115 67/134/117 
f 92/132/115 93/133/116 50/135/118 
f 92/132/115 94/136/119 67/134/117 
f 92/132/115 50/135/118 94/136/119 
f 52/137/120 67/134/117 94/136/119 
f 94/136/119 50/135/118 52/137/120 
f 6/6/121 90/138/122 89/139/123 
f 6/6/121 89/139/123 95/140/124 
f 89/139/123 84/141/125 95/140/124 
f 95/140/124 43/142/126 6/6/121 
f 6/6/121 43/142/126 4/4/127 
f 84/141/125 96/143/128 95/140/124 
f 96/143/128 84/141/125 83/144/129 
f 97/145/130 95/140/124 96/143/128 
f 83/144/129 97/145/130 96/143/128 
f 97/145/130 43/142/126 95/140/124 
f 83/144/129 44/146/131 97/145/130 
f 44/146/131 43/142/126 97/145/130 
f 4/4/127 43/142/126 98/147/132 
f 7/7/133 4/4/127 98/147/132 
f 98/147/132 43/142/126 47/148/134 
f 7/7/133 98/147/132 99/149/135 
f 33/150/136 7/7/133 99/149/135 
f 33/150/136 99/149/135 34/151/137 
f 98/147/132 47/148/134 100/152/138 
f 100/152/138 47/148/134 50/153/139 
f 100/152/138 50/153/139 101/154/140 
f 100/152/138 101/154/140 98/147/132 
f 101/154/140 50/153/139 93/155/141 
f 98/147/132 102/156/142 99/149/135 
f 98/147/132 101/154/140 102/156/142 
f 101/154/140 93/155/141 103/157/143 
f 103/157/143 102/156/142 101/154/140 
f 103/157/143 93/155/141 91/158/144 
f 2/2/145 103/157/143 91/158/144 
f 102/156/142 104/159/146 99/149/135 
f 103/157/143 104/159/146 102/156/142 
f 34/151/137 99/149/135 104/159/146 
f 2/2/145 104/159/146 103/157/143 
f 34/151/137 104/159/146 19/160/147 
f 104/159/146 2/2/145 105/161/148 
f 19/160/147 104/159/146 105/161/148 
f 105/161/148 2/2/145 1/1/149 
f 105/161/148 1/1/149 19/160/147 
f 74/162/150 71/95/151 72/96/152 
f 71/95/151 74/162/150 106/163/153 
f 71/95/151 106/163/153 61/81/154 
f 58/78/155 61/81/154 106/163/153 
f 56/76/156 58/78/155 106/163/153 
f 5/164/5 74/162/150 6/165/6 
f 107/166/157 56/76/156 106/163/153 
f 54/73/158 56/76/156 107/166/157 
f 107/166/157 14/74/34 54/73/158 
f 106/163/153 74/162/150 108/167/159 
f 108/167/159 107/166/157 106/163/153 
f 74/162/150 5/164/5 108/167/159 
f 107/166/157 109/168/160 14/74/34 
f 107/166/157 108/167/159 109/168/160 
f 5/164/5 109/168/160 108/167/159 
f 30/169/35 14/74/34 109/168/160 
f 5/164/5 30/169/35 109/168/160 
f 5/164/5 7/170/7 30/169/35 
# 0 polygons - 214 triangles

