# 3ds Max Wavefront OBJ Exporter v0.97b - (c)2007 guruware
# File Created: 09.05.2023 20:01:48

mtllib Ruins_Wall_2_5Mx4Mx2M_A007.mtl

#
# object Dn_HL_Ruins_Wall_2_5Mx4Mx2M_A007
#

v  0.000000 0.000000 2.000000
v  0.000000 2.500000 -0.000000
v  0.000000 2.500000 2.000000
v  0.000000 0.000000 -0.000001
v  -4.000000 0.000000 2.000000
v  -4.000000 2.500000 2.000000
v  -4.000000 2.500000 -0.000000
v  -4.000000 0.000000 -0.000001
v  -3.000000 0.000000 2.000000
v  -3.000000 0.000000 -0.000001
v  -2.000000 0.000000 2.000000
v  -2.000000 0.000000 -0.000001
v  -1.000000 0.000000 2.000000
v  -1.000000 0.000000 -0.000001
v  -3.000000 2.500000 2.000000
v  -2.000000 2.500000 2.000000
v  -1.000000 2.500000 2.000000
v  -1.000000 2.500000 -0.000000
v  -2.000000 2.500000 -0.000000
v  -3.000000 2.500000 -0.000000
# 20 vertices

vn 1.000000 0.000000 0.000000
vn -1.000000 0.000000 0.000000
vn 0.000000 -1.000000 0.000000
vn 0.000000 -0.000000 1.000000
vn 0.000000 1.000000 0.000000
vn 0.000000 0.000000 -1.000000
# 6 vertex normals

vt 0.000031 -0.014648 -0.014648
vt 1.000000 -0.814453 -0.814453
vt 1.000000 -0.014648 -0.014648
vt 0.000031 -0.814453 -0.814453
vt 1.000000 1.809570 1.809570
vt 0.000031 1.809570 1.809570
vt 0.000031 1.009857 1.009857
vt 1.000000 1.009857 1.009857
vt 0.000032 0.122070 0.122070
vt 0.000032 -0.377930 -0.377930
vt 0.250000 0.122070 0.122070
vt 0.250000 -0.377930 -0.377930
vt 0.500000 0.122070 0.122070
vt 0.500000 -0.377930 -0.377930
vt 0.750000 0.122070 0.122070
vt 0.750000 -0.377930 -0.377930
vt 1.000000 0.122070 0.122070
vt 1.000000 -0.377930 -0.377930
vt 0.000032 1.625488 1.625488
vt 0.000032 1.000689 1.000689
vt 0.250000 1.625488 1.625488
vt 0.250000 1.000689 1.000689
vt 0.500000 1.625488 1.625488
vt 0.500000 1.000689 1.000689
vt 0.750000 1.625488 1.625488
vt 0.750000 1.000689 1.000689
vt 1.000000 1.625488 1.625488
vt 1.000000 1.000689 1.000689
vt -0.000032 0.597656 0.597656
vt -0.000032 0.097656 0.097656
vt 0.249878 0.597656 0.597656
vt 0.249878 0.097656 0.097656
vt 0.499756 0.597656 0.597656
vt 0.499756 0.097656 0.097656
vt 0.749512 0.597656 0.597656
vt 0.749512 0.097656 0.097656
vt 0.999512 0.597656 0.597656
vt 0.999512 0.097656 0.097656
vt 0.249878 0.557373 0.557373
vt -0.000033 1.182129 1.182129
vt -0.000033 0.557373 0.557373
vt 0.249878 1.182129 1.182129
vt 0.499756 0.557373 0.557373
vt 0.499756 1.182129 1.182129
vt 0.749512 0.557373 0.557373
vt 0.749512 1.182129 1.182129
vt 0.999512 0.557373 0.557373
vt 0.999512 1.182129 1.182129
# 48 texture coords

g Dn_HL_Ruins_Wall_2_5Mx4Mx2M_A007
usemtl 02___Default
s 1
f 1/1/1 2/2/1 3/3/1 
f 2/2/1 1/1/1 4/4/1 
f 5/5/2 6/6/2 7/7/2 
f 5/5/2 7/7/2 8/8/2 
f 5/9/3 8/10/3 9/11/3 
f 9/11/3 8/10/3 10/12/3 
f 9/11/3 10/12/3 11/13/3 
f 11/13/3 10/12/3 12/14/3 
f 11/13/3 12/14/3 13/15/3 
f 13/15/3 12/14/3 14/16/3 
f 13/15/3 14/16/3 1/17/3 
f 1/17/3 14/16/3 4/18/3 
f 6/19/4 5/20/4 15/21/4 
f 15/21/4 5/20/4 9/22/4 
f 15/21/4 9/22/4 16/23/4 
f 16/23/4 9/22/4 11/24/4 
f 16/23/4 11/24/4 17/25/4 
f 17/25/4 11/24/4 13/26/4 
f 17/25/4 13/26/4 3/27/4 
f 3/27/4 13/26/4 1/28/4 
f 3/29/5 2/30/5 17/31/5 
f 17/31/5 2/30/5 18/32/5 
f 17/31/5 18/32/5 16/33/5 
f 16/33/5 18/32/5 19/34/5 
f 16/33/5 19/34/5 15/35/5 
f 15/35/5 19/34/5 20/36/5 
f 15/35/5 20/36/5 6/37/5 
f 6/37/5 20/36/5 7/38/5 
f 14/39/6 2/40/6 4/41/6 
f 2/40/6 14/39/6 18/42/6 
f 12/43/6 18/42/6 14/39/6 
f 18/42/6 12/43/6 19/44/6 
f 10/45/6 19/44/6 12/43/6 
f 19/44/6 10/45/6 20/46/6 
f 8/47/6 20/46/6 10/45/6 
f 20/46/6 8/47/6 7/48/6 
# 0 polygons - 36 triangles

