# 3ds Max Wavefront OBJ Exporter v0.97b - (c)2007 guruware
# File Created: 09.05.2023 17:23:48

mtllib Ruins_Trim_Cap_1M_A.mtl

#
# object Dn_HL_Ruins_Trim_Cap_1M_A
#

v  -1.020001 -0.193936 0.780651
v  -0.958165 1.249999 1.812459
v  -1.020003 1.250070 1.729095
v  -0.958162 -0.305773 0.790605
v  -0.061837 1.249999 1.812459
v  -0.061837 -0.305773 0.790605
v  0.000001 -0.233797 0.784211
v  0.000001 1.250186 1.758914
v  -0.958163 0.028378 0.002562
v  -1.020001 0.116210 0.049220
v  -0.061837 0.028378 0.002562
v  0.000001 0.084935 0.032531
v  -1.020001 2.697743 0.780651
v  -0.958163 2.809722 0.790605
v  -0.061838 2.809722 0.790605
v  0.000000 2.737940 0.784211
v  -0.958165 2.477065 0.002562
v  -1.020003 2.387598 0.049220
v  -0.061837 2.498717 0.002562
v  0.000001 2.442710 0.032531
v  -1.020003 1.250070 0.049220
v  0.000001 1.250186 0.032531
v  -0.958165 1.249999 0.002562
v  -0.061837 1.249999 0.002562
# 24 vertices

vn -0.748113 -0.364293 0.554633
vn -0.339516 -0.516377 0.786183
vn -0.748116 -0.364291 0.554631
vn -0.277168 -0.527478 0.803084
vn 0.267776 -0.528938 0.805308
vn 0.229212 -0.534370 0.813578
vn 0.587182 -0.444380 0.676568
vn 0.587182 -0.444379 0.676568
vn -0.473283 -0.811013 -0.343891
vn -0.848325 -0.487464 -0.206697
vn -0.848327 -0.487460 -0.206696
vn -0.407677 -0.840673 -0.356467
vn 0.381914 -0.850866 -0.360789
vn 0.337947 -0.866487 -0.367413
vn 0.717891 -0.640918 -0.271766
vn 0.717891 -0.640917 -0.271766
vn -0.339376 0.515489 0.786826
vn -0.748000 0.363716 0.555163
vn -0.747999 0.363717 0.555164
vn -0.276829 0.526597 0.803780
vn 0.266590 0.528181 0.806198
vn 0.228620 0.533500 0.814316
vn 0.585708 0.444177 0.677977
vn 0.585707 0.444178 0.677978
vn -0.849068 0.486674 -0.205505
vn -0.488172 0.803880 -0.339802
vn -0.851883 0.482176 -0.204453
vn -0.414626 0.841227 -0.347019
vn 0.370876 0.861685 -0.346338
vn 0.342946 0.873770 -0.344838
vn 0.721030 0.644550 -0.254305
vn 0.714138 0.651553 -0.255903
vn -1.000000 -0.000002 -0.000000
vn -1.000000 -0.000000 0.000000
vn -1.000000 -0.000002 -0.000001
vn -1.000000 0.000001 0.000001
vn -1.000000 0.000000 0.000003
vn 1.000000 0.000000 -0.000000
vn 1.000000 0.000000 -0.000001
vn 1.000000 0.000000 0.000000
vn 1.000000 0.000000 0.000001
vn -0.602315 -0.000001 -0.798258
vn -0.602314 -0.000001 -0.798259
vn -0.317601 -0.000000 -0.948224
vn -0.602314 0.000000 -0.798259
vn -0.198653 -0.000000 -0.980070
vn -0.194768 0.000000 -0.980849
vn 0.223732 0.000000 -0.974651
vn 0.160590 0.000000 -0.987021
vn 0.162769 0.000000 -0.986664
vn 0.436122 0.000000 -0.899887
vn 0.436122 0.000000 -0.899888
# 52 vertex normals

vt 0.895996 0.657227 0.657227
vt 0.898438 0.733154 0.733154
vt 0.895996 0.733154 0.733154
vt 0.898438 0.657227 0.657227
vt 0.934570 0.733154 0.733154
vt 0.934570 0.657227 0.657227
vt 0.937012 0.657227 0.657227
vt 0.937012 0.733154 0.733154
vt 0.835938 0.696533 0.696533
vt 0.833496 0.730713 0.730713
vt 0.833496 0.696533 0.696533
vt 0.835938 0.730713 0.730713
vt 0.871582 0.696533 0.696533
vt 0.871582 0.730713 0.730713
vt 0.874023 0.730713 0.730713
vt 0.874023 0.696533 0.696533
vt 0.980957 0.716064 0.716064
vt 0.983398 0.640137 0.640137
vt 0.983398 0.716064 0.716064
vt 0.980957 0.640137 0.640137
vt 0.944824 0.716064 0.716064
vt 0.944824 0.640137 0.640137
vt 0.942383 0.640137 0.640137
vt 0.942383 0.716064 0.716064
vt 0.833008 0.730713 0.730713
vt 0.830566 0.696533 0.696533
vt 0.833008 0.696533 0.696533
vt 0.830566 0.730713 0.730713
vt 0.794922 0.696533 0.696533
vt 0.794922 0.730713 0.730713
vt 0.792480 0.730713 0.730713
vt 0.792480 0.696533 0.696533
vt 0.910645 0.634033 0.634033
vt 0.841797 0.616943 0.616943
vt 0.890625 0.606201 0.606201
vt 0.857422 0.688477 0.688477
vt 0.786621 0.661377 0.661377
vt 0.792969 0.627686 0.627686
vt 0.856445 0.535889 0.535889
vt 0.790039 0.560303 0.560303
vt 0.806641 0.530518 0.530518
vt 0.848145 0.608643 0.608643
vt 0.915527 0.574219 0.574219
vt 0.905762 0.541504 0.541504
vt 0.942383 0.639893 0.639893
vt 0.942383 0.590088 0.590088
vt 0.944824 0.590088 0.590088
vt 0.942383 0.540039 0.540039
vt 0.944824 0.639893 0.639893
vt 0.944824 0.540039 0.540039
vt 0.980957 0.590088 0.590088
vt 0.980957 0.639893 0.639893
vt 0.980957 0.540039 0.540039
vt 0.983398 0.639893 0.639893
vt 0.983398 0.540039 0.540039
vt 0.983398 0.590088 0.590088
# 56 texture coords

g Dn_HL_Ruins_Trim_Cap_1M_A
usemtl Dn_HL_Inst_Ruins_Trim_Cap_A
s 1
f 1/1/1 2/2/2 3/3/3 
f 2/2/2 1/1/1 4/4/4 
f 4/4/4 5/5/5 2/2/2 
f 5/5/5 4/4/4 6/6/6 
f 5/5/5 6/6/6 7/7/7 
f 5/5/5 7/7/7 8/8/8 
f 9/9/9 1/10/10 10/11/11 
f 9/9/9 4/12/12 1/10/10 
f 4/12/12 9/9/9 11/13/13 
f 6/14/14 4/12/12 11/13/13 
f 11/13/13 7/15/15 6/14/14 
f 7/15/15 11/13/13 12/16/16 
f 2/17/17 13/18/18 3/19/19 
f 2/17/17 14/20/20 13/18/18 
f 5/21/21 14/20/20 2/17/17 
f 14/20/20 5/21/21 15/22/22 
f 5/21/21 16/23/23 15/22/22 
f 16/23/23 5/21/21 8/24/24 
f 13/25/25 17/26/26 18/27/27 
f 17/26/26 13/25/25 14/28/28 
f 14/28/28 19/29/29 17/26/26 
f 19/29/29 14/28/28 15/30/30 
f 19/29/29 15/30/30 16/31/31 
f 19/29/29 16/31/31 20/32/32 
f 1/33/33 21/34/34 10/35/35 
f 3/36/34 21/34/34 1/33/33 
f 3/36/34 13/37/36 21/34/34 
f 13/37/36 18/38/37 21/34/34 
f 22/39/38 7/40/38 12/41/39 
f 7/40/38 22/39/38 8/42/40 
f 16/43/40 8/42/40 22/39/38 
f 16/43/40 22/39/38 20/44/41 
f 10/45/42 21/46/43 23/47/44 
f 18/48/45 23/47/44 21/46/43 
f 23/47/44 9/49/46 10/45/42 
f 23/47/44 18/48/45 17/50/47 
f 9/49/46 23/47/44 24/51/48 
f 24/51/48 23/47/44 17/50/47 
f 11/52/49 9/49/46 24/51/48 
f 24/51/48 17/50/47 19/53/50 
f 24/51/48 12/54/51 11/52/49 
f 24/51/48 19/53/50 20/55/51 
f 12/54/51 24/51/48 22/56/52 
f 24/51/48 20/55/51 22/56/52 
# 0 polygons - 44 triangles

