# 3ds Max Wavefront OBJ Exporter v0.97b - (c)2007 guruware
# File Created: 09.05.2023 17:14:59

mtllib Ruins_Trim_Base_DMG_Rubble_D.mtl

#
# object Dn_HL_Ruins_Trim_Base_DMG_Rubble_D
#

v  0.873816 0.198264 0.212763
v  0.705871 -0.208113 0.253015
v  0.805970 -0.105006 0.223607
v  0.921345 0.294484 0.134566
v  0.764876 0.320598 0.198645
v  0.583447 0.390112 0.083298
v  0.791068 0.395934 -0.004558
v  0.920485 0.349481 0.058403
v  0.825393 0.399163 -0.151653
v  0.916177 0.337677 -0.156584
v  0.823119 0.236141 -0.227178
v  0.641626 0.327905 -0.228599
v  0.290282 0.392465 0.038531
v  -0.452924 0.386182 -0.199328
v  -0.587984 0.384651 -0.012818
v  -0.633837 0.383453 -0.217013
v  -0.697632 0.354890 0.050851
v  -0.775806 0.391176 -0.212999
v  -0.815049 0.360966 -0.078866
v  -0.837614 0.203411 0.051617
v  -0.921347 0.227569 -0.150360
v  -0.865212 0.286854 -0.243601
v  -0.769797 0.007670 0.020189
v  0.742136 -0.330627 -0.227008
v  0.911558 -0.166733 -0.220450
v  0.901441 -0.350956 -0.161570
v  0.361784 0.025716 -0.223994
v  0.214347 -0.375138 -0.249438
v  -0.529858 0.324511 -0.213835
v  -0.575766 0.047910 -0.235529
v  -0.133657 -0.381494 -0.241623
v  -0.483017 -0.310294 -0.240033
v  -0.744348 0.022812 -0.209357
v  -0.701736 0.322568 -0.253015
v  -0.715735 -0.017397 0.044105
v  -0.381312 -0.299082 0.110098
v  -0.121497 -0.340507 0.162755
v  -0.235364 0.156306 0.115744
v  0.249662 -0.184036 0.169356
v  0.355413 -0.329288 0.148691
v  0.234687 0.331446 0.102336
v  0.436002 0.222648 0.161392
v  0.341214 -0.107969 0.204766
v  0.380348 -0.120426 0.239554
v  0.542586 -0.245972 0.252231
v  0.474268 -0.334113 0.183924
v  0.769172 -0.386466 0.078910
v  0.916484 -0.255898 0.140779
v  0.190882 -0.382717 0.026709
v  -0.197152 -0.399163 0.041175
v  -0.471668 -0.384678 -0.177791
v  -0.422799 -0.389183 -0.015544
v  -0.601498 -0.245972 -0.002949
v  0.914616 0.128637 -0.190917
v  0.919755 -0.087448 0.141583
v  0.854083 0.011599 0.142896
# 56 vertices

vn 0.744754 -0.160389 0.647779
vn 0.376675 -0.103110 0.920589
vn 0.462479 -0.032705 0.886027
vn 0.250681 0.756239 0.604369
vn 0.302733 0.872434 0.383682
vn 0.401738 0.449810 0.797670
vn 0.056502 0.989709 0.131469
vn 0.135077 0.967185 0.215191
vn 0.156841 0.896583 0.414174
vn 0.265845 0.854069 -0.447094
vn 0.454457 0.713747 -0.532948
vn 0.218407 0.407705 -0.886609
vn 0.070361 0.642502 -0.763047
vn -0.008930 0.999770 0.019487
vn -0.010272 0.999772 -0.018714
vn -0.045246 0.979968 0.193949
vn 0.025307 0.999613 -0.011548
vn -0.300344 0.881198 0.365081
vn -0.395861 0.917965 0.025201
vn -0.578082 0.775644 0.253374
vn -0.886778 0.095816 0.452156
vn -0.901543 0.378085 0.210411
vn -0.753519 0.656425 -0.036271
vn -0.877649 -0.355660 0.321307
vn 0.109451 -0.074655 -0.991185
vn 0.125677 -0.090384 -0.987945
vn 0.328564 -0.303861 -0.894268
vn 0.004005 -0.006835 -0.999969
vn 0.005153 0.022389 -0.999736
vn -0.004008 -0.006288 -0.999972
vn 0.016772 0.043891 -0.998896
vn 0.098012 0.116169 -0.988382
vn 0.010330 0.216730 -0.976177
vn 0.136950 0.337780 -0.931208
vn -0.035218 -0.011698 -0.999311
vn -0.018356 -0.004709 -0.999821
vn -0.027260 0.005510 -0.999613
vn -0.133771 -0.126434 -0.982914
vn -0.094127 0.055276 -0.994024
vn 0.033933 0.215365 -0.975944
vn -0.089093 0.428302 -0.899233
vn -0.178615 -0.005775 0.983902
vn -0.499609 -0.303370 0.811392
vn -0.404671 -0.253257 0.878693
vn -0.219657 -0.086371 0.971746
vn -0.079885 0.028610 0.996393
vn -0.084299 0.128661 0.988099
vn -0.081155 0.133760 0.987685
vn -0.164048 -0.139665 0.976515
vn -0.209295 -0.297067 0.931637
vn -0.061255 0.542525 0.837803
vn -0.068639 0.750199 0.657640
vn -0.183094 0.572298 0.799344
vn -0.116940 0.307839 0.944225
vn -0.126322 0.268184 0.955050
vn -0.373998 0.235260 0.897094
vn -0.353078 0.104296 0.929762
vn -0.012474 0.103666 0.994534
vn 0.009646 -0.015105 0.999839
vn -0.032635 -0.350793 0.935884
vn -0.199689 -0.498826 0.843384
vn 0.245384 -0.966898 -0.069962
vn 0.016611 -0.998400 -0.054051
vn 0.093876 -0.862888 -0.496601
vn 0.246682 -0.909059 0.335798
vn 0.432306 -0.735165 0.522152
vn 0.185536 -0.651897 0.735259
vn -0.006065 -0.871437 0.490470
vn 0.018702 -0.987024 0.159483
vn 0.005214 -0.993591 -0.112917
vn -0.162822 -0.801509 0.575389
vn -0.051042 -0.968618 0.243255
vn -0.041927 -0.883001 0.467495
vn -0.422436 -0.848612 -0.318443
vn -0.524989 -0.591875 -0.611614
vn -0.329377 -0.892762 0.307387
vn -0.357275 -0.671776 0.648900
vn -0.738379 -0.514338 -0.436181
vn -0.705949 -0.608513 0.362419
vn -0.516594 -0.412630 0.750244
vn -0.809044 -0.554583 0.194644
vn -0.740437 -0.466046 -0.484308
vn -0.661044 -0.386037 -0.643425
vn 0.914710 -0.061362 0.399426
vn 0.997503 -0.064192 -0.029447
vn 0.994882 -0.020691 -0.098907
vn 0.865014 0.050275 -0.499222
vn 0.487513 0.123377 -0.864355
vn 0.952730 0.042301 -0.300858
vn 0.999822 -0.006687 -0.017611
vn 0.972928 -0.213436 0.088640
vn 0.866147 0.176601 0.467548
vn 0.924063 0.098747 0.369264
# 93 vertex normals

vt 0.005230 0.124023 0.124023
vt 0.021683 0.157715 0.157715
vt 0.012352 0.149414 0.149414
vt 0.278076 0.062012 0.062012
vt 0.264648 0.056152 0.056152
vt 0.277588 0.050781 0.050781
vt 0.247803 0.065918 0.065918
vt 0.264893 0.074707 0.074707
vt 0.277100 0.070313 0.070313
vt 0.266602 0.086914 0.086914
vt 0.275391 0.089355 0.089355
vt 0.268799 0.101563 0.101563
vt 0.251465 0.096191 0.096191
vt 0.222046 0.068359 0.068359
vt 0.158081 0.087402 0.087402
vt 0.147095 0.071289 0.071289
vt 0.142822 0.088379 0.088379
vt 0.137451 0.065430 0.065430
vt 0.130615 0.088379 0.088379
vt 0.128052 0.076660 0.076660
vt 0.119629 0.061523 0.061523
vt 0.113037 0.079590 0.079590
vt 0.118652 0.088867 0.088867
vt 0.103271 0.054199 0.054199
vt 0.033112 0.180176 0.180176
vt 0.019226 0.194824 0.194824
vt 0.018478 0.178223 0.178223
vt 0.028152 0.229004 0.229004
vt 0.066711 0.209473 0.209473
vt 0.043915 0.236328 0.236328
vt 0.077881 0.174805 0.174805
vt 0.143555 0.231934 0.231934
vt 0.137207 0.237305 0.237305
vt 0.152710 0.236816 0.236816
vt 0.146606 0.208008 0.208008
vt 0.107422 0.172852 0.172852
vt 0.137329 0.177734 0.177734
vt 0.161011 0.205078 0.205078
vt 0.172241 0.227051 0.227051
vt 0.158447 0.230469 0.230469
vt 0.165039 0.237305 0.237305
vt 0.151855 0.112793 0.112793
vt 0.148438 0.130371 0.130371
vt 0.143433 0.132813 0.132813
vt 0.116272 0.158691 0.158691
vt 0.094055 0.164063 0.164063
vt 0.139038 0.101074 0.101074
vt 0.100586 0.120605 0.120605
vt 0.061401 0.153320 0.153320
vt 0.053650 0.166992 0.166992
vt 0.059814 0.107910 0.107910
vt 0.055023 0.100098 0.100098
vt 0.030090 0.103027 0.103027
vt 0.042847 0.118652 0.118652
vt 0.013847 0.112793 0.112793
vt 0.052734 0.146484 0.146484
vt 0.048706 0.148438 0.148438
vt 0.035736 0.159668 0.159668
vt 0.042694 0.167969 0.167969
vt 0.203125 0.019531 0.019531
vt 0.144409 0.009277 0.009277
vt 0.189697 0.012695 0.012695
vt 0.190308 0.038574 0.038574
vt 0.204956 0.047363 0.047363
vt 0.187134 0.059570 0.059570
vt 0.165405 0.048340 0.048340
vt 0.141479 0.033203 0.033203
vt 0.114990 0.008789 0.008789
vt 0.154907 0.045410 0.045410
vt 0.108521 0.032715 0.032715
vt 0.113464 0.044922 0.044922
vt 0.086792 0.012695 0.012695
vt 0.083130 0.005859 0.005859
vt 0.090332 0.025879 0.025879
vt 0.090027 0.039551 0.039551
vt 0.045441 0.010742 0.010742
vt 0.071594 0.027344 0.027344
vt 0.051605 0.036133 0.036133
vt 0.046295 0.032227 0.032227
vt 0.022430 0.018066 0.018066
vt 0.020569 0.007324 0.007324
vt 0.190918 0.150879 0.150879
vt 0.185059 0.124512 0.124512
vt 0.201172 0.121094 0.121094
vt 0.194946 0.171387 0.171387
vt 0.204102 0.162598 0.162598
vt 0.225952 0.125977 0.125977
vt 0.236084 0.118652 0.118652
vt 0.243774 0.128906 0.128906
vt 0.244751 0.146973 0.146973
vt 0.239868 0.153809 0.153809
vt 0.230713 0.160645 0.160645
vt 0.204956 0.151367 0.151367
vt 0.214600 0.154785 0.154785
# 94 texture coords

g Dn_HL_Ruins_Trim_Base_DMG_Rubble_D
usemtl Dn_HL_Inst_Ruins_Trim_Base_B
s 1
f 1/1/1 2/2/2 3/3/3 
f 4/4/4 5/5/5 1/6/6 
f 5/5/5 4/4/4 6/7/7 
f 4/4/4 7/8/8 6/7/7 
f 8/9/9 7/8/8 4/4/4 
f 6/7/7 7/8/8 9/10/10 
f 8/9/9 9/10/10 7/8/8 
f 8/9/9 10/11/11 9/10/10 
f 9/10/10 10/11/11 11/12/12 
f 12/13/13 9/10/10 11/12/12 
f 13/14/14 6/7/7 9/10/10 
f 9/10/10 12/13/13 14/15/15 
f 13/14/14 9/10/10 14/15/15 
f 15/16/16 13/14/14 14/15/15 
f 15/16/16 14/15/15 16/17/17 
f 17/18/18 13/14/14 15/16/16 
f 15/16/16 16/17/17 18/19/19 
f 19/20/20 17/18/18 15/16/16 
f 18/19/19 19/20/20 15/16/16 
f 20/21/21 17/18/18 19/20/20 
f 19/20/20 18/19/19 21/22/22 
f 20/21/21 19/20/20 21/22/22 
f 21/22/22 18/19/19 22/23/23 
f 21/22/22 23/24/24 20/21/21 
f 24/25/25 25/26/26 26/27/27 
f 11/28/28 25/26/26 24/25/25 
f 11/28/28 24/25/25 27/29/29 
f 27/29/29 12/30/30 11/28/28 
f 27/29/29 24/25/25 28/31/31 
f 29/32/32 12/30/30 27/29/29 
f 12/30/30 29/32/32 14/33/33 
f 14/33/33 29/32/32 16/34/34 
f 30/35/35 27/29/29 28/31/31 
f 29/32/32 27/29/29 30/35/35 
f 30/35/35 28/31/31 31/36/36 
f 30/35/35 31/36/36 32/37/37 
f 33/38/38 30/35/35 32/37/37 
f 22/39/39 30/35/35 33/38/38 
f 30/35/35 34/40/40 29/32/32 
f 22/39/39 34/40/40 30/35/35 
f 34/40/40 16/34/34 29/32/32 
f 18/41/41 34/40/40 22/39/39 
f 16/34/34 34/40/40 18/41/41 
f 20/42/42 23/43/43 35/44/44 
f 20/42/42 35/44/44 36/45/45 
f 20/42/42 36/45/45 37/46/46 
f 17/47/47 20/42/42 37/46/46 
f 38/48/48 17/47/47 37/46/46 
f 38/48/48 37/46/46 39/49/49 
f 39/49/49 37/46/46 40/50/50 
f 41/51/51 17/47/47 38/48/48 
f 13/52/52 17/47/47 41/51/51 
f 6/53/53 13/52/52 41/51/51 
f 6/53/53 41/51/51 42/54/54 
f 41/51/51 38/48/48 42/54/54 
f 42/54/54 5/55/55 6/53/53 
f 42/54/54 38/48/48 43/56/56 
f 42/54/54 43/56/56 5/55/55 
f 39/49/49 43/56/56 38/48/48 
f 44/57/57 43/56/56 39/49/49 
f 5/55/55 43/56/56 44/57/57 
f 44/57/57 39/49/49 40/50/50 
f 1/1/58 5/55/55 2/2/59 
f 2/2/59 5/55/55 44/57/57 
f 44/57/57 40/50/50 45/58/60 
f 2/2/59 44/57/57 45/58/60 
f 40/50/50 46/59/61 45/58/60 
f 45/58/60 46/59/61 2/2/59 
f 26/60/62 28/61/63 24/62/64 
f 47/63/65 28/61/63 26/60/62 
f 26/60/62 48/64/66 47/63/65 
f 47/63/65 48/64/66 2/65/67 
f 47/63/65 2/65/67 46/66/68 
f 47/63/65 49/67/69 28/61/63 
f 47/63/65 46/66/68 49/67/69 
f 49/67/69 31/68/70 28/61/63 
f 40/69/71 49/67/69 46/66/68 
f 50/70/72 49/67/69 40/69/71 
f 49/67/69 50/70/72 31/68/70 
f 50/70/72 40/69/71 37/71/73 
f 50/70/72 51/72/74 31/68/70 
f 31/68/70 51/72/74 32/73/75 
f 52/74/76 50/70/72 37/71/73 
f 50/70/72 52/74/76 51/72/74 
f 37/71/73 36/75/77 52/74/76 
f 32/73/75 51/72/74 33/76/78 
f 52/74/76 36/75/77 53/77/79 
f 52/74/76 53/77/79 51/72/74 
f 35/78/80 53/77/79 36/75/77 
f 23/79/81 53/77/79 35/78/80 
f 53/77/79 23/79/81 21/80/82 
f 51/72/74 53/77/79 21/80/82 
f 33/76/78 51/72/74 21/80/82 
f 33/76/78 21/80/82 22/81/83 
f 48/82/84 26/83/85 25/84/86 
f 2/85/2 48/82/84 3/86/3 
f 54/87/87 48/82/84 25/84/86 
f 11/88/88 54/87/87 25/84/86 
f 10/89/89 54/87/87 11/88/88 
f 8/90/90 54/87/87 10/89/89 
f 4/91/91 54/87/87 8/90/90 
f 4/91/91 1/92/1 54/87/87 
f 48/82/84 54/87/87 55/93/92 
f 55/93/92 3/86/3 48/82/84 
f 1/92/1 56/94/93 54/87/87 
f 55/93/92 54/87/87 56/94/93 
f 3/86/3 56/94/93 1/92/1 
f 56/94/93 3/86/3 55/93/92 
# 0 polygons - 108 triangles

