# 3ds Max Wavefront OBJ Exporter v0.97b - (c)2007 guruware
# File Created: 09.05.2023 17:37:53

mtllib Ruins_Trim_Cap_4M_A.mtl

#
# object Dn_HL_Ruins_Trim_Cap_4M_A
#

v  -1.985589 -1.308404 0.214175
v  -1.984118 -1.311783 0.226520
v  -2.015624 -1.311787 0.226518
v  -2.014155 -1.308408 0.214176
v  -1.020007 2.500210 0.002562
v  -1.020003 2.834361 0.790605
v  -0.056100 2.834361 0.790605
v  -0.056100 2.500210 0.002562
v  -0.000001 2.747434 0.783312
v  0.000000 2.431617 0.038505
v  -1.020002 -0.000213 0.002562
v  -1.983688 -0.000006 -1.073130
v  -1.987548 0.015715 -1.077438
v  -1.020007 1.249998 0.002562
v  -1.987546 2.484280 -1.077438
v  -1.983687 2.500001 -1.073130
v  -4.000284 2.774780 0.785606
v  -4.000285 1.249998 1.790723
v  -3.918685 1.249998 1.833374
v  -3.918683 2.834360 0.790605
v  -2.980283 1.249998 1.814718
v  -2.980284 2.834360 0.790605
v  -4.000286 2.453195 0.027198
v  -3.918686 2.500209 0.002562
v  -2.980284 2.500210 0.002562
v  0.000000 1.249998 1.770403
v  -0.056100 1.249998 1.833118
v  -1.020003 2.834348 0.790613
v  -1.020007 1.249998 1.800845
v  -0.056099 -0.334364 0.790605
v  0.000000 -0.247438 0.783312
v  -1.020002 -0.334364 0.790605
v  -0.056100 -0.000213 0.002562
v  0.000000 0.068380 0.038505
v  0.000000 1.249998 0.038505
v  -2.980283 -0.334364 0.790605
v  -2.980281 -0.000213 0.002562
v  -2.020081 -0.564281 -0.292243
v  -2.016054 -0.000006 -1.073135
v  -1.979661 -0.564276 -0.292241
v  -3.918682 -0.334365 0.790605
v  -4.000282 -0.274785 0.785606
v  -3.918682 -0.000214 0.002562
v  -4.000282 0.046800 0.027198
v  -4.000285 1.249998 0.027198
v  -0.056100 1.249998 0.002562
v  -3.918685 1.249998 0.002562
v  -2.980283 1.249998 0.002562
v  -1.940656 -1.003381 0.903142
v  -2.020191 -0.971275 0.869182
v  -2.014317 -0.965820 0.440921
v  -1.985430 -0.965819 0.440921
v  -1.752725 -0.696821 0.602630
v  -1.942201 -0.906278 0.954417
v  -1.999872 -0.433183 0.775540
v  -2.023884 -0.899283 0.929842
v  -2.247048 -0.696877 0.602602
v  -2.012195 0.015713 -1.077440
v  -2.012193 2.484282 -1.077440
v  -2.016053 2.500001 -1.073135
v  -1.984119 3.811779 0.226520
v  -1.985590 3.808401 0.214175
v  -2.015625 3.811782 0.226518
v  -1.979661 3.064272 -0.292241
v  -2.014155 3.808404 0.214176
v  -2.020081 3.064277 -0.292243
v  -1.999870 0.688614 1.482613
v  -1.313449 1.249998 1.834996
v  -1.893295 1.216308 2.742856
v  -1.893295 1.265481 2.742856
v  -1.999870 1.811389 1.482625
v  -2.132614 1.216566 2.713435
v  -2.662685 1.249998 1.834996
v  -2.132614 1.265222 2.713435
v  -2.020505 3.458333 0.445350
v  -2.242475 3.196760 0.599567
v  -2.025218 3.474864 0.892585
v  -1.991402 3.458644 0.445166
v  -2.017883 3.425742 0.982429
v  -1.999872 2.944340 0.769138
v  -1.914053 3.467758 0.867193
v  -1.757304 3.196699 0.599598
v  -1.926471 3.411340 0.956764
v  -1.116154 1.249998 1.834996
v  -2.902246 1.249998 1.834996
# 85 vertices

vn 0.000124 -0.964522 -0.264003
vn 0.000130 -0.964526 -0.263989
vn 0.000118 -0.964518 -0.264017
vn 0.350495 0.822895 -0.447211
vn 0.416910 0.836825 -0.354837
vn 0.386076 0.849272 -0.360113
vn 0.444120 0.824876 -0.349768
vn 0.808898 0.541297 -0.229524
vn 0.808895 0.541302 -0.229525
vn 0.744819 0.000003 -0.667266
vn 0.744820 0.000026 -0.667266
vn 0.744820 0.000012 -0.667265
vn 0.744821 0.000001 -0.667264
vn 0.744832 0.000017 -0.667252
vn 0.744831 0.000016 -0.667253
vn 0.744822 0.000000 -0.667264
vn -0.412033 0.500949 0.761104
vn -0.399969 0.504429 0.765229
vn -0.178059 0.541234 0.821803
vn -0.169556 0.538864 0.825152
vn 0.011758 0.547720 0.836579
vn -0.000000 0.542854 0.839827
vn -0.543982 0.772518 -0.327566
vn -0.543983 0.772517 -0.327566
vn -0.255886 0.890002 -0.377383
vn -0.279565 0.883944 -0.374814
vn -0.416785 0.836879 -0.354858
vn -0.350381 0.822935 -0.447226
vn 0.682751 0.401634 0.610362
vn 0.693031 0.396766 0.601901
vn 0.259825 0.530978 0.806569
vn 0.300484 0.519094 0.800157
vn 0.007672 0.552916 0.833202
vn 0.017562 0.557029 0.830308
vn -0.028219 0.537422 0.842841
vn 0.254349 -0.525941 0.811599
vn 0.693035 -0.396764 0.601898
vn 0.682751 -0.401634 0.610362
vn 0.295843 -0.525073 0.797982
vn -0.019621 -0.545993 0.837560
vn 0.000000 -0.537637 0.843177
vn 0.444122 -0.824875 -0.349768
vn 0.808898 -0.541298 -0.229524
vn 0.808901 -0.541294 -0.229523
vn 0.386078 -0.849272 -0.360113
vn 0.031156 -0.955488 0.293380
vn -0.000000 -0.920653 -0.390381
vn 1.000000 0.000000 0.000000
vn 1.000000 0.000000 0.000001
vn -0.757731 -0.600802 -0.254715
vn -0.757719 -0.600800 -0.254756
vn -0.384483 -0.361176 -0.849544
vn -0.473320 -0.630079 -0.615605
vn -0.285087 -0.661644 -0.693507
vn -0.210219 -0.791907 -0.573317
vn 0.473464 -0.629982 -0.615593
vn 0.285329 -0.661596 -0.693454
vn 0.210364 -0.791882 -0.573298
vn 0.384597 -0.361099 -0.849525
vn 0.757899 -0.600608 -0.254674
vn 0.757900 -0.600604 -0.254681
vn -0.169453 -0.539092 0.825024
vn -0.000000 -0.542854 0.839827
vn 0.011759 -0.547720 0.836579
vn -0.177912 -0.541002 0.821988
vn -0.400454 -0.503781 0.765403
vn -0.412633 -0.501331 0.760527
vn -0.279565 -0.883944 -0.374815
vn 0.000000 -0.920653 -0.390381
vn -0.024722 -0.954590 0.296894
vn -0.255887 -0.890002 -0.377384
vn -0.543983 -0.772517 -0.327567
vn -0.543984 -0.772516 -0.327567
vn -1.000000 -0.000001 0.000000
vn -1.000000 -0.000002 -0.000001
vn -1.000000 -0.000002 -0.000000
vn -1.000000 -0.000000 0.000000
vn -1.000000 0.000000 0.000001
vn -1.000000 -0.000001 0.000004
vn 0.000000 0.000000 -1.000000
vn 0.184130 0.000000 -0.982902
vn 0.281064 0.000000 -0.959689
vn 0.539468 0.000000 -0.842006
vn 0.184131 0.000000 -0.982902
vn 0.539472 0.000000 -0.842004
vn -0.289024 -0.000000 -0.957322
vn -0.118116 -0.000000 -0.993000
vn -0.146079 -0.000000 -0.989273
vn -0.289024 -0.000001 -0.957322
vn 0.270119 -0.820131 0.504402
vn -0.576136 -0.779692 0.245249
vn -0.438866 -0.897123 -0.050665
vn 0.355243 -0.928297 -0.109850
vn 0.936263 -0.149912 0.317708
vn 0.324549 -0.118295 0.938442
vn -0.016471 0.406147 0.913659
vn -0.573917 -0.166625 0.801783
vn -0.889082 -0.215316 0.403947
vn -0.482626 -0.119174 -0.867680
vn -0.744635 -0.000001 -0.667472
vn -0.744634 -0.000000 -0.667473
vn -0.371261 -0.085193 -0.924612
vn 0.000115 -0.264231 -0.964459
vn 0.000093 -0.142490 -0.989796
vn -0.371247 0.085182 -0.924618
vn -0.744633 -0.000001 -0.667474
vn 0.000093 0.142490 -0.989796
vn -0.482635 0.119141 -0.867680
vn 0.000115 0.264234 -0.964459
vn 0.465596 0.837925 -0.284783
vn 0.343762 0.772948 -0.533273
vn -0.465352 0.838046 -0.284828
vn 0.285331 0.661596 -0.693453
vn 0.210366 0.791880 -0.573299
vn -0.343555 0.773021 -0.533300
vn -0.285086 0.661645 -0.693507
vn -0.210218 0.791905 -0.573318
vn 0.032195 -0.937982 0.345186
vn 0.858775 0.004140 0.512336
vn 0.362475 -0.479281 0.799313
vn 0.361615 0.474001 0.802844
vn -0.003215 0.933698 0.358047
vn -0.463424 -0.482573 0.743210
vn -0.871720 0.004437 0.489984
vn -0.462988 0.477056 0.747034
vn -0.431212 0.901456 -0.037866
vn -0.910865 0.193585 0.364485
vn -0.421187 0.867677 0.264080
vn 0.325023 0.941397 -0.090174
vn -0.315494 0.307334 0.897780
vn -0.013554 -0.469589 0.882781
vn 0.586106 0.784062 0.204273
vn 0.949279 0.137530 0.282762
vn 0.590107 0.190060 0.784634
vn -0.011400 -0.526703 0.849973
vn 0.011406 -0.526703 0.849973
vn 0.024076 -0.528420 0.848642
vn -0.024056 -0.528422 0.848641
vn 0.051668 -0.540093 0.840018
vn -0.002946 -0.532109 0.846671
vn -0.051642 -0.540096 0.840017
vn 0.162162 0.001799 0.986763
vn 0.334707 -0.000000 0.942322
vn -0.225803 0.545671 0.807005
vn -0.010348 -0.538544 0.842534
vn 0.028623 0.536735 0.843265
vn -0.000001 -0.000010 1.000000
vn -0.001532 0.543642 0.839316
vn -0.121301 0.002463 0.992613
vn -0.251499 0.000000 0.967858
vn -0.004579 0.010493 0.999934
vn -0.037807 0.535875 0.843451
vn -0.042891 0.533854 0.844488
vn 0.002065 0.532354 0.846520
vn -0.023398 0.527148 0.849451
vn 0.044048 0.534543 0.843993
vn -0.011207 0.526484 0.850111
vn 0.022157 0.526822 0.849687
vn 0.011284 0.526209 0.850280
# 159 vertex normals

vt 0.939453 0.286621 0.286621
vt 0.939453 0.287109 0.287109
vt 0.937988 0.287109 0.287109
vt 0.937988 0.286621 0.286621
vt 0.373535 0.152344 0.152344
vt 0.373535 0.207520 0.207520
vt 0.311523 0.207520 0.207520
vt 0.311523 0.152344 0.152344
vt 0.307861 0.207520 0.207520
vt 0.307861 0.152344 0.152344
vt 0.791016 0.174805 0.174805
vt 0.789551 0.117188 0.117188
vt 0.790039 0.116699 0.116699
vt 0.840820 0.173828 0.173828
vt 0.888672 0.114258 0.114258
vt 0.889160 0.114746 0.114746
vt 0.890625 0.172363 0.172363
vt 0.990234 0.409180 0.409180
vt 0.990234 0.484863 0.484863
vt 0.986816 0.484863 0.484863
vt 0.986816 0.409180 0.409180
vt 0.949707 0.484863 0.484863
vt 0.949707 0.409180 0.409180
vt 0.840332 0.465332 0.465332
vt 0.840332 0.499512 0.499512
vt 0.836914 0.499512 0.499512
vt 0.836914 0.465332 0.465332
vt 0.799316 0.499512 0.499512
vt 0.799316 0.465332 0.465332
vt 0.549805 0.305664 0.305664
vt 0.549805 0.183594 0.183594
vt 0.553223 0.183594 0.183594
vt 0.553223 0.305664 0.305664
vt 0.615234 0.183594 0.183594
vt 0.615234 0.305664 0.305664
vt 0.536621 0.117676 0.117676
vt 0.540527 0.117676 0.117676
vt 0.540527 0.239746 0.239746
vt 0.536621 0.239746 0.239746
vt 0.474854 0.239746 0.239746
vt 0.474854 0.117676 0.117676
vt 0.435791 0.152344 0.152344
vt 0.439453 0.152344 0.152344
vt 0.439453 0.207520 0.207520
vt 0.435791 0.207520 0.207520
vt 0.373779 0.207520 0.207520
vt 0.373779 0.152344 0.152344
vt 0.268066 0.065918 0.065918
vt 0.290527 0.015625 0.015625
vt 0.370850 0.017578 0.017578
vt 0.368408 0.135254 0.135254
vt 0.471680 0.070313 0.070313
vt 0.451416 0.019043 0.019043
vt 0.895996 0.276367 0.276367
vt 0.895996 0.238770 0.238770
vt 0.937988 0.245605 0.245605
vt 0.937988 0.201172 0.201172
vt 0.939941 0.245605 0.245605
vt 0.939453 0.201172 0.201172
vt 0.981934 0.238770 0.238770
vt 0.981934 0.276855 0.276855
vt 0.906250 0.426270 0.426270
vt 0.943848 0.426270 0.426270
vt 0.943848 0.501709 0.501709
vt 0.906250 0.501709 0.501709
vt 0.903320 0.501709 0.501709
vt 0.903320 0.426270 0.426270
vt 0.843750 0.465332 0.465332
vt 0.881348 0.465332 0.465332
vt 0.881348 0.499512 0.499512
vt 0.843750 0.499512 0.499512
vt 0.848633 0.385742 0.385742
vt 0.897461 0.375000 0.375000
vt 0.917480 0.402832 0.402832
vt 0.864746 0.457031 0.457031
vt 0.793945 0.430176 0.430176
vt 0.800293 0.396484 0.396484
vt 0.549805 0.102539 0.102539
vt 0.549805 0.022461 0.022461
vt 0.611816 0.022461 0.022461
vt 0.611816 0.102539 0.102539
vt 0.615234 0.022461 0.022461
vt 0.549805 0.183105 0.183105
vt 0.615234 0.102539 0.102539
vt 0.611816 0.183105 0.183105
vt 0.615234 0.183105 0.183105
vt 0.949707 0.358887 0.358887
vt 0.949707 0.309082 0.309082
vt 0.952637 0.309082 0.309082
vt 0.952637 0.358887 0.358887
vt 0.990234 0.309082 0.309082
vt 0.949707 0.408691 0.408691
vt 0.990234 0.358887 0.358887
vt 0.952637 0.408691 0.408691
vt 0.990234 0.408691 0.408691
vt 0.779297 0.228027 0.228027
vt 0.778809 0.226563 0.226563
vt 0.810059 0.206543 0.206543
vt 0.811035 0.207520 0.207520
vt 0.817871 0.231934 0.231934
vt 0.779785 0.229980 0.229980
vt 0.811523 0.256836 0.256836
vt 0.777344 0.230469 0.230469
vt 0.779297 0.230957 0.230957
vt 0.787598 0.267578 0.267578
vt 0.762695 0.265625 0.265625
vt 0.885742 0.030273 0.030273
vt 0.889160 0.087891 0.087891
vt 0.839355 0.090820 0.090820
vt 0.885254 0.029785 0.029785
vt 0.885742 0.028809 0.028809
vt 0.885254 0.028809 0.028809
vt 0.786621 0.035645 0.035645
vt 0.789551 0.093262 0.093262
vt 0.786621 0.034668 0.034668
vt 0.786133 0.035645 0.035645
vt 0.786133 0.034668 0.034668
vt 0.938477 0.188477 0.188477
vt 0.895996 0.181152 0.181152
vt 0.895996 0.142090 0.142090
vt 0.938477 0.187988 0.187988
vt 0.939453 0.188477 0.188477
vt 0.937988 0.147461 0.147461
vt 0.938477 0.102051 0.102051
vt 0.939453 0.187988 0.187988
vt 0.981934 0.181152 0.181152
vt 0.981934 0.142090 0.142090
vt 0.939941 0.147461 0.147461
vt 0.939453 0.102051 0.102051
vt 0.968262 0.098633 0.098633
vt 0.916016 0.081055 0.081055
vt 0.947754 0.059570 0.059570
vt 0.936523 0.054688 0.054688
vt 0.895996 0.030273 0.030273
vt 0.942871 0.040039 0.040039
vt 0.981934 0.033691 0.033691
vt 0.938965 0.000977 0.000977
vt 0.937012 0.038086 0.038086
vt 0.838867 0.237305 0.237305
vt 0.858398 0.253418 0.253418
vt 0.827637 0.263184 0.263184
vt 0.815430 0.291504 0.291504
vt 0.813965 0.290039 0.290039
vt 0.832031 0.265625 0.265625
vt 0.863770 0.280762 0.280762
vt 0.828125 0.268555 0.268555
vt 0.841309 0.295898 0.295898
vt 0.832520 0.267578 0.267578
vt 0.741211 0.001953 0.001953
vt 0.742676 0.001953 0.001953
vt 0.743164 0.018555 0.018555
vt 0.782227 0.046387 0.046387
vt 0.741699 0.018555 0.018555
vt 0.752441 0.030762 0.030762
vt 0.704102 0.048340 0.048340
vt 0.743164 0.043457 0.043457
vt 0.732910 0.031250 0.031250
vt 0.779785 0.122559 0.122559
vt 0.783691 0.122559 0.122559
vt 0.784668 0.198242 0.198242
vt 0.744141 0.096680 0.096680
vt 0.771973 0.122559 0.122559
vt 0.745117 0.149414 0.149414
vt 0.708496 0.123535 0.123535
vt 0.705078 0.124023 0.124023
vt 0.717773 0.123535 0.123535
vt 0.706543 0.199707 0.199707
vt 0.736328 0.215332 0.215332
vt 0.746094 0.203125 0.203125
vt 0.745605 0.227539 0.227539
vt 0.755859 0.214844 0.214844
vt 0.746094 0.244141 0.244141
vt 0.746582 0.227539 0.227539
vt 0.747559 0.244141 0.244141
# 174 texture coords

g Dn_HL_Ruins_Trim_Cap_4M_A
usemtl Dn_HL_Inst_Ruins_Trim_Cap_A
s 1
f 1/1/1 2/2/2 3/3/1 
f 3/3/1 4/4/3 1/1/1 
f 5/5/4 6/6/5 7/7/6 
f 7/7/6 8/8/7 5/5/4 
f 8/8/7 7/7/6 9/9/8 
f 9/9/8 10/10/9 8/8/7 
f 11/11/10 12/12/11 13/13/12 
f 13/13/12 14/14/13 11/11/10 
f 15/15/14 14/14/13 13/13/12 
f 14/14/13 15/15/14 16/16/15 
f 16/16/15 5/17/16 14/14/13 
f 17/18/17 18/19/18 19/20/19 
f 19/20/19 20/21/20 17/18/17 
f 20/21/20 19/20/19 21/22/21 
f 21/22/21 22/23/22 20/21/20 
f 23/24/23 17/25/24 20/26/25 
f 20/26/25 24/27/26 23/24/23 
f 24/27/26 20/26/25 22/28/27 
f 22/28/27 25/29/28 24/27/26 
f 26/30/29 9/31/30 7/32/31 
f 7/32/31 27/33/32 26/30/29 
f 27/33/32 7/32/31 6/34/33 
f 27/33/32 6/34/33 28/34/34 
f 29/35/35 27/33/32 28/34/34 
f 30/36/36 31/37/37 26/38/38 
f 26/38/38 27/39/39 30/36/36 
f 30/36/36 27/39/39 29/40/40 
f 29/40/40 32/41/41 30/36/36 
f 33/42/42 34/43/43 31/44/44 
f 31/44/44 30/45/45 33/42/42 
f 33/42/42 30/45/45 32/46/46 
f 32/46/46 11/47/47 33/42/42 
f 31/48/48 34/49/48 35/50/48 
f 35/50/48 26/51/48 31/48/48 
f 9/52/48 26/51/48 35/50/48 
f 35/50/48 10/53/49 9/52/48 
f 3/3/50 36/54/51 37/55/52 
f 37/55/52 4/4/53 3/3/50 
f 37/55/52 38/56/54 4/4/53 
f 39/57/55 38/56/54 37/55/52 
f 1/1/56 4/4/53 38/56/54 
f 40/58/57 38/56/54 39/57/55 
f 38/56/54 40/58/57 1/1/56 
f 39/57/55 12/59/58 40/58/57 
f 12/59/58 11/60/59 40/58/57 
f 40/58/57 11/60/59 1/1/56 
f 1/1/56 11/60/59 32/61/60 
f 32/61/60 2/2/61 1/1/56 
f 41/62/62 36/63/63 21/64/64 
f 21/64/64 19/65/65 41/62/62 
f 41/62/62 19/65/65 18/66/66 
f 18/66/66 42/67/67 41/62/62 
f 43/68/68 37/69/69 36/70/70 
f 36/70/70 41/71/71 43/68/68 
f 43/68/68 41/71/71 42/25/72 
f 42/25/72 44/24/73 43/68/68 
f 45/72/74 44/73/75 42/74/76 
f 42/74/76 18/75/77 45/72/74 
f 45/72/74 18/75/77 17/76/78 
f 17/76/78 23/77/79 45/72/74 
f 14/78/80 5/79/80 8/80/81 
f 8/80/81 46/81/82 14/78/80 
f 46/81/82 8/80/81 10/82/83 
f 11/83/59 14/78/80 46/81/82 
f 10/82/83 35/84/83 46/81/82 
f 46/81/82 33/85/84 11/83/59 
f 46/81/82 35/84/83 34/86/85 
f 34/86/85 33/85/84 46/81/82 
f 45/87/86 23/88/86 24/89/87 
f 24/89/87 47/90/88 45/87/86 
f 47/90/88 24/89/87 25/91/80 
f 44/92/89 45/87/86 47/90/88 
f 25/91/80 48/93/80 47/90/88 
f 47/90/88 43/94/87 44/92/89 
f 47/90/88 48/93/80 37/95/52 
f 37/95/52 43/94/87 47/90/88 
f 49/96/90 50/97/91 51/98/92 
f 51/98/92 52/99/93 49/96/90 
f 52/99/93 53/100/94 49/96/90 
f 54/101/95 49/96/90 53/100/94 
f 53/100/94 55/102/96 54/101/95 
f 50/103/91 49/96/90 54/101/95 
f 55/102/96 56/104/97 54/101/95 
f 54/101/95 56/104/97 50/103/91 
f 55/102/96 57/105/98 56/104/97 
f 57/105/98 50/103/91 56/104/97 
f 57/105/98 51/106/92 50/103/91 
f 39/107/99 37/108/100 48/109/101 
f 48/109/101 58/110/102 39/107/99 
f 12/111/103 39/107/99 58/110/102 
f 58/110/102 13/112/104 12/111/103 
f 48/109/101 59/113/105 58/110/102 
f 13/112/104 58/110/102 59/113/105 
f 59/113/105 48/109/101 25/114/106 
f 59/113/105 15/115/107 13/112/104 
f 25/114/106 60/116/108 59/113/105 
f 16/117/109 15/115/107 59/113/105 
f 59/113/105 60/116/108 16/117/109 
f 61/118/110 6/119/5 5/120/4 
f 5/120/4 62/121/111 61/118/110 
f 63/122/112 61/118/110 62/121/111 
f 64/123/113 62/121/111 5/120/4 
f 16/124/114 64/123/113 5/120/4 
f 62/121/111 65/125/115 63/122/112 
f 65/125/115 62/121/111 64/123/113 
f 22/126/27 63/122/112 65/125/115 
f 65/125/115 25/127/28 22/126/27 
f 66/128/116 64/123/113 16/124/114 
f 64/123/113 66/128/116 65/125/115 
f 25/127/28 65/125/115 66/128/116 
f 16/124/114 60/129/117 66/128/116 
f 60/129/117 25/127/28 66/128/116 
f 67/130/118 68/131/119 69/132/120 
f 68/131/119 70/133/121 69/132/120 
f 71/134/122 70/133/121 68/131/119 
f 72/135/123 69/132/120 70/133/121 
f 67/136/118 69/132/120 72/135/123 
f 73/137/124 67/136/118 72/135/123 
f 74/138/125 70/133/121 71/134/122 
f 73/137/124 74/138/125 71/134/122 
f 70/133/121 74/138/125 72/135/123 
f 72/135/123 74/138/125 73/137/124 
f 75/139/126 76/140/127 77/141/128 
f 78/142/129 75/143/126 77/141/128 
f 79/144/130 77/141/128 76/140/127 
f 76/140/127 80/145/131 79/144/130 
f 77/141/128 81/146/132 78/142/129 
f 81/146/132 77/141/128 79/144/130 
f 82/147/133 78/142/129 81/146/132 
f 80/145/131 83/148/134 79/144/130 
f 80/145/131 82/147/133 83/148/134 
f 79/144/130 83/148/134 81/146/132 
f 82/147/133 81/146/132 83/148/134 
f 3/149/135 2/150/136 52/151/137 
f 52/151/137 2/150/136 32/152/46 
f 52/151/137 51/153/138 3/149/135 
f 32/152/46 53/154/139 52/151/137 
f 36/155/70 3/149/135 51/153/138 
f 32/152/46 55/156/140 53/154/139 
f 51/153/138 57/157/141 36/155/70 
f 55/156/140 36/155/70 57/157/141 
f 32/152/46 84/158/142 55/156/140 
f 32/152/46 29/159/143 84/158/142 
f 84/158/142 29/159/143 28/160/144 
f 55/156/140 67/161/145 36/155/70 
f 84/158/142 67/161/145 55/156/140 
f 84/158/142 28/160/144 6/160/146 
f 84/158/142 68/162/147 67/161/145 
f 68/162/147 84/158/142 71/163/148 
f 84/158/142 6/160/146 71/163/148 
f 67/161/145 85/164/149 36/155/70 
f 85/164/149 21/165/150 36/155/70 
f 67/161/145 73/166/151 85/164/149 
f 22/167/152 21/165/150 85/164/149 
f 85/164/149 73/166/151 22/167/152 
f 73/166/151 71/163/148 22/167/152 
f 71/163/148 76/168/153 22/167/152 
f 71/163/148 80/169/154 76/168/153 
f 6/160/146 80/169/154 71/163/148 
f 22/167/152 76/168/153 75/170/155 
f 6/160/146 82/171/156 80/169/154 
f 75/170/155 63/172/157 22/167/152 
f 78/173/158 82/171/156 6/160/146 
f 61/174/159 63/172/157 75/170/155 
f 6/160/146 61/174/159 78/173/158 
f 75/170/155 78/173/158 61/174/159 
# 0 polygons - 166 triangles

